SplineFontDB: 3.2
FontName: roboto810pb
FullName: roboto810pb
FamilyName: roboto810pb
Weight: regular
Copyright: Copyright 2011 Google Inc. All Rights Reserved.
Version: 2.137; 2017
ItalicAngle: 0
UnderlinePosition: -200
UnderlineWidth: 100
Ascent: 1536
Descent: 512
InvalidEm: 0
sfntRevision: 0x00022312
LayerCount: 2
Layer: 0 1 "Back" 1
Layer: 1 1 "Fore" 0
XUID: [1021 467 -1121320856 6221898]
StyleMap: 0x0040
FSType: 0
OS2Version: 3
OS2_WeightWidthSlopeOnly: 0
OS2_UseTypoMetrics: 0
CreationTime: 1221222574
ModificationTime: 1601328658
PfmFamily: 17
TTFWeight: 400
TTFWidth: 5
LineGap: 0
VLineGap: 0
Panose: 2 0 0 0 0 0 0 0 0 0
OS2TypoAscent: 1536
OS2TypoAOffset: 0
OS2TypoDescent: -512
OS2TypoDOffset: 0
OS2TypoLinegap: 102
OS2WinAscent: 1946
OS2WinAOffset: 0
OS2WinDescent: 512
OS2WinDOffset: 0
HheadAscent: 1900
HheadAOffset: 0
HheadDescent: -500
HheadDOffset: 0
OS2SubXSize: 1434
OS2SubYSize: 1331
OS2SubXOff: 0
OS2SubYOff: 287
OS2SupXSize: 1434
OS2SupYSize: 1331
OS2SupXOff: 0
OS2SupYOff: 977
OS2StrikeYSize: 102
OS2StrikeYPos: 512
OS2CapHeight: 1456
OS2XHeight: 1082
OS2Vendor: 'GOOG'
OS2CodePages: 2000019f.00000000
OS2UnicodeRanges: e00002ff.5000205b.00000020.00000000
Lookup: 1 0 0 "'c2sc' Capitals to Small Capitals lookup 0" { "'c2sc' Capitals to Small Capitals lookup 0 subtable"  } ['c2sc' ('DFLT' <'dflt' > 'cyrl' <'dflt' > 'grek' <'dflt' > 'latn' <'AZE ' 'CRT ' 'FRA ' 'MOL ' 'NAV ' 'ROM ' 'TRK ' 'dflt' > ) ]
Lookup: 1 0 0 "'smcp' Lowercase to Small Capitals lookup 1" { "'smcp' Lowercase to Small Capitals lookup 1 subtable"  } ['smcp' ('DFLT' <'dflt' > 'cyrl' <'dflt' > 'grek' <'dflt' > 'latn' <'AZE ' 'CRT ' 'FRA ' 'MOL ' 'NAV ' 'ROM ' 'TRK ' 'dflt' > ) ]

StartChar: .notdef
Encoding: 1114112 -1 0
Width: 908
Flags: W
LayerCount: 2
Fore
SplineSet
808 0 m 1,0,-1
 100 0 l 1,1,-1
 100 1456 l 1,2,-1
 808 1456 l 1,3,-1
 808 0 l 1,0,-1
754 84 m 1,4,-1
 754 1371 l 1,5,-1
 480 728 l 1,6,-1
 754 84 l 1,4,-1
154 1359 m 1,7,-1
 154 96 l 1,8,-1
 422 728 l 1,9,-1
 154 1359 l 1,7,-1
194 54 m 1,10,-1
 709 54 l 1,11,-1
 451 660 l 1,12,-1
 194 54 l 1,10,-1
451 796 m 1,13,-1
 709 1402 l 1,14,-1
 194 1402 l 1,15,-1
 451 796 l 1,13,-1
EndSplineSet
Validated: 1
EndChar

StartChar: exclam
Encoding: 33 33 5
Width: 527
Flags: W
LayerCount: 2
Fore
SplineSet
347 411 m 1,0,-1
 180 411 l 1,1,-1
 167 1456 l 1,2,-1
 361 1456 l 1,3,-1
 347 411 l 1,0,-1
160 93 m 256,4,5
 160 138 160 138 187.5 168.5 c 128,-1,6
 215 199 215 199 269 199 c 128,-1,7
 323 199 323 199 351 168.5 c 128,-1,8
 379 138 379 138 379 93 c 128,-1,9
 379 48 379 48 351 18.5 c 128,-1,10
 323 -11 323 -11 269 -11 c 128,-1,11
 215 -11 215 -11 187.5 18.5 c 128,-1,12
 160 48 160 48 160 93 c 256,4,5
EndSplineSet
Validated: 1
EndChar

StartChar: quotedbl
Encoding: 34 34 6
Width: 655
Flags: W
LayerCount: 2
Fore
SplineSet
277 1400 m 1,0,-1
 247 1042 l 1,1,-1
 136 1042 l 1,2,-1
 137 1536 l 1,3,-1
 277 1536 l 1,4,-1
 277 1400 l 1,0,-1
547 1400 m 1,5,-1
 517 1042 l 1,6,-1
 406 1042 l 1,7,-1
 407 1536 l 1,8,-1
 547 1536 l 1,9,-1
 547 1400 l 1,5,-1
EndSplineSet
Validated: 1
EndChar

StartChar: numbersign
Encoding: 35 35 7
Width: 1261
Flags: W
LayerCount: 2
Fore
SplineSet
765 410 m 1,0,-1
 501 410 l 1,1,-1
 421 0 l 1,2,-1
 278 0 l 1,3,-1
 358 410 l 1,4,-1
 119 410 l 1,5,-1
 119 547 l 1,6,-1
 384 547 l 1,7,-1
 453 901 l 1,8,-1
 195 901 l 1,9,-1
 195 1040 l 1,10,-1
 480 1040 l 1,11,-1
 562 1456 l 1,12,-1
 705 1456 l 1,13,-1
 623 1040 l 1,14,-1
 887 1040 l 1,15,-1
 969 1456 l 1,16,-1
 1113 1456 l 1,17,-1
 1031 1040 l 1,18,-1
 1235 1040 l 1,19,-1
 1235 901 l 1,20,-1
 1004 901 l 1,21,-1
 935 547 l 1,22,-1
 1160 547 l 1,23,-1
 1160 410 l 1,24,-1
 909 410 l 1,25,-1
 829 0 l 1,26,-1
 685 0 l 1,27,-1
 765 410 l 1,0,-1
527 547 m 1,28,-1
 791 547 l 1,29,-1
 860 901 l 1,30,-1
 596 901 l 1,31,-1
 527 547 l 1,28,-1
EndSplineSet
Validated: 1
EndChar

StartChar: dollar
Encoding: 36 36 8
Width: 1150
Flags: W
LayerCount: 2
Fore
SplineSet
856 375 m 0,0,1
 856 467 856 467 791.5 530 c 128,-1,2
 727 593 727 593 574 644 c 1,3,4
 361 709 361 709 263.5 813.5 c 128,-1,5
 166 918 166 918 166 1079 c 0,6,7
 166 1243 166 1243 261.5 1348 c 128,-1,8
 357 1453 357 1453 524 1473 c 1,9,-1
 524 1692 l 1,10,-1
 673 1692 l 1,11,-1
 673 1472 l 1,12,13
 841 1449 841 1449 934.5 1331 c 128,-1,14
 1028 1213 1028 1213 1028 1008 c 1,15,-1
 844 1008 l 1,16,17
 844 1149 844 1149 777 1232 c 128,-1,18
 710 1315 710 1315 596 1315 c 0,19,20
 477 1315 477 1315 414 1253.5 c 128,-1,21
 351 1192 351 1192 351 1082 c 0,22,23
 351 980 351 980 417.5 919.5 c 128,-1,24
 484 859 484 859 636.5 809.5 c 128,-1,25
 789 760 789 760 874.5 700.5 c 128,-1,26
 960 641 960 641 1000.5 562 c 128,-1,27
 1041 483 1041 483 1041 377 c 0,28,29
 1041 208 1041 208 939.5 105 c 128,-1,30
 838 2 838 2 655 -17 c 1,31,-1
 655 -208 l 1,32,-1
 507 -208 l 1,33,-1
 507 -17 l 1,34,35
 321 0 321 0 215.5 115.5 c 128,-1,36
 110 231 110 231 110 429 c 1,37,-1
 295 429 l 1,38,39
 295 290 295 290 368 215 c 128,-1,40
 441 140 441 140 575 140 c 0,41,42
 706 140 706 140 781 203 c 128,-1,43
 856 266 856 266 856 375 c 0,0,1
EndSplineSet
Validated: 1
Substitution2: "'c2sc' Capitals to Small Capitals lookup 0 subtable" dollar.c2sc
Position2: "'cpsp' Capital Spacing lookup 0 subtable" dx=36 dy=0 dh=72 dv=0
EndChar

StartChar: percent
Encoding: 37 37 9
Width: 1500
Flags: W
LayerCount: 2
Fore
SplineSet
105 1176 m 2,0,1
 105 1307 105 1307 188.5 1392 c 128,-1,2
 272 1477 272 1477 403 1477 c 0,3,4
 536 1477 536 1477 618.5 1391.5 c 128,-1,5
 701 1306 701 1306 701 1170 c 2,6,-1
 701 1099 l 2,7,8
 701 967 701 967 617.5 883.5 c 128,-1,9
 534 800 534 800 405 800 c 0,10,11
 275 800 275 800 190 883.5 c 128,-1,12
 105 967 105 967 105 1106 c 2,13,-1
 105 1176 l 2,0,1
243 1099 m 2,14,15
 243 1021 243 1021 287 970.5 c 128,-1,16
 331 920 331 920 405 920 c 0,17,18
 476 920 476 920 519.5 969 c 128,-1,19
 563 1018 563 1018 563 1103 c 2,20,-1
 563 1176 l 2,21,22
 563 1254 563 1254 520 1305 c 128,-1,23
 477 1356 477 1356 403 1356 c 128,-1,24
 329 1356 329 1356 286 1305 c 128,-1,25
 243 1254 243 1254 243 1172 c 2,26,-1
 243 1099 l 2,14,15
814 357 m 2,27,28
 814 488 814 488 897.5 572.5 c 128,-1,29
 981 657 981 657 1112 657 c 128,-1,30
 1243 657 1243 657 1327 573 c 128,-1,31
 1411 489 1411 489 1411 350 c 2,32,-1
 1411 279 l 2,33,34
 1411 148 1411 148 1327.5 63.5 c 128,-1,35
 1244 -21 1244 -21 1114 -21 c 128,-1,36
 984 -21 984 -21 899 62.5 c 128,-1,37
 814 146 814 146 814 285 c 2,38,-1
 814 357 l 2,27,28
952 279 m 2,39,40
 952 200 952 200 996 149.5 c 128,-1,41
 1040 99 1040 99 1114 99 c 0,42,43
 1186 99 1186 99 1229 148.5 c 128,-1,44
 1272 198 1272 198 1272 283 c 2,45,-1
 1272 357 l 2,46,47
 1272 436 1272 436 1228.5 486 c 128,-1,48
 1185 536 1185 536 1112 536 c 0,49,50
 1041 536 1041 536 996.5 486.5 c 128,-1,51
 952 437 952 437 952 353 c 2,52,-1
 952 279 l 2,39,40
447 110 m 1,53,-1
 342 176 l 1,54,-1
 1053 1314 l 1,55,-1
 1158 1248 l 1,56,-1
 447 110 l 1,53,-1
EndSplineSet
Validated: 1
EndChar

StartChar: ampersand
Encoding: 38 38 10
Width: 1273
Flags: W
LayerCount: 2
Fore
SplineSet
101 391 m 0,0,1
 101 496 101 496 159.5 584 c 128,-1,2
 218 672 218 672 383 789 c 1,3,4
 286 907 286 907 253 979 c 128,-1,5
 220 1051 220 1051 220 1122 c 0,6,7
 220 1288 220 1288 318 1382 c 128,-1,8
 416 1476 416 1476 584 1476 c 0,9,10
 734 1476 734 1476 832 1388.5 c 128,-1,11
 930 1301 930 1301 930 1168 c 0,12,13
 930 1080 930 1080 885.5 1005.5 c 128,-1,14
 841 931 841 931 730 849 c 2,15,-1
 623 770 l 1,16,-1
 947 383 l 1,17,18
 1015 513 1015 513 1015 672 c 1,19,-1
 1182 672 l 1,20,21
 1182 417 1182 417 1059 249 c 1,22,-1
 1267 0 l 1,23,-1
 1045 0 l 1,24,-1
 948 115 l 1,25,26
 874 49 874 49 774.5 14.5 c 128,-1,27
 675 -20 675 -20 572 -20 c 0,28,29
 359 -20 359 -20 230 93 c 128,-1,30
 101 206 101 206 101 391 c 0,0,1
572 131 m 0,31,32
 719 131 719 131 841 243 c 1,33,-1
 486 668 l 1,34,-1
 453 644 l 2,35,36
 286 521 286 521 286 391 c 0,37,38
 286 273 286 273 362.5 202 c 128,-1,39
 439 131 439 131 572 131 c 0,31,32
405 1128 m 0,40,41
 405 1032 405 1032 523 888 c 1,42,-1
 641 971 l 2,43,44
 709 1019 709 1019 734 1062.5 c 128,-1,45
 759 1106 759 1106 759 1168 c 0,46,47
 759 1235 759 1235 709 1279.5 c 128,-1,48
 659 1324 659 1324 583 1324 c 0,49,50
 501 1324 501 1324 453 1268.5 c 128,-1,51
 405 1213 405 1213 405 1128 c 0,40,41
EndSplineSet
Validated: 513
Substitution2: "'smcp' Lowercase to Small Capitals lookup 1 subtable" ampersand.c2sc
Substitution2: "'c2sc' Capitals to Small Capitals lookup 0 subtable" ampersand.c2sc
Position2: "'cpsp' Capital Spacing lookup 0 subtable" dx=36 dy=0 dh=72 dv=0
EndChar

StartChar: quotesingle
Encoding: 39 39 11
Width: 357
Flags: W
LayerCount: 2
Fore
SplineSet
253 1425 m 1,0,-1
 232 1057 l 1,1,-1
 103 1057 l 1,2,-1
 104 1536 l 1,3,-1
 253 1536 l 1,4,-1
 253 1425 l 1,0,-1
EndSplineSet
Validated: 1
EndChar

StartChar: parenleft
Encoding: 40 40 12
Width: 700
Flags: W
LayerCount: 2
Fore
SplineSet
133 591 m 0,0,1
 133 817 133 817 193.5 1025 c 128,-1,2
 254 1233 254 1233 374 1403 c 128,-1,3
 494 1573 494 1573 623 1643 c 1,4,-1
 661 1521 l 1,5,6
 515 1409 515 1409 421.5 1179 c 128,-1,7
 328 949 328 949 319 664 c 1,8,-1
 318 579 l 1,9,10
 318 193 318 193 459 -91 c 0,11,12
 544 -261 544 -261 661 -357 c 1,13,-1
 623 -470 l 1,14,15
 490 -396 490 -396 369 -222 c 0,16,17
 133 118 133 118 133 591 c 0,0,1
EndSplineSet
Validated: 1
EndChar

StartChar: parenright
Encoding: 41 41 13
Width: 712
Flags: W
LayerCount: 2
Fore
SplineSet
567 581 m 0,0,1
 567 358 567 358 508.5 153.5 c 128,-1,2
 450 -51 450 -51 329.5 -224 c 128,-1,3
 209 -397 209 -397 77 -470 c 1,4,-1
 38 -357 l 1,5,6
 192 -239 192 -239 285.5 9.5 c 128,-1,7
 379 258 379 258 381 561 c 2,8,-1
 381 593 l 2,9,10
 381 803 381 803 337 983.5 c 128,-1,11
 293 1164 293 1164 214.5 1307 c 128,-1,12
 136 1450 136 1450 38 1530 c 1,13,-1
 77 1643 l 1,14,15
 209 1570 209 1570 328.5 1399 c 128,-1,16
 448 1228 448 1228 507.5 1022 c 128,-1,17
 567 816 567 816 567 581 c 0,0,1
EndSplineSet
Validated: 1
EndChar

StartChar: asterisk
Encoding: 42 42 14
Width: 882
Flags: W
LayerCount: 2
Fore
SplineSet
330 983 m 1,0,-1
 28 1073 l 1,1,-1
 74 1224 l 1,2,-1
 376 1112 l 1,3,-1
 367 1456 l 1,4,-1
 520 1456 l 1,5,-1
 510 1107 l 1,6,-1
 807 1217 l 1,7,-1
 853 1065 l 1,8,-1
 546 974 l 1,9,-1
 744 703 l 1,10,-1
 620 609 l 1,11,-1
 434 897 l 1,12,-1
 254 616 l 1,13,-1
 129 707 l 1,14,-1
 330 983 l 1,0,-1
EndSplineSet
Validated: 1
EndChar

StartChar: plus
Encoding: 43 43 15
Width: 1161
Flags: W
LayerCount: 2
Fore
SplineSet
670 781 m 1,0,-1
 1076 781 l 1,1,-1
 1076 606 l 1,2,-1
 670 606 l 1,3,-1
 670 146 l 1,4,-1
 484 146 l 1,5,-1
 484 606 l 1,6,-1
 78 606 l 1,7,-1
 78 781 l 1,8,-1
 484 781 l 1,9,-1
 484 1206 l 1,10,-1
 670 1206 l 1,11,-1
 670 781 l 1,0,-1
EndSplineSet
Validated: 1
EndChar

StartChar: comma
Encoding: 44 44 16
Width: 402
Flags: W
LayerCount: 2
Fore
SplineSet
134 -290 m 1,0,-1
 29 -218 l 1,1,2
 123 -87 123 -87 127 52 c 1,3,-1
 127 219 l 1,4,-1
 308 219 l 1,5,-1
 308 74 l 2,6,7
 308 -27 308 -27 258.5 -128 c 128,-1,8
 209 -229 209 -229 134 -290 c 1,0,-1
EndSplineSet
Validated: 1
EndChar

StartChar: hyphen
Encoding: 45 45 17
Width: 565
Flags: W
LayerCount: 2
Fore
SplineSet
525 543 m 1,0,-1
 37 543 l 1,1,-1
 37 694 l 1,2,-1
 525 694 l 1,3,-1
 525 543 l 1,0,-1
EndSplineSet
Validated: 1
EndChar

StartChar: period
Encoding: 46 46 18
Width: 539
Flags: W
LayerCount: 2
Fore
SplineSet
144 97 m 0,0,1
 144 145 144 145 172.5 177 c 128,-1,2
 201 209 201 209 258 209 c 128,-1,3
 315 209 315 209 344.5 177 c 128,-1,4
 374 145 374 145 374 97 c 0,5,6
 374 51 374 51 344.5 20 c 128,-1,7
 315 -11 315 -11 258 -11 c 128,-1,8
 201 -11 201 -11 172.5 20 c 128,-1,9
 144 51 144 51 144 97 c 0,0,1
EndSplineSet
Validated: 1
EndChar

StartChar: slash
Encoding: 47 47 19
Width: 844
Flags: W
LayerCount: 2
Fore
SplineSet
177 -125 m 1,0,-1
 18 -125 l 1,1,-1
 626 1456 l 1,2,-1
 784 1456 l 1,3,-1
 177 -125 l 1,0,-1
EndSplineSet
Validated: 513
Substitution2: "'frac' Diagonal Fractions lookup 22 subtable" fraction
EndChar

StartChar: zero
Encoding: 48 48 20
Width: 1211
Flags: W
LayerCount: 2
Fore
SplineSet
1114 548 m 2,0,1
 1114 287 1114 287 976 135.5 c 128,-1,2
 838 -16 838 -16 606 -16 c 0,3,4
 377 -16 377 -16 236.5 137 c 128,-1,5
 96 290 96 290 96 553 c 2,6,-1
 96 615 l 2,7,8
 96 873 96 873 235.5 1027 c 128,-1,9
 375 1181 375 1181 604 1181 c 0,10,11
 837 1181 837 1181 974.5 1029 c 128,-1,12
 1112 877 1112 877 1114 622 c 2,13,-1
 1114 548 l 2,0,1
482 152 m 0,14,15
 623 111 623 111 730 177 c 0,16,17
 919 295 919 295 930 506 c 1,18,-1
 273 598 l 1,19,20
 233 426 233 426 289 309.5 c 128,-1,21
 345 193 345 193 482 152 c 0,14,15
731 1004 m 0,22,23
 592 1045 592 1045 482 975 c 0,24,25
 373 906 373 906 316 743 c 1,26,-1
 930 658 l 1,27,28
 968 762 968 762 927 848 c 0,29,30
 872 962 872 962 731 1004 c 0,22,23
EndSplineSet
Validated: 545
Substitution2: "'numr' Numerators lookup 25 subtable" zero.numr
Substitution2: "'dnom' Denominators lookup 24 subtable" zero.dnom
Substitution2: "'pnum' Proportional Numbers lookup 19 subtable" zero.pnum
Substitution2: "'onum' Oldstyle Figures lookup 18 subtable" zero.oldstyle
Substitution2: "'c2sc' Capitals to Small Capitals lookup 0 subtable" zero.c2sc
Position2: "'cpsp' Capital Spacing lookup 0 subtable" dx=36 dy=0 dh=72 dv=0
EndChar

StartChar: one
Encoding: 49 49 21
Width: 1039
Flags: W
LayerCount: 2
Fore
SplineSet
669 0 m 1,0,-1
 483 0 l 1,1,-1
 483 943 l 1,2,-1
 152 844 l 1,3,-1
 152 1003 l 1,4,-1
 643 1168 l 1,5,-1
 669 1168 l 1,6,-1
 669 0 l 1,0,-1
EndSplineSet
Validated: 513
Substitution2: "'numr' Numerators lookup 25 subtable" uni00B9
Substitution2: "'dnom' Denominators lookup 24 subtable" one.dnom
Substitution2: "'pnum' Proportional Numbers lookup 19 subtable" one.pnum
Substitution2: "'onum' Oldstyle Figures lookup 18 subtable" one.oldstyle
Substitution2: "'c2sc' Capitals to Small Capitals lookup 0 subtable" one.c2sc
Position2: "'cpsp' Capital Spacing lookup 0 subtable" dx=36 dy=0 dh=72 dv=0
EndChar

StartChar: two
Encoding: 50 50 22
Width: 1039
Flags: W
LayerCount: 2
Fore
SplineSet
970 0 m 1,0,-1
 105 0 l 1,1,-1
 105 131 l 1,2,-1
 532 544 l 1,3,4
 635 638 635 638 681.5 707.5 c 128,-1,5
 728 777 728 777 728 842 c 0,6,7
 728 924 728 924 670 976.5 c 128,-1,8
 612 1029 612 1029 518 1029 c 0,9,10
 397 1029 397 1029 330.5 973 c 128,-1,11
 264 917 264 917 264 810 c 1,12,-1
 78 810 l 1,13,14
 78 975 78 975 200.5 1078 c 128,-1,15
 323 1181 323 1181 518 1181 c 0,16,17
 700 1181 700 1181 807 1088 c 128,-1,18
 914 995 914 995 914 846 c 0,19,20
 914 765 914 765 864.5 678 c 128,-1,21
 815 591 815 591 660 430 c 1,22,-1
 332 151 l 1,23,-1
 970 151 l 1,24,-1
 970 0 l 1,0,-1
EndSplineSet
Validated: 513
Substitution2: "'numr' Numerators lookup 25 subtable" uni00B2
Substitution2: "'dnom' Denominators lookup 24 subtable" two.dnom
Substitution2: "'pnum' Proportional Numbers lookup 19 subtable" two.pnum
Substitution2: "'onum' Oldstyle Figures lookup 18 subtable" two.oldstyle
Substitution2: "'c2sc' Capitals to Small Capitals lookup 0 subtable" two.c2sc
Position2: "'cpsp' Capital Spacing lookup 0 subtable" dx=36 dy=0 dh=72 dv=0
EndChar

StartChar: three
Encoding: 51 51 23
Width: 1039
Flags: W
LayerCount: 2
Fore
SplineSet
352 667 m 1,0,-1
 474 667 l 2,1,2
 592 667 592 667 656.5 716.5 c 128,-1,3
 721 766 721 766 721 850 c 0,4,5
 721 933 721 933 667 981 c 128,-1,6
 613 1029 613 1029 501 1029 c 0,7,8
 403 1029 403 1029 339.5 983.5 c 128,-1,9
 276 938 276 938 276 861 c 1,10,-1
 91 861 l 1,11,12
 91 1001 91 1001 206 1091 c 128,-1,13
 321 1181 321 1181 500 1181 c 0,14,15
 688 1181 688 1181 797 1093.5 c 128,-1,16
 906 1006 906 1006 906 850 c 0,17,18
 906 771 906 771 855.5 702.5 c 128,-1,19
 805 634 805 634 714 597 c 1,20,21
 927 533 927 533 927 324 c 0,22,23
 927 170 927 170 810.5 77 c 128,-1,24
 694 -16 694 -16 501 -16 c 0,25,26
 312 -16 312 -16 195 73.5 c 128,-1,27
 78 163 78 163 78 313 c 1,28,-1
 263 313 l 1,29,30
 263 234 263 234 328.5 184.5 c 128,-1,31
 394 135 394 135 502 135 c 0,32,33
 614 135 614 135 677.5 184 c 128,-1,34
 741 233 741 233 741 324 c 0,35,36
 741 519 741 519 465 519 c 2,37,-1
 352 519 l 1,38,-1
 352 667 l 1,0,-1
EndSplineSet
Validated: 513
Substitution2: "'numr' Numerators lookup 25 subtable" uni00B3
Substitution2: "'dnom' Denominators lookup 24 subtable" three.dnom
Substitution2: "'pnum' Proportional Numbers lookup 19 subtable" three.pnum
Substitution2: "'onum' Oldstyle Figures lookup 18 subtable" three.oldstyle
Substitution2: "'c2sc' Capitals to Small Capitals lookup 0 subtable" three.c2sc
Position2: "'cpsp' Capital Spacing lookup 0 subtable" dx=36 dy=0 dh=72 dv=0
EndChar

StartChar: four
Encoding: 52 52 24
Width: 1039
Flags: W
LayerCount: 2
Fore
SplineSet
821 413 m 1,0,-1
 996 413 l 1,1,-1
 996 262 l 1,2,-1
 821 262 l 1,3,-1
 821 0 l 1,4,-1
 635 0 l 1,5,-1
 635 262 l 1,6,-1
 51 262 l 1,7,-1
 48 377 l 1,8,-1
 626 1165 l 1,9,-1
 821 1165 l 1,10,-1
 821 413 l 1,0,-1
246 413 m 1,11,-1
 635 413 l 1,12,-1
 635 921 l 1,13,-1
 609 874 l 1,14,-1
 246 413 l 1,11,-1
EndSplineSet
Validated: 513
Substitution2: "'numr' Numerators lookup 25 subtable" four.numr
Substitution2: "'dnom' Denominators lookup 24 subtable" four.dnom
Substitution2: "'pnum' Proportional Numbers lookup 19 subtable" four.pnum
Substitution2: "'onum' Oldstyle Figures lookup 18 subtable" four.oldstyle
Substitution2: "'c2sc' Capitals to Small Capitals lookup 0 subtable" four.c2sc
Position2: "'cpsp' Capital Spacing lookup 0 subtable" dx=36 dy=0 dh=72 dv=0
EndChar

StartChar: five
Encoding: 53 53 25
Width: 1039
Flags: W
LayerCount: 2
Fore
SplineSet
164 579 m 1,0,-1
 233 1165 l 1,1,-1
 913 1165 l 1,2,-1
 913 1003 l 1,3,-1
 389 1003 l 1,4,-1
 352 714 l 1,5,6
 451 762 451 762 566 762 c 0,7,8
 750 762 750 762 857.5 657 c 128,-1,9
 965 552 965 552 965 372 c 0,10,11
 965 194 965 194 853.5 89 c 128,-1,12
 742 -16 742 -16 546 -16 c 0,13,14
 375 -16 375 -16 258 72.5 c 128,-1,15
 141 161 141 161 128 312 c 1,16,-1
 306 312 l 1,17,18
 320 221 320 221 384 178 c 128,-1,19
 448 135 448 135 546 135 c 0,20,21
 658 135 658 135 718.5 200 c 128,-1,22
 779 265 779 265 779 378 c 0,23,24
 779 484 779 484 709 547.5 c 128,-1,25
 639 611 639 611 524 611 c 0,26,27
 419 611 419 611 353 569 c 2,28,-1
 312 542 l 1,29,-1
 164 579 l 1,0,-1
EndSplineSet
Validated: 513
Substitution2: "'numr' Numerators lookup 25 subtable" five.numr
Substitution2: "'dnom' Denominators lookup 24 subtable" five.dnom
Substitution2: "'pnum' Proportional Numbers lookup 19 subtable" five.pnum
Substitution2: "'onum' Oldstyle Figures lookup 18 subtable" five.oldstyle
Substitution2: "'c2sc' Capitals to Small Capitals lookup 0 subtable" five.c2sc
Position2: "'cpsp' Capital Spacing lookup 0 subtable" dx=36 dy=0 dh=72 dv=0
EndChar

StartChar: six
Encoding: 54 54 26
Width: 1038
Flags: W
LayerCount: 2
Fore
SplineSet
768 1171 m 1,0,-1
 768 1015 l 1,1,-1
 738 1015 l 2,2,3
 538 1012 538 1012 426 920 c 128,-1,4
 314 828 314 828 300 651 c 1,5,6
 352 708 352 708 427 739.5 c 128,-1,7
 502 771 502 771 580 771 c 0,8,9
 754 771 754 771 854.5 663.5 c 128,-1,10
 955 556 955 556 955 382 c 0,11,12
 955 206 955 206 843.5 95 c 128,-1,13
 732 -16 732 -16 542 -16 c 0,14,15
 348 -16 348 -16 231 109.5 c 128,-1,16
 114 235 114 235 114 447 c 2,17,-1
 114 522 l 2,18,19
 114 841 114 841 274 1006 c 128,-1,20
 434 1171 434 1171 750 1171 c 2,21,-1
 768 1171 l 1,0,-1
542 619 m 0,22,23
 462 619 462 619 396.5 580.5 c 128,-1,24
 331 542 331 542 299 478 c 1,25,-1
 299 438 l 2,26,27
 299 300 299 300 367.5 218 c 128,-1,28
 436 136 436 136 541 136 c 128,-1,29
 646 136 646 136 709 202.5 c 128,-1,30
 772 269 772 269 772 377 c 128,-1,31
 772 485 772 485 710.5 552 c 128,-1,32
 649 619 649 619 542 619 c 0,22,23
EndSplineSet
Validated: 513
Substitution2: "'numr' Numerators lookup 25 subtable" six.numr
Substitution2: "'dnom' Denominators lookup 24 subtable" six.dnom
Substitution2: "'lnum' Lining Figures lookup 21 subtable" six.pnum
Substitution2: "'tnum' Tabular Numbers lookup 20 subtable" six.oldstyle
Substitution2: "'pnum' Proportional Numbers lookup 19 subtable" six.pnum
Substitution2: "'onum' Oldstyle Figures lookup 18 subtable" six.oldstyle
Substitution2: "'c2sc' Capitals to Small Capitals lookup 0 subtable" six.c2sc
Position2: "'cpsp' Capital Spacing lookup 0 subtable" dx=36 dy=0 dh=72 dv=0
EndChar

StartChar: seven
Encoding: 55 55 27
Width: 1039
Flags: W
LayerCount: 2
Fore
SplineSet
960 1060 m 1,0,-1
 424 0 l 1,1,-1
 229 0 l 1,2,-1
 764 1012 l 1,3,-1
 66 1012 l 1,4,-1
 66 1165 l 1,5,-1
 960 1165 l 1,6,-1
 960 1060 l 1,0,-1
EndSplineSet
Validated: 513
Substitution2: "'numr' Numerators lookup 25 subtable" seven.numr
Substitution2: "'dnom' Denominators lookup 24 subtable" seven.dnom
Substitution2: "'pnum' Proportional Numbers lookup 19 subtable" seven.pnum
Substitution2: "'onum' Oldstyle Figures lookup 18 subtable" seven.oldstyle
Substitution2: "'c2sc' Capitals to Small Capitals lookup 0 subtable" seven.c2sc
Position2: "'cpsp' Capital Spacing lookup 0 subtable" dx=36 dy=0 dh=72 dv=0
EndChar

StartChar: eight
Encoding: 56 56 28
Width: 1039
Flags: W
LayerCount: 2
Fore
SplineSet
912 858 m 0,0,1
 912 772 912 772 862.5 704.5 c 128,-1,2
 813 637 813 637 728 599 c 1,3,4
 826 561 826 561 883.5 487.5 c 128,-1,5
 941 414 941 414 941 316 c 0,6,7
 941 165 941 165 825 74.5 c 128,-1,8
 709 -16 709 -16 519 -16 c 128,-1,9
 329 -16 329 -16 212.5 73.5 c 128,-1,10
 96 163 96 163 96 316 c 0,11,12
 96 415 96 415 152.5 488 c 128,-1,13
 209 561 209 561 307 600 c 1,14,15
 222 638 222 638 174 705 c 128,-1,16
 126 772 126 772 126 858 c 0,17,18
 126 1006 126 1006 233 1093.5 c 128,-1,19
 340 1181 340 1181 517 1181 c 128,-1,20
 694 1181 694 1181 803 1093.5 c 128,-1,21
 912 1006 912 1006 912 858 c 0,0,1
756 326 m 0,22,23
 756 412 756 412 690.5 467 c 128,-1,24
 625 522 625 522 517 522 c 0,25,26
 410 522 410 522 346 468 c 128,-1,27
 282 414 282 414 282 326 c 0,28,29
 282 235 282 235 345.5 185 c 128,-1,30
 409 135 409 135 519 135 c 0,31,32
 628 135 628 135 692 186.5 c 128,-1,33
 756 238 756 238 756 326 c 0,22,23
726 851 m 0,34,35
 726 929 726 929 668 979 c 128,-1,36
 610 1029 610 1029 517 1029 c 0,37,38
 423 1029 423 1029 368 980.5 c 128,-1,39
 313 932 313 932 313 851 c 0,40,41
 313 771 313 771 368.5 722 c 128,-1,42
 424 673 424 673 519 673 c 128,-1,43
 614 673 614 673 670 722.5 c 128,-1,44
 726 772 726 772 726 851 c 0,34,35
EndSplineSet
Validated: 513
Substitution2: "'numr' Numerators lookup 25 subtable" eight.numr
Substitution2: "'dnom' Denominators lookup 24 subtable" eight.dnom
Substitution2: "'lnum' Lining Figures lookup 21 subtable" eight.pnum
Substitution2: "'tnum' Tabular Numbers lookup 20 subtable" eight.oldstyle
Substitution2: "'pnum' Proportional Numbers lookup 19 subtable" eight.pnum
Substitution2: "'onum' Oldstyle Figures lookup 18 subtable" eight.oldstyle
Substitution2: "'c2sc' Capitals to Small Capitals lookup 0 subtable" eight.c2sc
Position2: "'cpsp' Capital Spacing lookup 0 subtable" dx=36 dy=0 dh=72 dv=0
EndChar

StartChar: nine
Encoding: 57 57 29
Width: 1039
Flags: W
LayerCount: 2
Fore
SplineSet
735 492 m 1,0,1
 634 382 634 382 463 382 c 0,2,3
 289 382 289 382 187 489.5 c 128,-1,4
 85 597 85 597 85 773 c 0,5,6
 85 953 85 953 199.5 1067 c 128,-1,7
 314 1181 314 1181 500 1181 c 0,8,9
 698 1181 698 1181 810 1054 c 128,-1,10
 922 927 922 927 922 701 c 2,11,-1
 922 638 l 2,12,13
 922 319 922 319 768 159 c 128,-1,14
 614 -1 614 -1 314 -6 c 1,15,-1
 273 -6 l 1,16,-1
 273 146 l 1,17,-1
 308 146 l 1,18,19
 712 153 712 153 735 492 c 1,0,1
497 529 m 0,20,21
 576 529 576 529 641.5 568.5 c 128,-1,22
 707 608 707 608 737 672 c 1,23,-1
 737 738 l 2,24,25
 737 870 737 870 671 949 c 128,-1,26
 605 1028 605 1028 500 1028 c 0,27,28
 396 1028 396 1028 332.5 956.5 c 128,-1,29
 269 885 269 885 269 777 c 0,30,31
 269 668 269 668 331 598.5 c 128,-1,32
 393 529 393 529 497 529 c 0,20,21
EndSplineSet
Validated: 513
Substitution2: "'numr' Numerators lookup 25 subtable" nine.numr
Substitution2: "'dnom' Denominators lookup 24 subtable" nine.dnom
Substitution2: "'pnum' Proportional Numbers lookup 19 subtable" nine.pnum
Substitution2: "'onum' Oldstyle Figures lookup 18 subtable" nine.oldstyle
Substitution2: "'c2sc' Capitals to Small Capitals lookup 0 subtable" nine.c2sc
Position2: "'cpsp' Capital Spacing lookup 0 subtable" dx=36 dy=0 dh=72 dv=0
EndChar

StartChar: colon
Encoding: 58 58 30
Width: 1068
Flags: W
LayerCount: 2
Fore
SplineSet
985 932 m 1,0,-1
 614 932 l 1,1,-1
 614 269 l 2,2,3
 614 136 614 136 719 136 c 0,4,5
 762 136 762 136 811 162 c 1,6,-1
 853 32 l 1,7,8
 777 -20 777 -20 671 -20 c 0,9,10
 546 -20 546 -20 487.5 53.5 c 128,-1,11
 429 127 429 127 428 273 c 2,12,-1
 428 932 l 1,13,-1
 81 932 l 1,14,-1
 81 1082 l 1,15,-1
 985 1082 l 1,16,-1
 985 932 l 1,0,-1
EndSplineSet
Validated: 1
EndChar

StartChar: semicolon
Encoding: 59 59 31
Width: 1068
Flags: W
LayerCount: 2
Fore
SplineSet
61 932 m 1,0,-1
 432 932 l 1,1,-1
 432 269 l 2,2,3
 432 136 432 136 327 136 c 0,4,5
 284 136 284 136 235 162 c 1,6,-1
 193 32 l 1,7,8
 269 -20 269 -20 375 -20 c 0,9,10
 500 -20 500 -20 558.5 53.5 c 128,-1,11
 617 127 617 127 618 273 c 2,12,-1
 618 932 l 1,13,-1
 965 932 l 1,14,-1
 965 1082 l 1,15,-1
 61 1082 l 1,16,-1
 61 932 l 1,0,-1
EndSplineSet
Validated: 9
EndChar

StartChar: less
Encoding: 60 60 32
Width: 1211
Flags: W
LayerCount: 2
Fore
SplineSet
1109 548 m 2,0,1
 1109 382 1109 382 1053 260.5 c 128,-1,2
 997 139 997 139 895 69 c 1,3,-1
 1111 -91 l 1,4,-1
 987 -202 l 1,5,-1
 724 -3 l 1,6,7
 670 -16 670 -16 600 -16 c 0,8,9
 372 -16 372 -16 230.5 136.5 c 128,-1,10
 89 289 89 289 89 553 c 2,11,-1
 89 615 l 2,12,13
 89 784 89 784 152.5 913.5 c 128,-1,14
 216 1043 216 1043 332 1112 c 128,-1,15
 448 1181 448 1181 598 1181 c 0,16,17
 832 1181 832 1181 970.5 1027.5 c 128,-1,18
 1109 874 1109 874 1109 611 c 2,19,-1
 1109 548 l 2,0,1
926 617 m 2,20,21
 926 815 926 815 840 920 c 128,-1,22
 754 1025 754 1025 598 1025 c 0,23,24
 450 1025 450 1025 364 921.5 c 128,-1,25
 278 818 278 818 274 633 c 1,26,-1
 274 548 l 2,27,28
 274 354 274 354 361 246 c 128,-1,29
 448 138 448 138 600 138 c 0,30,31
 756 138 756 138 841 243.5 c 128,-1,32
 926 349 926 349 926 548 c 2,33,-1
 926 617 l 2,20,21
EndSplineSet
EndChar

StartChar: equal
Encoding: 61 61 33
Width: 1557
Flags: W
LayerCount: 2
Fore
SplineSet
431 294 m 1,0,-1
 442 214 l 1,1,-1
 457 278 l 1,2,-1
 705 1165 l 1,3,-1
 870 1165 l 1,4,-1
 1114 275 l 1,5,-1
 1127 216 l 1,6,-1
 1139 296 l 1,7,-1
 1337 1165 l 1,8,-1
 1521 1165 l 1,9,-1
 1223 0 l 1,10,-1
 1049 0 l 1,11,-1
 789 917 l 1,12,-1
 788 922 l 1,13,-1
 787 917 l 1,14,-1
 519 0 l 1,15,-1
 346 0 l 1,16,-1
 49 1165 l 1,17,-1
 232 1165 l 1,18,-1
 431 294 l 1,0,-1
EndSplineSet
EndChar

StartChar: greater
Encoding: 62 62 34
Width: 1108
Flags: W
LayerCount: 2
Fore
SplineSet
552 730 m 1,0,-1
 839 1165 l 1,1,-1
 1059 1165 l 1,2,-1
 664 587 l 1,3,-1
 1073 0 l 1,4,-1
 853 0 l 1,5,-1
 554 443 l 1,6,-1
 258 0 l 1,7,-1
 38 0 l 1,8,-1
 444 587 l 1,9,-1
 47 1165 l 1,10,-1
 266 1165 l 1,11,-1
 552 730 l 1,0,-1
EndSplineSet
EndChar

StartChar: question
Encoding: 63 63 35
Width: 971
Flags: W
LayerCount: 2
Fore
SplineSet
843 499 m 1,0,-1
 323 499 l 1,1,-1
 323 0 l 1,2,-1
 138 0 l 1,3,-1
 138 1165 l 1,4,-1
 923 1165 l 1,5,-1
 923 1012 l 1,6,-1
 323 1012 l 1,7,-1
 323 652 l 1,8,-1
 843 652 l 1,9,-1
 843 499 l 1,0,-1
EndSplineSet
Validated: 1
EndChar

StartChar: at
Encoding: 64 64 36
Width: 1839
Flags: W
LayerCount: 2
Fore
SplineSet
1738 502 m 0,0,1
 1726 260 1726 260 1618 120 c 128,-1,2
 1510 -20 1510 -20 1329 -20 c 0,3,4
 1142 -20 1142 -20 1089 148 c 1,5,6
 1035 63 1035 63 965.5 21.5 c 128,-1,7
 896 -20 896 -20 822 -20 c 0,8,9
 680 -20 680 -20 607 96 c 128,-1,10
 534 212 534 212 553 417 c 0,11,12
 568 582 568 582 628.5 711.5 c 128,-1,13
 689 841 689 841 784.5 915 c 128,-1,14
 880 989 880 989 985 989 c 0,15,16
 1066 989 1066 989 1130 967.5 c 128,-1,17
 1194 946 1194 946 1274 883 c 1,18,-1
 1222 329 l 2,19,20
 1203 98 1203 98 1350 98 c 0,21,22
 1463 98 1463 98 1533 210 c 128,-1,23
 1603 322 1603 322 1609 502 c 0,24,25
 1628 891 1628 891 1464.5 1095 c 128,-1,26
 1301 1299 1301 1299 967 1299 c 0,27,28
 766 1299 766 1299 610 1199.5 c 128,-1,29
 454 1100 454 1100 364 912 c 128,-1,30
 274 724 274 724 263 478 c 0,31,32
 251 230 251 230 323 47.5 c 128,-1,33
 395 -135 395 -135 542.5 -231.5 c 128,-1,34
 690 -328 690 -328 899 -328 c 0,35,36
 989 -328 989 -328 1079.5 -306 c 128,-1,37
 1170 -284 1170 -284 1230 -249 c 1,38,-1
 1267 -364 l 1,39,40
 1205 -403 1205 -403 1102.5 -428 c 128,-1,41
 1000 -453 1000 -453 895 -453 c 0,42,43
 645 -453 645 -453 465 -340.5 c 128,-1,44
 285 -228 285 -228 195.5 -16.5 c 128,-1,45
 106 195 106 195 118 478 c 0,46,47
 130 753 130 753 241 972.5 c 128,-1,48
 352 1192 352 1192 542 1311.5 c 128,-1,49
 732 1431 732 1431 971 1431 c 0,50,51
 1220 1431 1220 1431 1398 1319 c 128,-1,52
 1576 1207 1576 1207 1663 996 c 128,-1,53
 1750 785 1750 785 1738 502 c 0,0,1
712 417 m 0,54,55
 698 275 698 275 738.5 199 c 128,-1,56
 779 123 779 123 867 123 c 0,57,58
 927 123 927 123 982.5 174 c 128,-1,59
 1038 225 1038 225 1074 320 c 1,60,-1
 1075 329 l 1,61,-1
 1121 832 l 1,62,63
 1065 861 1065 861 1001 861 c 0,64,65
 884 861 884 861 807.5 742 c 128,-1,66
 731 623 731 623 712 417 c 0,54,55
EndSplineSet
Validated: 33
EndChar

StartChar: C
Encoding: 67 67 39
Width: 1041
GlyphClass: 2
Flags: W
LayerCount: 2
Fore
SplineSet
264 644 m 1,0,-1
 890 391 l 1,1,-1
 890 195 l 1,2,-1
 72 574 l 1,3,-1
 72 720 l 1,4,-1
 890 1098 l 1,5,-1
 890 902 l 1,6,-1
 264 644 l 1,0,-1
EndSplineSet
Validated: 513
Substitution2: "'ss06' Style Set 6 lookup 16 subtable" C.ss06
Substitution2: "'c2sc' Capitals to Small Capitals lookup 0 subtable" C.c2sc
Position2: "'cpsp' Capital Spacing lookup 0 subtable" dx=36 dy=0 dh=72 dv=0
EndChar

StartChar: D
Encoding: 68 68 40
Width: 1124
GlyphClass: 2
Flags: W
LayerCount: 2
Fore
SplineSet
986 814 m 1,0,-1
 152 814 l 1,1,-1
 152 975 l 1,2,-1
 986 975 l 1,3,-1
 986 814 l 1,0,-1
986 399 m 1,4,-1
 152 399 l 1,5,-1
 152 559 l 1,6,-1
 986 559 l 1,7,-1
 986 399 l 1,4,-1
EndSplineSet
Validated: 513
Substitution2: "'ss06' Style Set 6 lookup 16 subtable" D.ss06
Substitution2: "'c2sc' Capitals to Small Capitals lookup 0 subtable" D.c2sc
Position2: "'cpsp' Capital Spacing lookup 0 subtable" dx=36 dy=0 dh=72 dv=0
EndChar

StartChar: E
Encoding: 69 69 41
Width: 1070
GlyphClass: 2
Flags: W
LayerCount: 2
Fore
SplineSet
795 650 m 1,0,-1
 134 909 l 1,1,-1
 134 1099 l 1,2,-1
 988 721 l 1,3,-1
 988 575 l 1,4,-1
 134 196 l 1,5,-1
 134 388 l 1,6,-1
 795 650 l 1,0,-1
EndSplineSet
Validated: 513
Substitution2: "'c2sc' Capitals to Small Capitals lookup 0 subtable" E.c2sc
Position2: "'cpsp' Capital Spacing lookup 0 subtable" dx=36 dy=0 dh=72 dv=0
EndChar

StartChar: F
Encoding: 70 70 42
Width: 967
GlyphClass: 2
Flags: W
LayerCount: 2
Fore
SplineSet
357 410 m 1,0,1
 359 529 359 529 384 598 c 128,-1,2
 409 667 409 667 486 751 c 2,3,-1
 617 886 l 1,4,5
 701 981 701 981 701 1090 c 0,6,7
 701 1195 701 1195 646 1254.5 c 128,-1,8
 591 1314 591 1314 486 1314 c 0,9,10
 384 1314 384 1314 322 1260 c 128,-1,11
 260 1206 260 1206 260 1115 c 1,12,-1
 75 1115 l 1,13,14
 77 1277 77 1277 190.5 1376.5 c 128,-1,15
 304 1476 304 1476 486 1476 c 0,16,17
 675 1476 675 1476 780.5 1374.5 c 128,-1,18
 886 1273 886 1273 886 1096 c 0,19,20
 886 921 886 921 724 751 c 1,21,-1
 615 643 l 1,22,23
 542 562 542 562 542 410 c 1,24,-1
 357 410 l 1,0,1
349 93 m 256,25,26
 349 138 349 138 376.5 168.5 c 128,-1,27
 404 199 404 199 458 199 c 128,-1,28
 512 199 512 199 540 168.5 c 128,-1,29
 568 138 568 138 568 93 c 128,-1,30
 568 48 568 48 540 18.5 c 128,-1,31
 512 -11 512 -11 458 -11 c 128,-1,32
 404 -11 404 -11 376.5 18.5 c 128,-1,33
 349 48 349 48 349 93 c 256,25,26
EndSplineSet
Validated: 513
Substitution2: "'c2sc' Capitals to Small Capitals lookup 0 subtable" F.c2sc
Position2: "'cpsp' Capital Spacing lookup 0 subtable" dx=36 dy=0 dh=72 dv=0
EndChar

StartChar: G
Encoding: 71 71 43
Width: 905
GlyphClass: 2
Flags: W
LayerCount: 2
Fore
SplineSet
843 0 m 1,0,-1
 62 0 l 1,1,-1
 62 152 l 1,2,-1
 843 152 l 1,3,-1
 843 0 l 1,0,-1
776 531 m 1,4,-1
 127 531 l 1,5,-1
 127 683 l 1,6,-1
 776 683 l 1,7,-1
 776 531 l 1,4,-1
843 1012 m 1,8,-1
 62 1012 l 1,9,-1
 62 1165 l 1,10,-1
 843 1165 l 1,11,-1
 843 1012 l 1,8,-1
EndSplineSet
Substitution2: "'ss06' Style Set 6 lookup 16 subtable" G.ss06
Substitution2: "'c2sc' Capitals to Small Capitals lookup 0 subtable" G.c2sc
Position2: "'cpsp' Capital Spacing lookup 0 subtable" dx=36 dy=0 dh=72 dv=0
EndChar

StartChar: H
Encoding: 72 72 44
Width: 1124
GlyphClass: 2
Flags: W
LayerCount: 2
Fore
SplineSet
986 399 m 1,0,-1
 455 399 l 1,1,-1
 313 155 l 1,2,-1
 218 214 l 1,3,-1
 326 399 l 1,4,-1
 152 399 l 1,5,-1
 152 559 l 1,6,-1
 419 559 l 1,7,-1
 568 814 l 1,8,-1
 152 814 l 1,9,-1
 152 975 l 1,10,-1
 662 975 l 1,11,-1
 815 1237 l 1,12,-1
 910 1178 l 1,13,-1
 791 975 l 1,14,-1
 986 975 l 1,15,-1
 986 814 l 1,16,-1
 697 814 l 1,17,-1
 549 559 l 1,18,-1
 986 559 l 1,19,-1
 986 399 l 1,0,-1
EndSplineSet
Substitution2: "'c2sc' Capitals to Small Capitals lookup 0 subtable" H.c2sc
Position2: "'cpsp' Capital Spacing lookup 0 subtable" dx=36 dy=0 dh=72 dv=0
EndChar

StartChar: I
Encoding: 73 73 45
Width: 1104
GlyphClass: 2
Flags: W
LayerCount: 2
Fore
SplineSet
286 304 m 0,0,1
 286 227 286 227 359.5 178 c 128,-1,2
 433 129 433 129 551 129 c 0,3,4
 664 129 664 129 741.5 184 c 128,-1,5
 819 239 819 239 819 320 c 1,6,-1
 1004 320 l 1,7,8
 1004 165 1004 165 876.5 72.5 c 128,-1,9
 749 -20 749 -20 551 -20 c 0,10,11
 347 -20 347 -20 223 68.5 c 128,-1,12
 99 157 99 157 99 304 c 0,13,14
 99 490 99 490 304 556 c 1,15,16
 216 592 216 592 167 653 c 128,-1,17
 118 714 118 714 118 787 c 0,18,19
 118 935 118 935 233.5 1018 c 128,-1,20
 349 1101 349 1101 551 1101 c 0,21,22
 737 1101 737 1101 861.5 1011.5 c 128,-1,23
 986 922 986 922 986 780 c 1,24,-1
 801 780 l 1,25,26
 801 850 801 850 729.5 900.5 c 128,-1,27
 658 951 658 951 551 951 c 0,28,29
 439 951 439 951 371.5 905.5 c 128,-1,30
 304 860 304 860 304 786 c 0,31,32
 304 626 304 626 548 626 c 2,33,-1
 744 626 l 1,34,-1
 744 478 l 1,35,-1
 520 478 l 1,36,37
 286 472 286 472 286 304 c 0,0,1
EndSplineSet
Substitution2: "'c2sc' Capitals to Small Capitals lookup 0 subtable" I.c2sc
Position2: "'cpsp' Capital Spacing lookup 0 subtable" dx=36 dy=0 dh=72 dv=0
EndChar

StartChar: J
Encoding: 74 74 46
Width: 1052
GlyphClass: 2
Flags: W
LayerCount: 2
Fore
SplineSet
29 642 m 1,0,-1
 599 1213 l 1,1,-1
 660 1150 l 2,2,3
 680 1129 680 1129 675 1110 c 0,4,5
 671 1088 671 1088 654 1071 c 2,6,-1
 367 786 l 2,7,8
 299 719 299 719 281 709 c 1,9,10
 331 715 331 715 386.5 719 c 128,-1,11
 442 723 442 723 501 723 c 2,12,-1
 1017 723 l 1,13,-1
 1017 560 l 1,14,-1
 501 560 l 2,15,16
 442 560 442 560 386.5 564 c 128,-1,17
 331 568 331 568 281 574 c 1,18,19
 326 539 326 539 367 498 c 2,20,-1
 656 210 l 2,21,22
 674 192 674 192 678 172 c 256,23,24
 682 152 682 152 663 132 c 2,25,-1
 601 68 l 1,26,-1
 29 642 l 1,0,-1
EndSplineSet
Substitution2: "'c2sc' Capitals to Small Capitals lookup 0 subtable" J.c2sc
Position2: "'cpsp' Capital Spacing lookup 0 subtable" dx=36 dy=0 dh=72 dv=0
EndChar

StartChar: K
Encoding: 75 75 47
Width: 1041
GlyphClass: 2
Flags: W
LayerCount: 2
Fore
SplineSet
897 2 m 1,0,-1
 62 2 l 1,1,-1
 62 153 l 1,2,-1
 897 153 l 1,3,-1
 897 2 l 1,0,-1
264 677 m 1,4,-1
 890 449 l 1,5,-1
 890 273 l 1,6,-1
 72 614 l 1,7,-1
 72 745 l 1,8,-1
 890 1085 l 1,9,-1
 890 909 l 1,10,-1
 264 677 l 1,4,-1
EndSplineSet
Substitution2: "'ss05' Style Set 5 lookup 15 subtable" K.ss05
Substitution2: "'ss04' Style Set 4 lookup 14 subtable" K.ss04
Substitution2: "'c2sc' Capitals to Small Capitals lookup 0 subtable" K.c2sc
Position2: "'cpsp' Capital Spacing lookup 0 subtable" dx=36 dy=0 dh=72 dv=0
EndChar

StartChar: L
Encoding: 76 76 48
Width: 1071
GlyphClass: 2
Flags: W
LayerCount: 2
Fore
SplineSet
968 1 m 1,0,-1
 133 1 l 1,1,-1
 133 152 l 1,2,-1
 968 152 l 1,3,-1
 968 1 l 1,0,-1
795 700 m 1,4,-1
 134 933 l 1,5,-1
 134 1104 l 1,6,-1
 988 764 l 1,7,-1
 988 633 l 1,8,-1
 134 291 l 1,9,-1
 134 464 l 1,10,-1
 795 700 l 1,4,-1
EndSplineSet
Substitution2: "'c2sc' Capitals to Small Capitals lookup 0 subtable" L.c2sc
Position2: "'cpsp' Capital Spacing lookup 0 subtable" dx=36 dy=0 dh=72 dv=0
EndChar

StartChar: M
Encoding: 77 77 49
Width: 1127
GlyphClass: 2
Flags: W
LayerCount: 2
Fore
SplineSet
219 0 m 1,0,-1
 20 0 l 1,1,-1
 477 1165 l 1,2,-1
 650 1165 l 1,3,-1
 1107 0 l 1,4,-1
 909 0 l 1,5,-1
 589 874 l 1,6,-1
 563 966 l 1,7,-1
 538 872 l 1,8,-1
 219 0 l 1,0,-1
EndSplineSet
Substitution2: "'c2sc' Capitals to Small Capitals lookup 0 subtable" M.c2sc
Position2: "'cpsp' Capital Spacing lookup 0 subtable" dx=36 dy=0 dh=72 dv=0
EndChar

StartChar: O
Encoding: 79 79 50
Width: 1169
GlyphClass: 2
Flags: W
LayerCount: 2
Fore
SplineSet
1069 600 m 1,0,-1
 71 600 l 1,1,-1
 71 784 l 1,2,-1
 1069 784 l 1,3,-1
 1069 600 l 1,0,-1
461 1098 m 0,4,5
 461 1146 461 1146 489.5 1178 c 128,-1,6
 518 1210 518 1210 575 1210 c 128,-1,7
 632 1210 632 1210 661.5 1178 c 128,-1,8
 691 1146 691 1146 691 1098 c 0,9,10
 691 1051 691 1051 661.5 1020 c 128,-1,11
 632 989 632 989 575 989 c 128,-1,12
 518 989 518 989 489.5 1020 c 128,-1,13
 461 1051 461 1051 461 1098 c 0,4,5
461 281 m 0,14,15
 461 329 461 329 489.5 361 c 128,-1,16
 518 393 518 393 575 393 c 128,-1,17
 632 393 632 393 661.5 361 c 128,-1,18
 691 329 691 329 691 281 c 0,19,20
 691 235 691 235 661.5 203.5 c 128,-1,21
 632 172 632 172 575 172 c 128,-1,22
 518 172 518 172 489.5 203.5 c 128,-1,23
 461 235 461 235 461 281 c 0,14,15
EndSplineSet
Substitution2: "'ss06' Style Set 6 lookup 16 subtable" O.ss06
Substitution2: "'c2sc' Capitals to Small Capitals lookup 0 subtable" O.c2sc
Position2: "'cpsp' Capital Spacing lookup 0 subtable" dx=36 dy=0 dh=72 dv=0
EndChar

StartChar: P
Encoding: 80 80 51
Width: 1074
GlyphClass: 2
Flags: W
LayerCount: 2
Fore
SplineSet
1048 641 m 1,0,-1
 478 71 l 1,1,-1
 417 134 l 2,2,3
 397 155 397 155 402 174 c 0,4,5
 406 195 406 195 423 212 c 2,6,-1
 710 497 l 2,7,8
 733 520 733 520 755 540 c 0,9,10
 776 559 776 559 796 575 c 1,11,12
 746 568 746 568 690.5 564 c 128,-1,13
 635 560 635 560 576 560 c 2,14,-1
 68 560 l 1,15,-1
 68 723 l 1,16,-1
 576 723 l 2,17,18
 635 723 635 723 691 719 c 128,-1,19
 747 715 747 715 797 708 c 1,20,21
 777 724 777 724 756 743 c 0,22,23
 727 769 727 769 710 786 c 2,24,-1
 421 1073 l 2,25,26
 403 1091 403 1091 399 1111 c 256,27,28
 395 1131 395 1131 414 1151 c 2,29,-1
 476 1215 l 1,30,-1
 1048 641 l 1,0,-1
EndSplineSet
Substitution2: "'c2sc' Capitals to Small Capitals lookup 0 subtable" P.c2sc
Position2: "'cpsp' Capital Spacing lookup 0 subtable" dx=36 dy=0 dh=72 dv=0
EndChar

StartChar: Q
Encoding: 81 81 52
Width: 961
GlyphClass: 2
Flags: W
LayerCount: 2
Fore
SplineSet
610 548 m 1,0,-1
 868 151 l 1,1,-1
 727 151 l 1,2,-1
 432 539 l 1,3,-1
 432 558 l 1,4,-1
 727 947 l 1,5,-1
 868 947 l 1,6,-1
 610 548 l 1,0,-1
280 548 m 1,7,-1
 538 151 l 1,8,-1
 397 151 l 1,9,-1
 102 539 l 1,10,-1
 102 558 l 1,11,-1
 397 947 l 1,12,-1
 538 947 l 1,13,-1
 280 548 l 1,7,-1
EndSplineSet
Substitution2: "'ss06' Style Set 6 lookup 16 subtable" Q.ss06
Substitution2: "'c2sc' Capitals to Small Capitals lookup 0 subtable" Q.c2sc
Position2: "'cpsp' Capital Spacing lookup 0 subtable" dx=36 dy=0 dh=72 dv=0
EndChar

StartChar: R
Encoding: 82 82 53
Width: 960
GlyphClass: 2
Flags: W
LayerCount: 2
Fore
SplineSet
593 949 m 1,0,-1
 888 560 l 1,1,-1
 888 541 l 1,2,-1
 593 152 l 1,3,-1
 451 152 l 1,4,-1
 709 550 l 1,5,-1
 451 949 l 1,6,-1
 593 949 l 1,0,-1
244 949 m 1,7,-1
 539 560 l 1,8,-1
 539 541 l 1,9,-1
 244 152 l 1,10,-1
 102 152 l 1,11,-1
 360 550 l 1,12,-1
 102 949 l 1,13,-1
 244 949 l 1,7,-1
EndSplineSet
Substitution2: "'ss03' Style Set 3 lookup 13 subtable" R.ss03
Substitution2: "'c2sc' Capitals to Small Capitals lookup 0 subtable" R.c2sc
Position2: "'cpsp' Capital Spacing lookup 0 subtable" dx=36 dy=0 dh=72 dv=0
EndChar

StartChar: S
Encoding: 83 83 54
Width: 1199
GlyphClass: 2
Flags: W
LayerCount: 2
Fore
SplineSet
875 577 m 1,0,-1
 294 -117 l 1,1,-1
 1195 -117 l 1,2,-1
 1195 -269 l 1,3,-1
 69 -269 l 1,4,-1
 69 -126 l 1,5,-1
 678 590 l 1,6,-1
 69 1312 l 1,7,-1
 69 1456 l 1,8,-1
 1118 1456 l 1,9,-1
 1118 1304 l 1,10,-1
 293 1304 l 1,11,-1
 875 602 l 1,12,-1
 875 577 l 1,0,-1
EndSplineSet
Substitution2: "'c2sc' Capitals to Small Capitals lookup 0 subtable" S.c2sc
Position2: "'cpsp' Capital Spacing lookup 0 subtable" dx=36 dy=0 dh=72 dv=0
EndChar

StartChar: T
Encoding: 84 84 55
Width: 1272
GlyphClass: 2
Flags: W
LayerCount: 2
Fore
SplineSet
1216 966 m 1,0,-1
 1153 904 l 2,1,2
 1133 884 1133 884 1113 888.5 c 128,-1,3
 1093 893 1093 893 1075 911 c 2,4,-1
 789 1196 l 2,5,6
 724 1261 724 1261 712 1283 c 1,7,8
 718 1232 718 1232 722 1176.5 c 128,-1,9
 726 1121 726 1121 726 1062 c 2,10,-1
 726 5 l 1,11,-1
 564 5 l 1,12,-1
 564 1062 l 2,13,14
 564 1121 564 1121 568 1176.5 c 128,-1,15
 572 1232 572 1232 579 1283 c 1,16,17
 563 1263 563 1263 544 1242 c 0,18,19
 517 1211 517 1211 502 1196 c 2,20,-1
 214 909 l 2,21,22
 196 891 196 891 176 886 c 0,23,24
 156 882 156 882 136 902 c 2,25,-1
 73 964 l 1,26,-1
 646 1536 l 1,27,-1
 1216 966 l 1,0,-1
EndSplineSet
Substitution2: "'c2sc' Capitals to Small Capitals lookup 0 subtable" T.c2sc
Position2: "'cpsp' Capital Spacing lookup 0 subtable" dx=36 dy=0 dh=72 dv=0
EndChar

StartChar: V
Encoding: 86 86 56
Width: 1368
GlyphClass: 2
Flags: W
LayerCount: 2
Fore
SplineSet
1227 585 m 1,0,-1
 653 12 l 1,1,-1
 83 583 l 1,2,-1
 146 644 l 2,3,4
 167 664 167 664 186 660 c 0,5,6
 206 656 206 656 224 638 c 2,7,-1
 510 352 l 2,8,9
 558 304 558 304 587 265 c 1,10,11
 581 316 581 316 577 371.5 c 128,-1,12
 573 427 573 427 573 487 c 2,13,-1
 573 1433 l 1,14,-1
 735 1433 l 1,15,-1
 735 487 l 2,16,17
 735 427 735 427 731 371.5 c 128,-1,18
 727 316 727 316 720 265 c 1,19,20
 735 285 735 285 754 306 c 0,21,22
 784 339 784 339 797 352 c 2,23,-1
 1086 640 l 2,24,25
 1106 660 1106 660 1124 663 c 0,26,27
 1144 667 1144 667 1164 647 c 2,28,-1
 1227 585 l 1,0,-1
EndSplineSet
Substitution2: "'c2sc' Capitals to Small Capitals lookup 0 subtable" V.c2sc
Position2: "'cpsp' Capital Spacing lookup 0 subtable" dx=36 dy=0 dh=72 dv=0
EndChar

StartChar: W
Encoding: 87 87 57
Width: 1221
GlyphClass: 2
Flags: W
LayerCount: 2
Fore
SplineSet
560 284 m 1,0,-1
 987 1456 l 1,1,-1
 1176 1456 l 1,2,-1
 634 0 l 1,3,-1
 493 0 l 1,4,-1
 248 628 l 1,5,-1
 63 628 l 1,6,-1
 63 782 l 1,7,-1
 378 782 l 1,8,-1
 560 284 l 1,0,-1
EndSplineSet
Substitution2: "'c2sc' Capitals to Small Capitals lookup 0 subtable" W.c2sc
Position2: "'cpsp' Capital Spacing lookup 0 subtable" dx=36 dy=0 dh=72 dv=0
EndChar

StartChar: X
Encoding: 88 88 58
Width: 1092
GlyphClass: 2
Flags: W
LayerCount: 2
Fore
SplineSet
89 329 m 1,0,-1
 419 665 l 1,1,-1
 91 1000 l 1,2,-1
 210 1123 l 1,3,-1
 539 788 l 1,4,-1
 868 1123 l 1,5,-1
 987 1000 l 1,6,-1
 659 665 l 1,7,-1
 989 329 l 1,8,-1
 870 206 l 1,9,-1
 539 543 l 1,10,-1
 208 206 l 1,11,-1
 89 329 l 1,0,-1
EndSplineSet
Substitution2: "'c2sc' Capitals to Small Capitals lookup 0 subtable" X.c2sc
Position2: "'cpsp' Capital Spacing lookup 0 subtable" dx=36 dy=0 dh=72 dv=0
EndChar

StartChar: Y
Encoding: 89 89 59
Width: 1199
GlyphClass: 2
Flags: W
LayerCount: 2
Fore
SplineSet
113 634 m 2,0,1
 113 728 113 728 147 813.5 c 128,-1,2
 181 899 181 899 244.5 964 c 128,-1,3
 308 1029 308 1029 398 1067 c 128,-1,4
 488 1105 488 1105 599 1105 c 0,5,6
 711 1105 711 1105 801 1067 c 128,-1,7
 891 1029 891 1029 954.5 964 c 128,-1,8
 1018 899 1018 899 1052 813.5 c 128,-1,9
 1086 728 1086 728 1086 634 c 2,10,-1
 1086 0 l 1,11,-1
 968 0 l 1,12,-1
 968 634 l 2,13,14
 968 712 968 712 942.5 779 c 128,-1,15
 917 846 917 846 869 894.5 c 128,-1,16
 821 943 821 943 752.5 970.5 c 128,-1,17
 684 998 684 998 599 998 c 256,18,19
 514 998 514 998 445.5 970.5 c 128,-1,20
 377 943 377 943 329 894.5 c 128,-1,21
 281 846 281 846 255.5 779 c 128,-1,22
 230 712 230 712 230 634 c 2,23,-1
 230 0 l 1,24,-1
 113 0 l 1,25,-1
 113 634 l 2,0,1
EndSplineSet
Substitution2: "'c2sc' Capitals to Small Capitals lookup 0 subtable" Y.c2sc
Position2: "'cpsp' Capital Spacing lookup 0 subtable" dx=36 dy=0 dh=72 dv=0
EndChar

StartChar: Z
Encoding: 90 90 60
Width: 1154
GlyphClass: 2
Flags: W
LayerCount: 2
Fore
SplineSet
102 901 m 1,0,1
 150 952 150 952 215.5 981 c 128,-1,2
 281 1010 281 1010 347 1010 c 0,3,4
 429 1012 429 1012 503 977 c 2,5,-1
 655 899 l 2,6,7
 721 868 721 868 799 868 c 0,8,9
 933 868 933 868 1035 996 c 1,10,-1
 1035 806 l 1,11,12
 932 697 932 697 799 697 c 0,13,14
 721 697 721 697 655 728 c 2,15,-1
 494 811 l 2,16,17
 426 842 426 842 347 840 c 0,18,19
 281 840 281 840 215.5 806 c 128,-1,20
 150 772 150 772 102 712 c 1,21,-1
 102 901 l 1,0,1
101 483 m 1,22,23
 149 534 149 534 214 563.5 c 128,-1,24
 279 593 279 593 345 593 c 0,25,26
 427 595 427 595 501 560 c 2,27,-1
 650 483 l 2,28,29
 718 450 718 450 798 450 c 0,30,31
 931 450 931 450 1033 578 c 1,32,-1
 1034 389 l 1,33,34
 931 280 931 280 798 280 c 0,35,36
 720 280 720 280 654 311 c 2,37,-1
 502 389 l 2,38,39
 428 424 428 424 346 422 c 0,40,41
 280 422 280 422 214.5 388 c 128,-1,42
 149 354 149 354 101 294 c 1,43,-1
 101 483 l 1,22,23
EndSplineSet
Substitution2: "'c2sc' Capitals to Small Capitals lookup 0 subtable" Z.c2sc
Position2: "'cpsp' Capital Spacing lookup 0 subtable" dx=36 dy=0 dh=72 dv=0
EndChar

StartChar: bracketleft
Encoding: 91 91 61
Width: 543
Flags: W
LayerCount: 2
Fore
SplineSet
523 1512 m 1,0,-1
 332 1512 l 1,1,-1
 332 -160 l 1,2,-1
 523 -160 l 1,3,-1
 523 -312 l 1,4,-1
 146 -312 l 1,5,-1
 146 1664 l 1,6,-1
 523 1664 l 1,7,-1
 523 1512 l 1,0,-1
EndSplineSet
Validated: 1
EndChar

StartChar: backslash
Encoding: 92 92 62
Width: 840
Flags: W
LayerCount: 2
Fore
SplineSet
40 1456 m 1,0,-1
 216 1456 l 1,1,-1
 824 -125 l 1,2,-1
 648 -125 l 1,3,-1
 40 1456 l 1,0,-1
EndSplineSet
Validated: 1
EndChar

StartChar: bracketright
Encoding: 93 93 63
Width: 543
Flags: W
LayerCount: 2
Fore
SplineSet
9 1664 m 1,0,-1
 387 1664 l 1,1,-1
 387 -312 l 1,2,-1
 9 -312 l 1,3,-1
 9 -160 l 1,4,-1
 202 -160 l 1,5,-1
 202 1512 l 1,6,-1
 9 1512 l 1,7,-1
 9 1664 l 1,0,-1
EndSplineSet
Validated: 1
EndChar

StartChar: asciicircum
Encoding: 94 94 64
Width: 856
Flags: W
LayerCount: 2
Fore
SplineSet
426 1211 m 1,0,-1
 236 729 l 1,1,-1
 64 729 l 1,2,-1
 363 1456 l 1,3,-1
 490 1456 l 1,4,-1
 788 729 l 1,5,-1
 617 729 l 1,6,-1
 426 1211 l 1,0,-1
EndSplineSet
Validated: 1
EndChar

StartChar: underscore
Encoding: 95 95 65
Width: 924
Flags: W
LayerCount: 2
Fore
SplineSet
920 -151 m 1,0,-1
 4 -151 l 1,1,-1
 4 0 l 1,2,-1
 920 0 l 1,3,-1
 920 -151 l 1,0,-1
EndSplineSet
Validated: 1
EndChar

StartChar: grave
Encoding: 96 96 66
Width: 633
Flags: W
LayerCount: 2
Fore
SplineSet
474 1242 m 1,0,-1
 315 1242 l 1,1,-1
 57 1536 l 1,2,-1
 280 1536 l 1,3,-1
 474 1242 l 1,0,-1
EndSplineSet
Validated: 1
EndChar

StartChar: a
Encoding: 97 97 67
Width: 1114
GlyphClass: 2
Flags: W
LayerCount: 2
Fore
SplineSet
796 1356 m 4,0,1
 796 1269 796 1269 734 1210.5 c 132,-1,2
 672 1152 672 1152 581 1152 c 4,3,4
 489 1152 489 1152 427.5 1211 c 132,-1,5
 366 1270 366 1270 366 1356 c 132,-1,6
 366 1442 366 1442 427.5 1503 c 132,-1,7
 489 1564 489 1564 581 1564 c 132,-1,8
 673 1564 673 1564 734.5 1503 c 132,-1,9
 796 1442 796 1442 796 1356 c 4,0,1
465 1356 m 4,10,11
 465 1309 465 1309 498.5 1275 c 132,-1,12
 532 1241 532 1241 581 1241 c 4,13,14
 629 1241 629 1241 663 1274 c 132,-1,15
 697 1307 697 1307 697 1356 c 132,-1,16
 697 1405 697 1405 663.5 1439.5 c 132,-1,17
 630 1474 630 1474 581 1474 c 4,18,19
 531 1474 531 1474 498 1439 c 132,-1,20
 465 1404 465 1404 465 1356 c 4,10,11
808 0 m 1,21,22
 792 32 792 32 782 114 c 1,23,24
 653 -20 653 -20 474 -20 c 0,25,26
 314 -20 314 -20 211.5 70.5 c 128,-1,27
 109 161 109 161 109 300 c 0,28,29
 109 469 109 469 237.5 562.5 c 128,-1,30
 366 656 366 656 599 656 c 2,31,-1
 779 656 l 1,32,-1
 779 741 l 2,33,34
 779 838 779 838 721 895.5 c 128,-1,35
 663 953 663 953 550 953 c 0,36,37
 451 953 451 953 384 903 c 128,-1,38
 317 853 317 853 317 782 c 1,39,-1
 131 782 l 1,40,41
 131 863 131 863 188.5 938.5 c 128,-1,42
 246 1014 246 1014 344.5 1058 c 128,-1,43
 443 1102 443 1102 561 1102 c 0,44,45
 748 1102 748 1102 854 1008.5 c 128,-1,46
 960 915 960 915 964 751 c 1,47,-1
 964 253 l 2,48,49
 964 104 964 104 1002 16 c 1,50,-1
 1002 0 l 1,51,-1
 808 0 l 1,21,22
501 141 m 0,52,53
 588 141 588 141 666 186 c 128,-1,54
 744 231 744 231 779 303 c 1,55,-1
 779 525 l 1,56,-1
 634 525 l 2,57,58
 294 525 294 525 294 326 c 0,59,60
 294 239 294 239 352 190 c 128,-1,61
 410 141 410 141 501 141 c 0,52,53
EndSplineSet
Validated: 513
Substitution2: "'smcp' Lowercase to Small Capitals lookup 1 subtable" A.c2sc
EndChar

StartChar: b
Encoding: 98 98 68
Width: 1104
GlyphClass: 2
Flags: W
LayerCount: 2
Fore
SplineSet
138 0 m 1,0,-1
 138 1165 l 1,1,-1
 544 1165 l 2,2,3
 753 1165 753 1165 864 1083.5 c 128,-1,4
 975 1002 975 1002 975 847 c 0,5,6
 975 766 975 766 927.5 703 c 128,-1,7
 880 640 880 640 792 607 c 1,8,9
 891 583 891 583 949 508.5 c 128,-1,10
 1007 434 1007 434 1007 333 c 0,11,12
 1007 175 1007 175 898 88 c 128,-1,13
 789 1 789 1 588 0 c 2,14,-1
 138 0 l 1,0,-1
323 530 m 1,15,-1
 323 151 l 1,16,-1
 585 151 l 2,17,18
 700 151 700 151 761 200 c 128,-1,19
 822 249 822 249 822 334 c 0,20,21
 822 530 822 530 587 530 c 2,22,-1
 323 530 l 1,15,-1
323 671 m 1,23,-1
 557 671 l 2,24,25
 665 671 665 671 727 713.5 c 128,-1,26
 789 756 789 756 789 839 c 0,27,28
 789 1007 789 1007 560 1012 c 1,29,-1
 323 1012 l 1,30,-1
 323 671 l 1,23,-1
EndSplineSet
Validated: 513
Substitution2: "'ss06' Style Set 6 lookup 16 subtable" b.ss06
Substitution2: "'smcp' Lowercase to Small Capitals lookup 1 subtable" B.c2sc
EndChar

StartChar: c
Encoding: 99 99 69
Width: 1072
GlyphClass: 2
Flags: W
LayerCount: 2
Fore
SplineSet
574 131 m 0,0,1
 673 131 673 131 747 191 c 128,-1,2
 821 251 821 251 829 341 c 1,3,-1
 1004 341 l 1,4,5
 999 248 999 248 940 164 c 128,-1,6
 881 80 881 80 782.5 30 c 128,-1,7
 684 -20 684 -20 574 -20 c 4,8,9
 353 -20 353 -20 222.5 127.5 c 128,-1,10
 92 275 92 275 92 531 c 2,11,-1
 92 562 l 2,12,13
 92 720 92 720 150 843 c 128,-1,14
 208 966 208 966 316.5 1034 c 128,-1,15
 425 1102 425 1102 573 1102 c 0,16,17
 755 1102 755 1102 875.5 993 c 128,-1,18
 996 884 996 884 1004 710 c 1,19,-1
 829 710 l 1,20,21
 821 815 821 815 749.5 882.5 c 128,-1,22
 678 950 678 950 573 950 c 0,23,24
 432 950 432 950 354.5 848.5 c 128,-1,25
 277 747 277 747 277 555 c 2,26,-1
 277 520 l 2,27,28
 277 333 277 333 354 232 c 128,-1,29
 431 131 431 131 574 131 c 0,0,1
604 -9 m 5,30,-1
 592 -61 l 5,31,32
 745 -88 745 -88 745 -234 c 4,33,34
 745 -331 745 -331 665 -387.5 c 132,-1,35
 585 -444 585 -444 442 -444 c 5,36,-1
 435 -337 l 5,37,38
 514 -337 514 -337 557.5 -311 c 132,-1,39
 601 -285 601 -285 601 -238 c 4,40,41
 601 -194 601 -194 569 -173 c 132,-1,42
 537 -152 537 -152 439 -143 c 5,43,-1
 471 -9 l 5,44,-1
 604 -9 l 5,30,-1
EndSplineSet
Validated: 517
Substitution2: "'ss06' Style Set 6 lookup 16 subtable" c.ss06
Substitution2: "'smcp' Lowercase to Small Capitals lookup 1 subtable" C.c2sc
EndChar

StartChar: d
Encoding: 100 100 70
Width: 1155
GlyphClass: 2
Flags: W
LayerCount: 2
Fore
SplineSet
95 550 m 2,0,1
 95 799 95 799 213 950.5 c 128,-1,2
 331 1102 331 1102 522 1102 c 0,3,4
 712 1102 712 1102 823 972 c 1,5,-1
 823 1536 l 1,6,-1
 1008 1536 l 1,7,-1
 1008 0 l 1,8,-1
 838 0 l 1,9,-1
 829 116 l 1,10,11
 718 -20 718 -20 520 -20 c 0,12,13
 332 -20 332 -20 213.5 134 c 128,-1,14
 95 288 95 288 95 536 c 2,15,-1
 95 550 l 2,0,1
280 529 m 0,16,17
 280 345 280 345 356 241 c 128,-1,18
 432 137 432 137 566 137 c 0,19,20
 742 137 742 137 823 295 c 1,21,-1
 823 792 l 1,22,23
 740 945 740 945 568 945 c 0,24,25
 432 945 432 945 356 840 c 128,-1,26
 280 735 280 735 280 529 c 0,16,17
EndSplineSet
Validated: 513
Substitution2: "'ss06' Style Set 6 lookup 16 subtable" d.ss06
Substitution2: "'smcp' Lowercase to Small Capitals lookup 1 subtable" D.c2sc
EndChar

StartChar: e
Encoding: 101 101 71
Width: 998
GlyphClass: 2
Flags: W
LayerCount: 2
Fore
SplineSet
855 526 m 1,0,-1
 323 526 l 1,1,-1
 323 151 l 1,2,-1
 942 151 l 1,3,-1
 942 0 l 1,4,-1
 138 0 l 1,5,-1
 138 1165 l 1,6,-1
 936 1165 l 1,7,-1
 936 1012 l 1,8,-1
 323 1012 l 1,9,-1
 323 678 l 1,10,-1
 855 678 l 1,11,-1
 855 526 l 1,0,-1
EndSplineSet
Validated: 513
Substitution2: "'ss07' Style Set 7 lookup 17 subtable" e.ss07
Substitution2: "'smcp' Lowercase to Small Capitals lookup 1 subtable" E.c2sc
EndChar

StartChar: f
Encoding: 102 102 72
Width: 1130
GlyphClass: 2
Flags: W
LayerCount: 2
Fore
SplineSet
796 1356 m 4,0,1
 796 1269 796 1269 734 1210.5 c 132,-1,2
 672 1152 672 1152 581 1152 c 4,3,4
 489 1152 489 1152 427.5 1211 c 132,-1,5
 366 1270 366 1270 366 1356 c 132,-1,6
 366 1442 366 1442 427.5 1503 c 132,-1,7
 489 1564 489 1564 581 1564 c 132,-1,8
 673 1564 673 1564 734.5 1503 c 132,-1,9
 796 1442 796 1442 796 1356 c 4,0,1
465 1356 m 4,10,11
 465 1309 465 1309 498.5 1275 c 132,-1,12
 532 1241 532 1241 581 1241 c 4,13,14
 629 1241 629 1241 663 1274 c 132,-1,15
 697 1307 697 1307 697 1356 c 132,-1,16
 697 1405 697 1405 663.5 1439.5 c 132,-1,17
 630 1474 630 1474 581 1474 c 4,18,19
 531 1474 531 1474 498 1439 c 132,-1,20
 465 1404 465 1404 465 1356 c 4,10,11
315 1082 m 1,21,-1
 321 946 l 1,22,23
 445 1102 445 1102 645 1102 c 0,24,25
 988 1102 988 1102 991 715 c 2,26,-1
 991 0 l 1,27,-1
 806 0 l 1,28,-1
 806 716 l 2,29,30
 805 833 805 833 752.5 889 c 128,-1,31
 700 945 700 945 589 945 c 0,32,33
 499 945 499 945 431 897 c 128,-1,34
 363 849 363 849 325 771 c 1,35,-1
 325 0 l 1,36,-1
 140 0 l 1,37,-1
 140 1082 l 1,38,-1
 315 1082 l 1,21,-1
EndSplineSet
Validated: 513
Substitution2: "'smcp' Lowercase to Small Capitals lookup 1 subtable" F.c2sc
EndChar

StartChar: g
Encoding: 103 103 73
Width: 1196
GlyphClass: 2
Flags: W
LayerCount: 2
Fore
SplineSet
1077 150 m 1,0,1
 1011 67 1011 67 894.5 25.5 c 128,-1,2
 778 -16 778 -16 627 -16 c 0,3,4
 389 -16 389 -16 245 133 c 128,-1,5
 101 282 101 282 99 534 c 2,6,-1
 99 624 l 2,7,8
 99 886 99 886 232.5 1033.5 c 128,-1,9
 366 1181 366 1181 608 1181 c 0,10,11
 808 1181 808 1181 929 1087 c 128,-1,12
 1050 993 1050 993 1077 812 c 1,13,-1
 893 812 l 1,14,15
 855 1029 855 1029 610 1029 c 0,16,17
 451 1029 451 1029 368 926 c 128,-1,18
 285 823 285 823 285 624 c 2,19,-1
 285 540 l 2,20,21
 285 350 285 350 377.5 242.5 c 128,-1,22
 470 135 470 135 630 135 c 0,23,24
 812 135 812 135 893 209 c 1,25,-1
 893 447 l 1,26,-1
 612 447 l 1,27,-1
 612 591 l 1,28,-1
 1077 591 l 1,29,-1
 1077 150 l 1,0,1
EndSplineSet
Substitution2: "'ss07' Style Set 7 lookup 17 subtable" g.ss07
Substitution2: "'ss06' Style Set 6 lookup 16 subtable" g.ss06
Substitution2: "'ss01' Style Set 1 lookup 11 subtable" g.ss01
Substitution2: "'smcp' Lowercase to Small Capitals lookup 1 subtable" G.c2sc
EndChar

StartChar: h
Encoding: 104 104 74
Width: 1128
GlyphClass: 2
Flags: W
LayerCount: 2
Fore
SplineSet
325 951 m 1,0,1
 448 1102 448 1102 645 1102 c 0,2,3
 988 1102 988 1102 991 715 c 2,4,-1
 991 0 l 1,5,-1
 806 0 l 1,6,-1
 806 716 l 2,7,8
 805 833 805 833 752.5 889 c 128,-1,9
 700 945 700 945 589 945 c 0,10,11
 499 945 499 945 431 897 c 128,-1,12
 363 849 363 849 325 771 c 1,13,-1
 325 0 l 1,14,-1
 140 0 l 1,15,-1
 140 1536 l 1,16,-1
 325 1536 l 1,17,-1
 325 951 l 1,0,1
EndSplineSet
Validated: 513
Substitution2: "'smcp' Lowercase to Small Capitals lookup 1 subtable" H.c2sc
EndChar

StartChar: i
Encoding: 105 105 75
Width: 488
GlyphClass: 2
Flags: W
LayerCount: 2
Fore
SplineSet
337 0 m 1,0,-1
 151 0 l 1,1,-1
 151 1165 l 1,2,-1
 337 1165 l 1,3,-1
 337 0 l 1,0,-1
EndSplineSet
Substitution2: "Single Substitution lookup 3 subtable" glyph609
Substitution2: "'smcp' Lowercase to Small Capitals lookup 1 subtable" I.c2sc
EndChar

StartChar: j
Encoding: 106 106 76
Width: 1059
GlyphClass: 2
Flags: W
LayerCount: 2
Fore
SplineSet
303 151 m 1,0,-1
 992 151 l 1,1,-1
 992 0 l 1,2,-1
 71 0 l 1,3,-1
 71 124 l 1,4,-1
 735 1012 l 1,5,-1
 80 1012 l 1,6,-1
 80 1165 l 1,7,-1
 968 1165 l 1,8,-1
 968 1044 l 1,9,-1
 303 151 l 1,0,-1
EndSplineSet
Substitution2: "Single Substitution lookup 3 subtable" glyph607
Substitution2: "'smcp' Lowercase to Small Capitals lookup 1 subtable" J.c2sc
EndChar

StartChar: k
Encoding: 107 107 77
Width: 1108
GlyphClass: 2
Flags: W
LayerCount: 2
Fore
SplineSet
470 519 m 1,0,-1
 323 377 l 1,1,-1
 323 0 l 1,2,-1
 138 0 l 1,3,-1
 138 1165 l 1,4,-1
 323 1165 l 1,5,-1
 323 610 l 1,6,-1
 453 754 l 1,7,-1
 850 1165 l 1,8,-1
 1077 1165 l 1,9,-1
 598 646 l 1,10,-1
 1111 0 l 1,11,-1
 886 0 l 1,12,-1
 470 519 l 1,0,-1
EndSplineSet
Substitution2: "'ss05' Style Set 5 lookup 15 subtable" k.ss05
Substitution2: "'ss04' Style Set 4 lookup 14 subtable" k.ss04
Substitution2: "'smcp' Lowercase to Small Capitals lookup 1 subtable" K.c2sc
EndChar

StartChar: l
Encoding: 108 108 78
Width: 948
GlyphClass: 2
Flags: W
LayerCount: 2
Fore
SplineSet
323 151 m 1,0,-1
 907 151 l 1,1,-1
 907 0 l 1,2,-1
 138 0 l 1,3,-1
 138 1165 l 1,4,-1
 323 1165 l 1,5,-1
 323 151 l 1,0,-1
EndSplineSet
Substitution2: "'smcp' Lowercase to Small Capitals lookup 1 subtable" L.c2sc
EndChar

StartChar: m
Encoding: 109 109 79
Width: 1538
GlyphClass: 2
Flags: W
LayerCount: 2
Fore
SplineSet
378 1165 m 1,0,-1
 769 254 l 1,1,-1
 1158 1165 l 1,2,-1
 1399 1165 l 1,3,-1
 1399 0 l 1,4,-1
 1215 0 l 1,5,-1
 1215 401 l 1,6,-1
 1234 934 l 1,7,-1
 836 0 l 1,8,-1
 700 0 l 1,9,-1
 303 930 l 1,10,-1
 322 401 l 1,11,-1
 322 0 l 1,12,-1
 138 0 l 1,13,-1
 138 1165 l 1,14,-1
 378 1165 l 1,0,-1
EndSplineSet
Substitution2: "'smcp' Lowercase to Small Capitals lookup 1 subtable" M.c2sc
EndChar

StartChar: n
Encoding: 110 110 80
Width: 1251
GlyphClass: 2
Flags: W
LayerCount: 2
Fore
SplineSet
1112 0 m 1,0,-1
 928 0 l 1,1,-1
 323 876 l 1,2,-1
 323 0 l 1,3,-1
 138 0 l 1,4,-1
 138 1165 l 1,5,-1
 323 1165 l 1,6,-1
 928 288 l 1,7,-1
 928 1165 l 1,8,-1
 1112 1165 l 1,9,-1
 1112 0 l 1,0,-1
EndSplineSet
Substitution2: "'smcp' Lowercase to Small Capitals lookup 1 subtable" N.c2sc
EndChar

StartChar: o
Encoding: 111 111 81
Width: 1211
GlyphClass: 2
Flags: W
LayerCount: 2
Fore
SplineSet
1114 548 m 2,0,1
 1114 287 1114 287 976 135.5 c 128,-1,2
 838 -16 838 -16 606 -16 c 0,3,4
 377 -16 377 -16 236.5 137 c 128,-1,5
 96 290 96 290 96 553 c 2,6,-1
 96 615 l 2,7,8
 96 873 96 873 235.5 1027 c 128,-1,9
 375 1181 375 1181 604 1181 c 0,10,11
 837 1181 837 1181 974.5 1029 c 128,-1,12
 1112 877 1112 877 1114 622 c 2,13,-1
 1114 548 l 2,0,1
931 617 m 2,14,15
 931 815 931 815 845 920 c 128,-1,16
 759 1025 759 1025 604 1025 c 0,17,18
 454 1025 454 1025 366.5 918 c 128,-1,19
 279 811 279 811 279 614 c 2,20,-1
 279 548 l 2,21,22
 279 353 279 353 367 245.5 c 128,-1,23
 455 138 455 138 606 138 c 0,24,25
 762 138 762 138 846.5 243.5 c 128,-1,26
 931 349 931 349 931 548 c 2,27,-1
 931 617 l 2,14,15
EndSplineSet
Substitution2: "'ss06' Style Set 6 lookup 16 subtable" o.ss06
Substitution2: "'smcp' Lowercase to Small Capitals lookup 1 subtable" O.c2sc
EndChar

StartChar: p
Encoding: 112 112 82
Width: 1116
GlyphClass: 2
Flags: W
LayerCount: 2
Fore
SplineSet
323 438 m 1,0,-1
 323 0 l 1,1,-1
 138 0 l 1,2,-1
 138 1165 l 1,3,-1
 605 1165 l 2,4,5
 809 1165 809 1165 930 1065.5 c 128,-1,6
 1051 966 1051 966 1051 798 c 0,7,8
 1051 628 1051 628 934 533 c 128,-1,9
 817 438 817 438 603 438 c 2,10,-1
 323 438 l 1,0,-1
323 590 m 1,11,-1
 605 590 l 2,12,13
 729 590 729 590 797 643 c 128,-1,14
 865 696 865 696 865 796 c 0,15,16
 865 892 865 892 797 951.5 c 128,-1,17
 729 1011 729 1011 610 1012 c 2,18,-1
 323 1012 l 1,19,-1
 323 590 l 1,11,-1
EndSplineSet
Substitution2: "'ss06' Style Set 6 lookup 16 subtable" p.ss06
Substitution2: "'smcp' Lowercase to Small Capitals lookup 1 subtable" P.c2sc
EndChar

StartChar: q
Encoding: 113 113 83
Width: 1157
GlyphClass: 2
Flags: W
LayerCount: 2
Fore
SplineSet
838 279 m 1,0,-1
 318 279 l 1,1,-1
 208 0 l 1,2,-1
 19 0 l 1,3,-1
 498 1165 l 1,4,-1
 664 1165 l 1,5,-1
 1136 0 l 1,6,-1
 948 0 l 1,7,-1
 838 279 l 1,0,-1
378 430 m 1,8,-1
 779 430 l 1,9,-1
 580 939 l 1,10,-1
 378 430 l 1,8,-1
EndSplineSet
Validated: 513
Substitution2: "'ss06' Style Set 6 lookup 16 subtable" q.ss06
Substitution2: "'smcp' Lowercase to Small Capitals lookup 1 subtable" Q.c2sc
EndChar

StartChar: r
Encoding: 114 114 84
Width: 1098
GlyphClass: 2
Flags: W
LayerCount: 2
Fore
SplineSet
602 449 m 1,0,-1
 323 449 l 1,1,-1
 323 0 l 1,2,-1
 138 0 l 1,3,-1
 138 1165 l 1,4,-1
 564 1165 l 2,5,6
 777 1165 777 1165 892.5 1072 c 128,-1,7
 1008 979 1008 979 1008 809 c 0,8,9
 1008 581 1008 581 773 492 c 1,10,-1
 1061 10 l 1,11,-1
 1061 0 l 1,12,-1
 863 0 l 1,13,-1
 602 449 l 1,0,-1
323 600 m 1,14,-1
 569 600 l 2,15,16
 686 600 686 600 754.5 654.5 c 128,-1,17
 823 709 823 709 823 802 c 0,18,19
 823 902 823 902 756 957 c 128,-1,20
 689 1012 689 1012 563 1012 c 2,21,-1
 323 1012 l 1,22,-1
 323 600 l 1,14,-1
EndSplineSet
Substitution2: "'smcp' Lowercase to Small Capitals lookup 1 subtable" R.c2sc
EndChar

StartChar: s
Encoding: 115 115 85
Width: 1056
GlyphClass: 2
Flags: W
LayerCount: 2
Fore
SplineSet
803 298 m 0,0,1
 803 378 803 378 742.5 422 c 128,-1,2
 682 466 682 466 535 503 c 128,-1,3
 388 540 388 540 302 583 c 0,4,5
 107 681 107 681 107 860 c 0,6,7
 107 1003 107 1003 228.5 1092 c 128,-1,8
 350 1181 350 1181 541 1181 c 0,9,10
 737 1181 737 1181 861.5 1081 c 128,-1,11
 986 981 986 981 986 825 c 1,12,-1
 801 825 l 1,13,14
 801 923 801 923 730.5 976.5 c 128,-1,15
 660 1030 660 1030 539 1030 c 0,16,17
 426 1030 426 1030 359 985.5 c 128,-1,18
 292 941 292 941 292 861 c 0,19,20
 292 796 292 796 353.5 752 c 128,-1,21
 415 708 415 708 571 668 c 128,-1,22
 727 628 727 628 815 577.5 c 128,-1,23
 903 527 903 527 946 459 c 128,-1,24
 989 391 989 391 989 300 c 0,25,26
 989 153 989 153 867.5 68.5 c 128,-1,27
 746 -16 746 -16 547 -16 c 0,28,29
 340 -16 340 -16 203.5 85.5 c 128,-1,30
 67 187 67 187 67 349 c 1,31,-1
 253 349 l 1,32,33
 253 247 253 247 330 190 c 128,-1,34
 407 133 407 133 547 133 c 0,35,36
 673 133 673 133 738 178.5 c 128,-1,37
 803 224 803 224 803 298 c 0,0,1
EndSplineSet
Substitution2: "'smcp' Lowercase to Small Capitals lookup 1 subtable" S.c2sc
EndChar

StartChar: t
Encoding: 116 116 86
Width: 669
GlyphClass: 2
Flags: W
LayerCount: 2
Fore
SplineSet
391 1344 m 1,0,-1
 391 1082 l 1,1,-1
 593 1082 l 1,2,-1
 593 939 l 1,3,-1
 391 939 l 1,4,-1
 391 268 l 2,5,6
 391 203 391 203 418 170.5 c 128,-1,7
 445 138 445 138 510 138 c 0,8,9
 542 138 542 138 598 150 c 1,10,-1
 598 0 l 1,11,12
 525 -20 525 -20 456 -20 c 0,13,14
 332 -20 332 -20 269 55 c 128,-1,15
 206 130 206 130 206 268 c 2,16,-1
 206 939 l 1,17,-1
 9 939 l 1,18,-1
 9 1082 l 1,19,-1
 206 1082 l 1,20,-1
 206 1344 l 1,21,-1
 391 1344 l 1,0,-1
EndSplineSet
Validated: 513
Substitution2: "'smcp' Lowercase to Small Capitals lookup 1 subtable" T.c2sc
EndChar

StartChar: u
Encoding: 117 117 87
Width: 1148
GlyphClass: 2
Flags: W
LayerCount: 2
Fore
SplineSet
1034 1165 m 1,0,-1
 1034 385 l 2,1,2
 1034 203 1034 203 909 93.5 c 128,-1,3
 784 -16 784 -16 575 -16 c 0,4,5
 365 -16 365 -16 242 89.5 c 128,-1,6
 119 195 119 195 116 377 c 2,7,-1
 116 1165 l 1,8,-1
 299 1165 l 1,9,-1
 299 385 l 2,10,11
 299 264 299 264 370.5 199.5 c 128,-1,12
 442 135 442 135 575 135 c 0,13,14
 706 135 706 135 777.5 198.5 c 128,-1,15
 849 262 849 262 849 385 c 2,16,-1
 849 1165 l 1,17,-1
 1034 1165 l 1,0,-1
EndSplineSet
Substitution2: "'smcp' Lowercase to Small Capitals lookup 1 subtable" U.c2sc
EndChar

StartChar: v
Encoding: 118 118 88
Width: 1127
GlyphClass: 2
Flags: W
LayerCount: 2
Fore
SplineSet
538 292 m 1,0,-1
 563 198 l 1,1,-1
 589 290 l 1,2,-1
 909 1165 l 1,3,-1
 1107 1165 l 1,4,-1
 650 0 l 1,5,-1
 477 0 l 1,6,-1
 20 1165 l 1,7,-1
 219 1165 l 1,8,-1
 538 292 l 1,0,-1
EndSplineSet
Substitution2: "'smcp' Lowercase to Small Capitals lookup 1 subtable" V.c2sc
EndChar

StartChar: w
Encoding: 119 119 89
Width: 1152
GlyphClass: 2
Flags: W
LayerCount: 2
Fore
SplineSet
138 0 m 1,0,-1
 138 1165 l 1,1,-1
 499 1165 l 2,2,3
 661 1165 661 1165 786.5 1098.5 c 128,-1,4
 912 1032 912 1032 982 909 c 128,-1,5
 1052 786 1052 786 1055 627 c 2,6,-1
 1055 550 l 2,7,8
 1055 298 1055 298 899.5 149 c 128,-1,9
 744 0 744 0 481 0 c 2,10,-1
 138 0 l 1,0,-1
323 1012 m 1,11,-1
 323 151 l 1,12,-1
 487 151 l 2,13,14
 673 151 673 151 772 255 c 128,-1,15
 871 359 871 359 871 551 c 2,16,-1
 871 615 l 2,17,18
 871 807 871 807 776.5 909.5 c 128,-1,19
 682 1012 682 1012 499 1012 c 2,20,-1
 323 1012 l 1,11,-1
EndSplineSet
Validated: 513
Substitution2: "'smcp' Lowercase to Small Capitals lookup 1 subtable" W.c2sc
EndChar

StartChar: x
Encoding: 120 120 90
Width: 1062
GlyphClass: 2
Flags: W
LayerCount: 2
Fore
SplineSet
1021 1012 m 1,0,-1
 622 1012 l 1,1,-1
 622 0 l 1,2,-1
 437 0 l 1,3,-1
 437 1012 l 1,4,-1
 40 1012 l 1,5,-1
 40 1165 l 1,6,-1
 1021 1165 l 1,7,-1
 1021 1012 l 1,0,-1
EndSplineSet
Validated: 513
Substitution2: "'smcp' Lowercase to Small Capitals lookup 1 subtable" X.c2sc
EndChar

StartChar: y
Encoding: 121 121 91
Width: 1067
GlyphClass: 2
Flags: W
LayerCount: 2
Fore
SplineSet
532 586 m 1,0,-1
 844 1165 l 1,1,-1
 1052 1165 l 1,2,-1
 622 407 l 1,3,-1
 622 0 l 1,4,-1
 437 0 l 1,5,-1
 437 418 l 1,6,-1
 13 1165 l 1,7,-1
 221 1165 l 1,8,-1
 532 586 l 1,0,-1
EndSplineSet
Substitution2: "'smcp' Lowercase to Small Capitals lookup 1 subtable" Y.c2sc
EndChar

StartChar: z
Encoding: 122 122 92
Width: 1251
GlyphClass: 2
Flags: W
LayerCount: 2
Fore
SplineSet
1112 0 m 1,0,-1
 927 0 l 1,1,-1
 927 498 l 1,2,-1
 323 498 l 1,3,-1
 323 0 l 1,4,-1
 138 0 l 1,5,-1
 138 1165 l 1,6,-1
 323 1165 l 1,7,-1
 323 650 l 1,8,-1
 927 650 l 1,9,-1
 927 1165 l 1,10,-1
 1112 1165 l 1,11,-1
 1112 0 l 1,0,-1
EndSplineSet
Validated: 513
Substitution2: "'smcp' Lowercase to Small Capitals lookup 1 subtable" Z.c2sc
EndChar

StartChar: braceleft
Encoding: 123 123 93
Width: 693
Flags: W
LayerCount: 2
Fore
SplineSet
632 -366 m 1,0,1
 455 -316 455 -316 365.5 -201.5 c 128,-1,2
 276 -87 276 -87 276 101 c 2,3,-1
 276 300 l 2,4,5
 276 543 276 543 64 543 c 1,6,-1
 64 688 l 1,7,8
 276 688 276 688 276 930 c 2,9,-1
 276 1138 l 2,10,11
 278 1321 278 1321 365.5 1433.5 c 128,-1,12
 453 1546 453 1546 632 1597 c 1,13,-1
 670 1482 l 1,14,15
 461 1415 461 1415 461 1133 c 2,16,-1
 461 931 l 2,17,18
 461 704 461 704 294 615 c 1,19,20
 461 525 461 525 461 296 c 2,21,-1
 461 90 l 2,22,23
 464 -185 464 -185 670 -251 c 1,24,-1
 632 -366 l 1,0,1
EndSplineSet
Validated: 1
EndChar

StartChar: bar
Encoding: 124 124 94
Width: 491
Flags: W
LayerCount: 2
Fore
SplineSet
147 -270 m 1,0,-1
 147 521 l 1,1,-1
 333 521 l 1,2,-1
 333 -270 l 1,3,-1
 147 -270 l 1,0,-1
333 698 m 1,4,-1
 147 698 l 1,5,-1
 147 1456 l 1,6,-1
 333 1456 l 1,7,-1
 333 698 l 1,4,-1
EndSplineSet
Validated: 1
EndChar

StartChar: braceright
Encoding: 125 125 95
Width: 693
Flags: W
LayerCount: 2
Fore
SplineSet
19 -251 m 1,0,1
 222 -186 222 -186 229 80 c 1,2,-1
 229 300 l 2,3,4
 229 531 229 531 410 615 c 1,5,6
 229 697 229 697 229 930 c 2,7,-1
 229 1133 l 2,8,9
 229 1415 229 1415 20 1482 c 1,10,-1
 58 1597 l 1,11,12
 235 1547 235 1547 324 1434.5 c 128,-1,13
 413 1322 413 1322 414 1137 c 2,14,-1
 414 927 l 2,15,16
 414 688 414 688 626 688 c 1,17,-1
 626 543 l 1,18,19
 414 543 414 543 414 300 c 2,20,-1
 414 98 l 2,21,22
 414 -90 414 -90 323.5 -203 c 128,-1,23
 233 -316 233 -316 58 -366 c 1,24,-1
 19 -251 l 1,0,1
EndSplineSet
Validated: 1
EndChar

StartChar: asciitilde
Encoding: 126 126 96
Width: 1393
Flags: W
LayerCount: 2
Fore
SplineSet
1263 777 m 1,0,1
 1263 619 1263 619 1169.5 510.5 c 128,-1,2
 1076 402 1076 402 939 402 c 0,3,4
 867 402 867 402 803 428.5 c 128,-1,5
 739 455 739 455 654.5 529 c 128,-1,6
 570 603 570 603 533 621 c 128,-1,7
 496 639 496 639 454 639 c 0,8,9
 376 639 376 639 334 585.5 c 128,-1,10
 292 532 292 532 292 438 c 1,11,-1
 131 436 l 1,12,13
 131 596 131 596 223 699 c 128,-1,14
 315 802 315 802 454 802 c 0,15,16
 530 802 530 802 600 770 c 128,-1,17
 670 738 670 738 758 657.5 c 128,-1,18
 846 577 846 577 910 567 c 1,19,-1
 939 565 l 1,20,21
 1015 565 1015 565 1062.5 623 c 128,-1,22
 1110 681 1110 681 1110 776 c 1,23,-1
 1263 777 l 1,0,1
EndSplineSet
Validated: 1
EndChar

StartChar: sterling
Encoding: 163 163 97
Width: 1152
Flags: W
LayerCount: 2
Fore
SplineSet
138 0 m 1,0,-1
 138 1165 l 1,1,-1
 499 1165 l 2,2,3
 661 1165 661 1165 786.5 1098.5 c 128,-1,4
 912 1032 912 1032 982 909 c 128,-1,5
 1052 786 1052 786 1055 627 c 2,6,-1
 1055 550 l 2,7,8
 1055 298 1055 298 899.5 149 c 128,-1,9
 744 0 744 0 481 0 c 2,10,-1
 138 0 l 1,0,-1
323 1012 m 1,11,-1
 323 151 l 1,12,-1
 487 151 l 2,13,14
 673 151 673 151 772 255 c 128,-1,15
 871 359 871 359 871 551 c 2,16,-1
 871 615 l 2,17,18
 871 807 871 807 776.5 909.5 c 128,-1,19
 682 1012 682 1012 499 1012 c 2,20,-1
 323 1012 l 1,11,-1
EndSplineSet
Validated: 1
Substitution2: "'c2sc' Capitals to Small Capitals lookup 0 subtable" sterling.c2sc
Position2: "'cpsp' Capital Spacing lookup 0 subtable" dx=36 dy=0 dh=72 dv=0
EndChar

StartChar: yen
Encoding: 165 165 98
Width: 1251
Flags: W
LayerCount: 2
Fore
SplineSet
1112 0 m 1,0,-1
 928 0 l 1,1,-1
 323 876 l 1,2,-1
 323 0 l 1,3,-1
 138 0 l 1,4,-1
 138 1165 l 1,5,-1
 323 1165 l 1,6,-1
 928 288 l 1,7,-1
 928 1165 l 1,8,-1
 1112 1165 l 1,9,-1
 1112 0 l 1,0,-1
EndSplineSet
Validated: 1
Substitution2: "'c2sc' Capitals to Small Capitals lookup 0 subtable" yen.c2sc
Position2: "'cpsp' Capital Spacing lookup 0 subtable" dx=36 dy=0 dh=72 dv=0
EndChar

StartChar: brokenbar
Encoding: 166 166 99
Width: 1062
Flags: W
LayerCount: 2
Fore
SplineSet
1021 1012 m 1,0,-1
 622 1012 l 1,1,-1
 622 0 l 1,2,-1
 437 0 l 1,3,-1
 437 1012 l 1,4,-1
 40 1012 l 1,5,-1
 40 1165 l 1,6,-1
 1021 1165 l 1,7,-1
 1021 1012 l 1,0,-1
EndSplineSet
Validated: 1
EndChar

StartChar: section
Encoding: 167 167 100
Width: 1104
Flags: W
LayerCount: 2
Fore
SplineSet
138 0 m 1,0,-1
 138 1165 l 1,1,-1
 544 1165 l 2,2,3
 753 1165 753 1165 864 1083.5 c 128,-1,4
 975 1002 975 1002 975 847 c 0,5,6
 975 766 975 766 927.5 703 c 128,-1,7
 880 640 880 640 792 607 c 1,8,9
 891 583 891 583 949 508.5 c 128,-1,10
 1007 434 1007 434 1007 333 c 0,11,12
 1007 175 1007 175 898 88 c 128,-1,13
 789 1 789 1 588 0 c 2,14,-1
 138 0 l 1,0,-1
323 530 m 1,15,-1
 323 151 l 1,16,-1
 585 151 l 2,17,18
 700 151 700 151 761 200 c 128,-1,19
 822 249 822 249 822 334 c 0,20,21
 822 530 822 530 587 530 c 2,22,-1
 323 530 l 1,15,-1
323 671 m 1,23,-1
 557 671 l 2,24,25
 665 671 665 671 727 713.5 c 128,-1,26
 789 756 789 756 789 839 c 0,27,28
 789 1007 789 1007 560 1012 c 1,29,-1
 323 1012 l 1,30,-1
 323 671 l 1,23,-1
EndSplineSet
Validated: 1
EndChar

StartChar: dieresis
Encoding: 168 168 101
Width: 1148
Flags: W
LayerCount: 2
Fore
SplineSet
1072 377 m 1,0,1
 1052 190 1052 190 926 87 c 128,-1,2
 800 -16 800 -16 591 -16 c 0,3,4
 367 -16 367 -16 231.5 131.5 c 128,-1,5
 96 279 96 279 96 538 c 2,6,-1
 96 632 l 2,7,8
 96 796 96 796 157.5 920.5 c 128,-1,9
 219 1045 219 1045 334.5 1113 c 128,-1,10
 450 1181 450 1181 602 1181 c 0,11,12
 806 1181 806 1181 929.5 1075.5 c 128,-1,13
 1053 970 1053 970 1072 783 c 1,14,-1
 887 783 l 1,15,16
 869 913 869 913 798.5 971 c 128,-1,17
 728 1029 728 1029 602 1029 c 0,18,19
 449 1029 449 1029 365.5 927.5 c 128,-1,20
 282 826 282 826 281 637 c 2,21,-1
 281 531 l 2,22,23
 281 342 281 342 360.5 238.5 c 128,-1,24
 440 135 440 135 591 135 c 0,25,26
 726 135 726 135 796.5 190.5 c 128,-1,27
 867 246 867 246 887 377 c 1,28,-1
 1072 377 l 1,0,1
EndSplineSet
Validated: 1
EndChar

StartChar: ordfeminine
Encoding: 170 170 102
Width: 971
Flags: W
LayerCount: 2
Fore
SplineSet
843 499 m 1,0,-1
 323 499 l 1,1,-1
 323 0 l 1,2,-1
 138 0 l 1,3,-1
 138 1165 l 1,4,-1
 923 1165 l 1,5,-1
 923 1012 l 1,6,-1
 323 1012 l 1,7,-1
 323 652 l 1,8,-1
 843 652 l 1,9,-1
 843 499 l 1,0,-1
EndSplineSet
Validated: 1
EndChar

StartChar: guillemotleft
Encoding: 171 171 103
Width: 1196
Flags: W
LayerCount: 2
Fore
SplineSet
1077 150 m 1,0,1
 1011 67 1011 67 894.5 25.5 c 128,-1,2
 778 -16 778 -16 627 -16 c 0,3,4
 389 -16 389 -16 245 133 c 128,-1,5
 101 282 101 282 99 534 c 2,6,-1
 99 624 l 2,7,8
 99 886 99 886 232.5 1033.5 c 128,-1,9
 366 1181 366 1181 608 1181 c 0,10,11
 808 1181 808 1181 929 1087 c 128,-1,12
 1050 993 1050 993 1077 812 c 1,13,-1
 893 812 l 1,14,15
 855 1029 855 1029 610 1029 c 0,16,17
 451 1029 451 1029 368 926 c 128,-1,18
 285 823 285 823 285 624 c 2,19,-1
 285 540 l 2,20,21
 285 350 285 350 377.5 242.5 c 128,-1,22
 470 135 470 135 630 135 c 0,23,24
 812 135 812 135 893 209 c 1,25,-1
 893 447 l 1,26,-1
 612 447 l 1,27,-1
 612 591 l 1,28,-1
 1077 591 l 1,29,-1
 1077 150 l 1,0,1
EndSplineSet
Validated: 1
EndChar

StartChar: macron
Encoding: 175 175 104
Width: 948
Flags: W
LayerCount: 2
Fore
SplineSet
323 151 m 1,0,-1
 907 151 l 1,1,-1
 907 0 l 1,2,-1
 138 0 l 1,3,-1
 138 1165 l 1,4,-1
 323 1165 l 1,5,-1
 323 151 l 1,0,-1
EndSplineSet
Validated: 1
EndChar

StartChar: degree
Encoding: 176 176 105
Width: 1538
Flags: W
LayerCount: 2
Fore
SplineSet
378 1165 m 1,0,-1
 769 254 l 1,1,-1
 1158 1165 l 1,2,-1
 1399 1165 l 1,3,-1
 1399 0 l 1,4,-1
 1215 0 l 1,5,-1
 1215 401 l 1,6,-1
 1234 934 l 1,7,-1
 836 0 l 1,8,-1
 700 0 l 1,9,-1
 303 930 l 1,10,-1
 322 401 l 1,11,-1
 322 0 l 1,12,-1
 138 0 l 1,13,-1
 138 1165 l 1,14,-1
 378 1165 l 1,0,-1
EndSplineSet
Validated: 1
EndChar

StartChar: threequarters
Encoding: 190 190 106
Width: 1114
Flags: W
LayerCount: 2
Fore
SplineSet
796 1356 m 4,0,1
 796 1269 796 1269 734 1210.5 c 132,-1,2
 672 1152 672 1152 581 1152 c 4,3,4
 489 1152 489 1152 427.5 1211 c 132,-1,5
 366 1270 366 1270 366 1356 c 132,-1,6
 366 1442 366 1442 427.5 1503 c 132,-1,7
 489 1564 489 1564 581 1564 c 132,-1,8
 673 1564 673 1564 734.5 1503 c 132,-1,9
 796 1442 796 1442 796 1356 c 4,0,1
465 1356 m 4,10,11
 465 1309 465 1309 498.5 1275 c 132,-1,12
 532 1241 532 1241 581 1241 c 4,13,14
 629 1241 629 1241 663 1274 c 132,-1,15
 697 1307 697 1307 697 1356 c 132,-1,16
 697 1405 697 1405 663.5 1439.5 c 132,-1,17
 630 1474 630 1474 581 1474 c 4,18,19
 531 1474 531 1474 498 1439 c 132,-1,20
 465 1404 465 1404 465 1356 c 4,10,11
808 0 m 1,21,22
 792 32 792 32 782 114 c 1,23,24
 653 -20 653 -20 474 -20 c 0,25,26
 314 -20 314 -20 211.5 70.5 c 128,-1,27
 109 161 109 161 109 300 c 0,28,29
 109 469 109 469 237.5 562.5 c 128,-1,30
 366 656 366 656 599 656 c 2,31,-1
 779 656 l 1,32,-1
 779 741 l 2,33,34
 779 838 779 838 721 895.5 c 128,-1,35
 663 953 663 953 550 953 c 0,36,37
 451 953 451 953 384 903 c 128,-1,38
 317 853 317 853 317 782 c 1,39,-1
 131 782 l 1,40,41
 131 863 131 863 188.5 938.5 c 128,-1,42
 246 1014 246 1014 344.5 1058 c 128,-1,43
 443 1102 443 1102 561 1102 c 0,44,45
 748 1102 748 1102 854 1008.5 c 128,-1,46
 960 915 960 915 964 751 c 1,47,-1
 964 253 l 2,48,49
 964 104 964 104 1002 16 c 1,50,-1
 1002 0 l 1,51,-1
 808 0 l 1,21,22
501 141 m 0,52,53
 588 141 588 141 666 186 c 128,-1,54
 744 231 744 231 779 303 c 1,55,-1
 779 525 l 1,56,-1
 634 525 l 2,57,58
 294 525 294 525 294 326 c 0,59,60
 294 239 294 239 352 190 c 128,-1,61
 410 141 410 141 501 141 c 0,52,53
EndSplineSet
Validated: 1
EndChar

StartChar: Oslash
Encoding: 216 216 107
Width: 2106
GlyphClass: 2
Flags: W
LayerCount: 2
Fore
SplineSet
1995 527 m 2,0,1
 1995 380 1995 380 1932 252 c 128,-1,2
 1869 124 1869 124 1757.5 51.5 c 128,-1,3
 1646 -21 1646 -21 1509 -21 c 0,4,5
 1364 -21 1364 -21 1245 71 c 128,-1,6
 1126 163 1126 163 1046 340 c 1,7,8
 965 161 965 161 847 70 c 128,-1,9
 729 -21 729 -21 585 -21 c 0,10,11
 448 -21 448 -21 337 50.5 c 128,-1,12
 226 122 226 122 162 250 c 128,-1,13
 98 378 98 378 98 529 c 2,14,-1
 98 553 l 2,15,16
 98 700 98 700 161 828 c 128,-1,17
 224 956 224 956 335.5 1029 c 128,-1,18
 447 1102 447 1102 583 1102 c 0,19,20
 728 1102 728 1102 846.5 1010.5 c 128,-1,21
 965 919 965 919 1046 740 c 1,22,23
 1126 917 1126 917 1245.5 1009.5 c 128,-1,24
 1365 1102 1365 1102 1511 1102 c 0,25,26
 1717 1102 1717 1102 1856 942.5 c 128,-1,27
 1995 783 1995 783 1995 540 c 2,28,-1
 1995 527 l 2,0,1
283 527 m 2,29,30
 283 350 283 350 366 240 c 128,-1,31
 449 130 449 130 585 130 c 0,32,33
 699 130 699 130 791.5 224 c 128,-1,34
 884 318 884 318 936 481 c 1,35,-1
 947 520 l 1,36,-1
 947 562 l 1,37,38
 923 661 923 661 866 757 c 128,-1,39
 809 853 809 853 736 901.5 c 128,-1,40
 663 950 663 950 583 950 c 0,41,42
 449 950 449 950 366 840 c 128,-1,43
 283 730 283 730 283 545 c 2,44,-1
 283 527 l 2,29,30
1810 553 m 2,45,46
 1810 727 1810 727 1727 838.5 c 128,-1,47
 1644 950 1644 950 1511 950 c 0,48,49
 1396 950 1396 950 1302 855.5 c 128,-1,50
 1208 761 1208 761 1155 593 c 1,51,-1
 1146 562 l 1,52,-1
 1146 520 l 1,53,54
 1168 423 1168 423 1226.5 324.5 c 128,-1,55
 1285 226 1285 226 1357 178 c 128,-1,56
 1429 130 1429 130 1509 130 c 0,57,58
 1645 130 1645 130 1727.5 241 c 128,-1,59
 1810 352 1810 352 1810 536 c 2,60,-1
 1810 553 l 2,45,46
EndSplineSet
Validated: 1
Substitution2: "'c2sc' Capitals to Small Capitals lookup 0 subtable" Oslash.c2sc
Position2: "'cpsp' Capital Spacing lookup 0 subtable" dx=36 dy=0 dh=72 dv=0
EndChar

StartChar: lozenge
Encoding: 9674 9674 108
Width: 1032
Flags: W
LayerCount: 2
Fore
SplineSet
444 1456 m 1,0,-1
 584 1456 l 1,1,-1
 988 727 l 1,2,-1
 588 0 l 1,3,-1
 447 0 l 1,4,-1
 43 727 l 1,5,-1
 444 1456 l 1,0,-1
513 1254 m 1,6,-1
 234 727 l 1,7,-1
 518 201 l 1,8,-1
 798 727 l 1,9,-1
 513 1254 l 1,6,-1
EndSplineSet
Validated: 1
EndChar

StartChar: uniEE02
Encoding: 60930 60930 110
Width: 655
Flags: W
LayerCount: 2
Fore
SplineSet
251 633 m 1,0,-1
 110 633 l 1,1,-1
 110 1082 l 1,2,-1
 251 1082 l 1,3,-1
 251 633 l 1,0,-1
563 633 m 1,4,-1
 422 633 l 1,5,-1
 422 1082 l 1,6,-1
 563 1082 l 1,7,-1
 563 633 l 1,4,-1
EndSplineSet
Validated: 1
EndChar

StartChar: uniF6C3
Encoding: 63171 63171 111
Width: 515
GlyphClass: 4
Flags: W
LayerCount: 2
Fore
SplineSet
197 -161 m 1,0,-1
 92 -89 l 1,1,2
 164 20 164 20 166 147 c 2,3,-1
 166 239 l 1,4,-1
 343 239 l 1,5,-1
 343 163 l 2,6,7
 343 72 343 72 303.5 -17.5 c 128,-1,8
 264 -107 264 -107 197 -161 c 1,0,-1
EndSplineSet
Validated: 1
EndChar

StartChar: uniFFFC
Encoding: 65532 65532 113
Width: 2099
Flags: W
LayerCount: 2
Fore
SplineSet
825 468 m 2,0,1
 825 370 825 370 760.5 309.5 c 128,-1,2
 696 249 696 249 596 249 c 0,3,4
 494 249 494 249 430 309 c 128,-1,5
 366 369 366 369 364 463 c 2,6,-1
 364 580 l 2,7,8
 364 675 364 675 427 737 c 128,-1,9
 490 799 490 799 594 799 c 0,10,11
 695 799 695 799 759 739 c 128,-1,12
 823 679 823 679 825 585 c 2,13,-1
 825 468 l 2,0,1
892 252 m 1,14,-1
 892 801 l 1,15,-1
 1080 801 l 2,16,17
 1178 801 1178 801 1235 764.5 c 128,-1,18
 1292 728 1292 728 1292 651 c 0,19,20
 1292 567 1292 567 1208 535 c 1,21,22
 1258 522 1258 522 1284 487 c 128,-1,23
 1310 452 1310 452 1310 407 c 0,24,25
 1310 252 1310 252 1102 252 c 2,26,-1
 892 252 l 1,14,-1
733 580 m 2,27,28
 733 649 733 649 696 688 c 128,-1,29
 659 727 659 727 594 727 c 0,30,31
 530 727 530 727 493 688 c 128,-1,32
 456 649 456 649 456 580 c 2,33,-1
 456 468 l 2,34,35
 456 399 456 399 493 360 c 128,-1,36
 530 321 530 321 596 321 c 0,37,38
 660 321 660 321 696.5 360 c 128,-1,39
 733 399 733 399 733 468 c 2,40,-1
 733 580 l 2,27,28
1687 803 m 1,41,-1
 1779 803 l 1,42,-1
 1779 425 l 2,43,44
 1779 347 1779 347 1726.5 300.5 c 128,-1,45
 1674 254 1674 254 1592 254 c 0,46,47
 1504 254 1504 254 1449.5 294.5 c 128,-1,48
 1395 335 1395 335 1395 418 c 1,49,-1
 1488 418 l 1,50,51
 1488 327 1488 327 1592 327 c 0,52,53
 1633 327 1633 327 1660 354 c 128,-1,54
 1687 381 1687 381 1687 425 c 2,55,-1
 1687 803 l 1,41,-1
91 -398 m 1,56,-1
 91 -83 l 1,57,-1
 204 -83 l 1,58,-1
 204 -285 l 1,59,-1
 400 -285 l 1,60,-1
 400 -398 l 1,61,-1
 91 -398 l 1,56,-1
1720 -398 m 1,62,-1
 1720 -285 l 1,63,-1
 1919 -285 l 1,64,-1
 1919 -83 l 1,65,-1
 2030 -83 l 1,66,-1
 2030 -398 l 1,67,-1
 1720 -398 l 1,62,-1
91 1169 m 1,68,-1
 91 1454 l 1,69,-1
 400 1454 l 1,70,-1
 400 1338 l 1,71,-1
 204 1338 l 1,72,-1
 204 1169 l 1,73,-1
 91 1169 l 1,68,-1
1720 1338 m 1,74,-1
 1720 1454 l 1,75,-1
 2030 1454 l 1,76,-1
 2030 1169 l 1,77,-1
 1919 1169 l 1,78,-1
 1919 1338 l 1,79,-1
 1720 1338 l 1,74,-1
987 496 m 1,80,-1
 987 327 l 1,81,-1
 1113 327 l 2,82,83
 1216 327 1216 327 1216 410 c 0,84,85
 1216 492 1216 492 1118 496 c 1,86,-1
 987 496 l 1,80,-1
1321 1338 m 1,87,-1
 1321 1454 l 1,88,-1
 1599 1454 l 1,89,-1
 1599 1338 l 1,90,-1
 1321 1338 l 1,87,-1
922 1338 m 1,91,-1
 922 1454 l 1,92,-1
 1199 1454 l 1,93,-1
 1199 1338 l 1,94,-1
 922 1338 l 1,91,-1
523 1338 m 1,95,-1
 523 1454 l 1,96,-1
 799 1454 l 1,97,-1
 799 1338 l 1,98,-1
 523 1338 l 1,95,-1
1321 -398 m 1,99,-1
 1321 -285 l 1,100,-1
 1599 -285 l 1,101,-1
 1599 -398 l 1,102,-1
 1321 -398 l 1,99,-1
922 -398 m 1,103,-1
 922 -285 l 1,104,-1
 1199 -285 l 1,105,-1
 1199 -398 l 1,106,-1
 922 -398 l 1,103,-1
523 -398 m 1,107,-1
 523 -285 l 1,108,-1
 799 -285 l 1,109,-1
 799 -398 l 1,110,-1
 523 -398 l 1,107,-1
987 566 m 1,111,-1
 1080 566 l 2,112,113
 1198 566 1198 566 1198 646 c 0,114,115
 1198 687 1198 687 1169 702 c 128,-1,116
 1140 717 1140 717 1080 717 c 2,117,-1
 987 717 l 1,118,-1
 987 566 l 1,111,-1
204 416 m 1,119,-1
 91 416 l 1,120,-1
 91 668 l 1,121,-1
 204 668 l 1,122,-1
 204 416 l 1,119,-1
204 794 m 1,123,-1
 91 794 l 1,124,-1
 91 1044 l 1,125,-1
 204 1044 l 1,126,-1
 204 794 l 1,123,-1
204 41 m 1,127,-1
 91 41 l 1,128,-1
 91 290 l 1,129,-1
 204 290 l 1,130,-1
 204 41 l 1,127,-1
2030 416 m 1,131,-1
 1919 416 l 1,132,-1
 1919 668 l 1,133,-1
 2030 668 l 1,134,-1
 2030 416 l 1,131,-1
2030 794 m 1,135,-1
 1919 794 l 1,136,-1
 1919 1044 l 1,137,-1
 2030 1044 l 1,138,-1
 2030 794 l 1,135,-1
2030 41 m 1,139,-1
 1919 41 l 1,140,-1
 1919 290 l 1,141,-1
 2030 290 l 1,142,-1
 2030 41 l 1,139,-1
EndSplineSet
Validated: 1
EndChar

StartChar: uniFFFD
Encoding: 65533 65533 114
Width: 2101
Flags: W
LayerCount: 2
Fore
SplineSet
1048 1618 m 1,0,-1
 2007 643 l 1,1,-1
 1048 -332 l 1,2,-1
 92 643 l 1,3,-1
 1048 1618 l 1,0,-1
1131 402 m 1,4,5
 1131 460 1131 460 1146 489 c 128,-1,6
 1161 518 1161 518 1197 542 c 1,7,8
 1271 581 1271 581 1317 648.5 c 128,-1,9
 1363 716 1363 716 1363 790 c 0,10,11
 1363 918 1363 918 1279.5 993.5 c 128,-1,12
 1196 1069 1196 1069 1047 1069 c 0,13,14
 903 1069 903 1069 823 999.5 c 128,-1,15
 743 930 743 930 741 803 c 1,16,-1
 944 803 l 1,17,18
 946 854 946 854 975 880 c 128,-1,19
 1004 906 1004 906 1047 906 c 0,20,21
 1104 906 1104 906 1132 874 c 128,-1,22
 1160 842 1160 842 1160 790 c 0,23,24
 1160 695 1160 695 1067 635 c 1,25,26
 976 570 976 570 952.5 524 c 128,-1,27
 929 478 929 478 929 402 c 1,28,-1
 1131 402 l 1,4,5
1131 311 m 1,29,-1
 929 311 l 1,30,-1
 929 141 l 1,31,-1
 1131 141 l 1,32,-1
 1131 311 l 1,29,-1
1056 -551 m 1,33,-1
 1060 -551 l 1,34,-1
 1060 -555 l 1,35,-1
 1056 -555 l 1,36,-1
 1056 -551 l 1,33,-1
1054 2163 m 1,37,-1
 1058 2163 l 1,38,-1
 1058 2159 l 1,39,-1
 1054 2159 l 1,40,-1
 1054 2163 l 1,37,-1
EndSplineSet
Validated: 1
EndChar

StartChar: zero.dnom
Encoding: 1114120 -1 115
Width: 751
Flags: W
LayerCount: 2
Fore
SplineSet
669 325 m 2,0,1
 669 163 669 163 593 76 c 128,-1,2
 517 -11 517 -11 376 -11 c 0,3,4
 237 -11 237 -11 159 75 c 128,-1,5
 81 161 81 161 80 321 c 2,6,-1
 80 463 l 2,7,8
 80 626 80 626 157.5 713 c 128,-1,9
 235 800 235 800 374 800 c 0,10,11
 515 800 515 800 591 714 c 128,-1,12
 667 628 667 628 669 471 c 2,13,-1
 669 325 l 2,0,1
512 478 m 2,14,15
 512 670 512 670 374 670 c 0,16,17
 241 670 241 670 237 490 c 1,18,-1
 237 311 l 2,19,20
 237 117 237 117 376 117 c 0,21,22
 508 117 508 117 512 298 c 1,23,-1
 512 478 l 2,14,15
EndSplineSet
Validated: 1
EndChar

StartChar: dollar.c2sc
Encoding: 1114152 -1 116
Width: 1056
Flags: W
LayerCount: 2
Fore
SplineSet
803 298 m 0,0,1
 803 378 803 378 742.5 422 c 128,-1,2
 682 466 682 466 535 503 c 128,-1,3
 388 540 388 540 302 583 c 0,4,5
 107 681 107 681 107 860 c 0,6,7
 107 990 107 990 208.5 1076 c 128,-1,8
 310 1162 310 1162 476 1178 c 1,9,-1
 476 1395 l 1,10,-1
 625 1395 l 1,11,-1
 625 1176 l 1,12,13
 788 1155 788 1155 887 1058 c 128,-1,14
 986 961 986 961 986 825 c 1,15,-1
 801 825 l 1,16,17
 801 923 801 923 730.5 976.5 c 128,-1,18
 660 1030 660 1030 539 1030 c 0,19,20
 426 1030 426 1030 359 985.5 c 128,-1,21
 292 941 292 941 292 861 c 0,22,23
 292 796 292 796 353.5 752 c 128,-1,24
 415 708 415 708 571 668 c 128,-1,25
 727 628 727 628 815 577.5 c 128,-1,26
 903 527 903 527 946 459 c 128,-1,27
 989 391 989 391 989 300 c 0,28,29
 989 170 989 170 891.5 87 c 128,-1,30
 794 4 794 4 625 -12 c 1,31,-1
 625 -237 l 1,32,-1
 476 -237 l 1,33,-1
 476 -12 l 1,34,35
 290 7 290 7 178.5 104 c 128,-1,36
 67 201 67 201 67 349 c 1,37,-1
 253 349 l 1,38,39
 253 247 253 247 330 190 c 128,-1,40
 407 133 407 133 547 133 c 0,41,42
 673 133 673 133 738 178.5 c 128,-1,43
 803 224 803 224 803 298 c 0,0,1
EndSplineSet
Validated: 1
EndChar

StartChar: sterling.c2sc
Encoding: 1114153 -1 117
Width: 1075
Flags: W
LayerCount: 2
Fore
SplineSet
797 500 m 1,0,-1
 397 500 l 1,1,-1
 398 466 l 2,2,3
 403 263 403 263 347 152 c 1,4,-1
 1007 152 l 1,5,-1
 1006 0 l 1,6,-1
 114 0 l 1,7,-1
 114 152 l 1,8,-1
 124 152 l 1,9,10
 203 175 203 175 212 396 c 1,11,-1
 213 466 l 1,12,-1
 212 500 l 1,13,-1
 48 500 l 1,14,-1
 48 621 l 1,15,-1
 208 621 l 1,16,-1
 204 744 l 2,17,18
 198 945 198 945 299.5 1063 c 128,-1,19
 401 1181 401 1181 582 1181 c 0,20,21
 765 1181 765 1181 866 1079 c 128,-1,22
 967 977 967 977 967 794 c 1,23,-1
 782 794 l 1,24,25
 782 906 782 906 730 965.5 c 128,-1,26
 678 1025 678 1025 582 1025 c 0,27,28
 489 1025 489 1025 437 953.5 c 128,-1,29
 385 882 385 882 389 744 c 2,30,-1
 393 621 l 1,31,-1
 797 621 l 1,32,-1
 797 500 l 1,0,-1
EndSplineSet
Validated: 33
EndChar

StartChar: yen.c2sc
Encoding: 1114154 -1 118
Width: 929
Flags: W
LayerCount: 2
Fore
SplineSet
465 589 m 1,0,-1
 718 1165 l 1,1,-1
 914 1165 l 1,2,-1
 614 537 l 1,3,-1
 827 537 l 1,4,-1
 827 416 l 1,5,-1
 556 416 l 1,6,-1
 553 409 l 1,7,-1
 553 341 l 1,8,-1
 827 341 l 1,9,-1
 827 221 l 1,10,-1
 553 221 l 1,11,-1
 553 0 l 1,12,-1
 368 0 l 1,13,-1
 368 221 l 1,14,-1
 94 221 l 1,15,-1
 94 341 l 1,16,-1
 368 341 l 1,17,-1
 368 416 l 1,18,-1
 94 416 l 1,19,-1
 94 537 l 1,20,-1
 313 537 l 1,21,-1
 13 1165 l 1,22,-1
 212 1165 l 1,23,-1
 465 589 l 1,0,-1
EndSplineSet
Validated: 1
EndChar

StartChar: Gamma.c2sc
Encoding: 1114155 -1 119
Width: 943
GlyphClass: 2
Flags: W
LayerCount: 2
Fore
SplineSet
901 1012 m 1,0,-1
 323 1012 l 1,1,-1
 323 0 l 1,2,-1
 138 0 l 1,3,-1
 138 1165 l 1,4,-1
 901 1165 l 1,5,-1
 901 1012 l 1,0,-1
EndSplineSet
Validated: 1
EndChar

StartChar: Delta.c2sc
Encoding: 1114156 -1 120
Width: 1127
Flags: W
LayerCount: 2
Fore
SplineSet
1107 0 m 1,0,-1
 20 0 l 1,1,-1
 477 1165 l 1,2,-1
 650 1165 l 1,3,-1
 1107 0 l 1,0,-1
589 874 m 1,4,-1
 563 966 l 1,5,-1
 538 872 l 1,6,-1
 274 152 l 1,7,-1
 853 152 l 1,8,-1
 589 874 l 1,4,-1
EndSplineSet
Validated: 1
EndChar

StartChar: Theta.c2sc
Encoding: 1114157 -1 121
Width: 1211
Flags: W
LayerCount: 2
Fore
SplineSet
853 505 m 1,0,-1
 372 505 l 1,1,-1
 372 658 l 1,2,-1
 853 658 l 1,3,-1
 853 505 l 1,0,-1
1114 548 m 2,4,5
 1114 287 1114 287 976 135.5 c 128,-1,6
 838 -16 838 -16 606 -16 c 0,7,8
 377 -16 377 -16 236.5 137 c 128,-1,9
 96 290 96 290 96 553 c 2,10,-1
 96 615 l 2,11,12
 96 873 96 873 235.5 1027 c 128,-1,13
 375 1181 375 1181 604 1181 c 0,14,15
 837 1181 837 1181 974.5 1029 c 128,-1,16
 1112 877 1112 877 1114 622 c 2,17,-1
 1114 548 l 2,4,5
931 617 m 2,18,19
 931 815 931 815 845 920 c 128,-1,20
 759 1025 759 1025 604 1025 c 0,21,22
 454 1025 454 1025 366.5 918 c 128,-1,23
 279 811 279 811 279 614 c 2,24,-1
 279 548 l 2,25,26
 279 353 279 353 367 245.5 c 128,-1,27
 455 138 455 138 606 138 c 0,28,29
 762 138 762 138 846.5 243.5 c 128,-1,30
 931 349 931 349 931 548 c 2,31,-1
 931 617 l 2,18,19
EndSplineSet
Validated: 1
EndChar

StartChar: Pi.c2sc
Encoding: 1114160 -1 122
Width: 1230
Flags: W
LayerCount: 2
Fore
SplineSet
1092 0 m 1,0,-1
 906 0 l 1,1,-1
 906 1012 l 1,2,-1
 323 1012 l 1,3,-1
 323 0 l 1,4,-1
 138 0 l 1,5,-1
 138 1165 l 1,6,-1
 1092 1165 l 1,7,-1
 1092 0 l 1,0,-1
EndSplineSet
Validated: 1
EndChar

StartChar: Sigma.c2sc
Encoding: 1114161 -1 123
Width: 1007
Flags: W
LayerCount: 2
Fore
SplineSet
623 570 m 1,0,-1
 293 153 l 1,1,-1
 968 153 l 1,2,-1
 968 0 l 1,3,-1
 63 0 l 1,4,-1
 63 144 l 1,5,-1
 400 583 l 1,6,-1
 63 1021 l 1,7,-1
 63 1165 l 1,8,-1
 918 1165 l 1,9,-1
 918 1012 l 1,10,-1
 293 1012 l 1,11,-1
 623 595 l 1,12,-1
 623 570 l 1,0,-1
EndSplineSet
Validated: 1
EndChar

StartChar: Phi.c2sc
Encoding: 1114162 -1 124
Width: 1383
Flags: W
LayerCount: 2
Fore
SplineSet
784 1046 m 1,0,1
 1014 1033 1014 1033 1150 908 c 128,-1,2
 1286 783 1286 783 1286 580 c 0,3,4
 1286 375 1286 375 1148.5 249 c 128,-1,5
 1011 123 1011 123 784 110 c 1,6,-1
 784 0 l 1,7,-1
 599 0 l 1,8,-1
 599 110 l 1,9,10
 365 123 365 123 230.5 249.5 c 128,-1,11
 96 376 96 376 96 578 c 0,12,13
 96 782 96 782 232 908 c 128,-1,14
 368 1034 368 1034 599 1047 c 1,15,-1
 599 1165 l 1,16,-1
 784 1165 l 1,17,-1
 784 1046 l 1,0,1
280 578 m 0,18,19
 280 282 280 282 599 265 c 1,20,-1
 599 891 l 1,21,22
 445 882 445 882 362.5 807 c 128,-1,23
 280 732 280 732 280 578 c 0,18,19
1102 580 m 0,24,25
 1102 733 1102 733 1019 807.5 c 128,-1,26
 936 882 936 882 784 891 c 1,27,-1
 784 265 l 1,28,29
 936 275 936 275 1019 350 c 128,-1,30
 1102 425 1102 425 1102 580 c 0,24,25
EndSplineSet
Validated: 1
EndChar

StartChar: Psi.c2sc
Encoding: 1114163 -1 125
Width: 1303
Flags: W
LayerCount: 2
Fore
SplineSet
744 443 m 1,0,1
 1021 494 1021 494 1021 857 c 2,2,-1
 1021 1165 l 1,3,-1
 1206 1165 l 1,4,-1
 1206 842 l 2,5,6
 1203 599 1203 599 1082 456 c 128,-1,7
 961 313 961 313 744 289 c 1,8,-1
 744 0 l 1,9,-1
 558 0 l 1,10,-1
 558 287 l 1,11,12
 341 307 341 307 221 449.5 c 128,-1,13
 101 592 101 592 96 834 c 1,14,-1
 96 1165 l 1,15,-1
 282 1165 l 1,16,-1
 282 856 l 2,17,18
 282 486 282 486 558 441 c 1,19,-1
 558 1165 l 1,20,-1
 744 1165 l 1,21,-1
 744 443 l 1,0,1
EndSplineSet
Validated: 1
EndChar

StartChar: Omega.c2sc
Encoding: 1114164 -1 126
Width: 1266
GlyphClass: 2
Flags: W
LayerCount: 2
Fore
SplineSet
699 157 m 1,0,1
 835 188 835 188 898.5 299.5 c 128,-1,2
 962 411 962 411 962 616 c 2,3,-1
 962 654 l 2,4,5
 962 833 962 833 875 929 c 128,-1,6
 788 1025 788 1025 631 1025 c 0,7,8
 475 1025 475 1025 389 928.5 c 128,-1,9
 303 832 303 832 303 649 c 2,10,-1
 303 616 l 2,11,12
 303 412 303 412 373.5 300.5 c 128,-1,13
 444 189 444 189 571 157 c 1,14,-1
 571 0 l 1,15,-1
 121 0 l 1,16,-1
 121 151 l 1,17,-1
 296 151 l 1,18,19
 117 308 117 308 117 622 c 2,20,-1
 117 652 l 2,21,22
 117 890 117 890 258.5 1035.5 c 128,-1,23
 400 1181 400 1181 631 1181 c 0,24,25
 863 1181 863 1181 1005 1035 c 128,-1,26
 1147 889 1147 889 1147 644 c 2,27,-1
 1147 616 l 2,28,29
 1147 307 1147 307 969 151 c 1,30,-1
 1150 151 l 1,31,-1
 1150 0 l 1,32,-1
 699 0 l 1,33,-1
 699 157 l 1,0,1
EndSplineSet
Validated: 1
EndChar

StartChar: uni0402.c2sc
Encoding: 1114165 -1 127
Width: 1394
Flags: W
LayerCount: 2
Fore
SplineSet
394 1012 m 1,0,-1
 38 1012 l 1,1,-1
 38 1165 l 1,2,-1
 943 1165 l 1,3,-1
 943 1012 l 1,4,-1
 579 1012 l 1,5,-1
 579 715 l 1,6,7
 730 764 730 764 886 764 c 0,8,9
 1098 764 1098 764 1211 660 c 128,-1,10
 1324 556 1324 556 1324 360 c 0,11,12
 1324 170 1324 170 1209.5 75 c 128,-1,13
 1095 -20 1095 -20 871 -20 c 1,14,-1
 871 131 l 1,15,16
 1012 131 1012 131 1075.5 185.5 c 128,-1,17
 1139 240 1139 240 1139 360 c 0,18,19
 1139 491 1139 491 1076.5 551.5 c 128,-1,20
 1014 612 1014 612 886 612 c 0,21,22
 729 612 729 612 579 562 c 1,23,-1
 579 0 l 1,24,-1
 394 0 l 1,25,-1
 394 1012 l 1,0,-1
EndSplineSet
Validated: 1
EndChar

StartChar: uni0409.c2sc
Encoding: 1114167 -1 128
Width: 1857
Flags: W
LayerCount: 2
Fore
SplineSet
1787 366 m 0,0,1
 1787 201 1787 201 1672 101.5 c 128,-1,2
 1557 2 1557 2 1362 0 c 2,3,-1
 893 0 l 1,4,-1
 893 1012 l 1,5,-1
 475 1012 l 1,6,-1
 460 601 l 2,7,8
 449 364 449 364 410.5 241 c 128,-1,9
 372 118 372 118 296.5 59.5 c 128,-1,10
 221 1 221 1 98 0 c 2,11,-1
 39 0 l 1,12,-1
 43 165 l 1,13,-1
 89 166 l 2,14,15
 185 170 185 170 225.5 265 c 128,-1,16
 266 360 266 360 276 625 c 2,17,-1
 296 1165 l 1,18,-1
 1078 1165 l 1,19,-1
 1078 727 l 1,20,-1
 1370 727 l 1,21,22
 1563 723 1563 723 1675 626.5 c 128,-1,23
 1787 530 1787 530 1787 366 c 0,0,1
1078 575 m 1,24,-1
 1078 152 l 1,25,-1
 1355 152 l 2,26,27
 1469 152 1469 152 1535 210.5 c 128,-1,28
 1601 269 1601 269 1601 368 c 0,29,30
 1601 463 1601 463 1535.5 519 c 128,-1,31
 1470 575 1470 575 1355 575 c 2,32,-1
 1078 575 l 1,24,-1
EndSplineSet
Validated: 1
EndChar

StartChar: uni040A.c2sc
Encoding: 1114168 -1 129
Width: 1871
Flags: W
LayerCount: 2
Fore
SplineSet
323 650 m 1,0,-1
 907 650 l 1,1,-1
 907 1165 l 1,2,-1
 1092 1165 l 1,3,-1
 1092 727 l 1,4,-1
 1384 727 l 1,5,6
 1577 723 1577 723 1689 626.5 c 128,-1,7
 1801 530 1801 530 1801 366 c 0,8,9
 1801 201 1801 201 1686 101.5 c 128,-1,10
 1571 2 1571 2 1376 0 c 2,11,-1
 907 0 l 1,12,-1
 907 498 l 1,13,-1
 323 498 l 1,14,-1
 323 0 l 1,15,-1
 138 0 l 1,16,-1
 138 1165 l 1,17,-1
 323 1165 l 1,18,-1
 323 650 l 1,0,-1
1092 575 m 1,19,-1
 1092 152 l 1,20,-1
 1369 152 l 2,21,22
 1484 152 1484 152 1550 211.5 c 128,-1,23
 1616 271 1616 271 1616 368 c 0,24,25
 1616 459 1616 459 1553.5 515.5 c 128,-1,26
 1491 572 1491 572 1381 575 c 2,27,-1
 1092 575 l 1,19,-1
EndSplineSet
Validated: 1
EndChar

StartChar: uni040B.c2sc
Encoding: 1114169 -1 130
Width: 1396
Flags: W
LayerCount: 2
Fore
SplineSet
395 1012 m 1,0,-1
 40 1012 l 1,1,-1
 40 1165 l 1,2,-1
 945 1165 l 1,3,-1
 945 1012 l 1,4,-1
 581 1012 l 1,5,-1
 581 715 l 1,6,7
 728 764 728 764 888 764 c 0,8,9
 1100 764 1100 764 1211 663 c 128,-1,10
 1322 562 1322 562 1326 369 c 1,11,-1
 1326 0 l 1,12,-1
 1140 0 l 1,13,-1
 1140 356 l 2,14,15
 1140 491 1140 491 1077.5 551.5 c 128,-1,16
 1015 612 1015 612 888 612 c 0,17,18
 731 612 731 612 581 562 c 1,19,-1
 581 0 l 1,20,-1
 395 0 l 1,21,-1
 395 1012 l 1,0,-1
EndSplineSet
Validated: 1
EndChar

StartChar: uni040F.c2sc
Encoding: 1114170 -1 131
Width: 1229
Flags: W
LayerCount: 2
Fore
SplineSet
1091 0 m 1,0,-1
 708 0 l 1,1,-1
 708 -357 l 1,2,-1
 523 -357 l 1,3,-1
 523 0 l 1,4,-1
 138 0 l 1,5,-1
 138 1165 l 1,6,-1
 323 1165 l 1,7,-1
 323 152 l 1,8,-1
 906 152 l 1,9,-1
 906 1165 l 1,10,-1
 1091 1165 l 1,11,-1
 1091 0 l 1,0,-1
EndSplineSet
Validated: 1
EndChar

StartChar: uni0411.c2sc
Encoding: 1114171 -1 132
Width: 1113
Flags: W
LayerCount: 2
Fore
SplineSet
917 1015 m 1,0,-1
 323 1015 l 1,1,-1
 323 727 l 1,2,-1
 596 727 l 2,3,4
 802 727 802 727 917 629 c 128,-1,5
 1032 531 1032 531 1032 366 c 0,6,7
 1032 202 1032 202 918 102 c 128,-1,8
 804 2 804 2 607 0 c 2,9,-1
 138 0 l 1,10,-1
 138 1165 l 1,11,-1
 917 1165 l 1,12,-1
 917 1015 l 1,0,-1
600 152 m 2,13,14
 715 152 715 152 781 211.5 c 128,-1,15
 847 271 847 271 847 368 c 0,16,17
 847 459 847 459 784.5 515.5 c 128,-1,18
 722 572 722 572 612 575 c 2,19,-1
 323 575 l 1,20,-1
 323 152 l 1,21,-1
 600 152 l 2,13,14
EndSplineSet
Validated: 1
EndChar

StartChar: uni0414.c2sc
Encoding: 1114172 -1 133
Width: 1316
Flags: W
LayerCount: 2
Fore
SplineSet
133 152 m 1,0,-1
 174 201 l 2,1,2
 245 287 245 287 280.5 413.5 c 128,-1,3
 316 540 316 540 323 756 c 2,4,-1
 337 1165 l 1,5,-1
 1112 1165 l 1,6,-1
 1112 152 l 1,7,-1
 1255 152 l 1,8,-1
 1255 -340 l 1,9,-1
 1070 -340 l 1,10,-1
 1070 0 l 1,11,-1
 232 0 l 1,12,-1
 232 -339 l 1,13,-1
 46 -339 l 1,14,-1
 47 152 l 1,15,-1
 133 152 l 1,0,-1
349 152 m 1,16,-1
 927 152 l 1,17,-1
 927 1012 l 1,18,-1
 515 1012 l 1,19,-1
 503 700 l 2,20,21
 486 341 486 341 349 152 c 1,16,-1
EndSplineSet
Validated: 1
EndChar

StartChar: uni0416.c2sc
Encoding: 1114173 -1 134
Width: 1547
GlyphClass: 2
Flags: W
LayerCount: 2
Fore
SplineSet
965 502 m 1,0,-1
 866 502 l 1,1,-1
 866 0 l 1,2,-1
 680 0 l 1,3,-1
 680 502 l 1,4,-1
 580 502 l 1,5,-1
 265 0 l 1,6,-1
 31 0 l 1,7,-1
 421 593 l 1,8,-1
 67 1165 l 1,9,-1
 291 1165 l 1,10,-1
 591 656 l 1,11,-1
 680 656 l 1,12,-1
 680 1165 l 1,13,-1
 866 1165 l 1,14,-1
 866 656 l 1,15,-1
 955 656 l 1,16,-1
 1255 1165 l 1,17,-1
 1479 1165 l 1,18,-1
 1123 602 l 1,19,-1
 1515 0 l 1,20,-1
 1281 0 l 1,21,-1
 965 502 l 1,0,-1
EndSplineSet
Validated: 1
EndChar

StartChar: uni0417.c2sc
Encoding: 1114174 -1 135
Width: 1087
GlyphClass: 2
Flags: W
LayerCount: 2
Fore
SplineSet
776 848 m 0,0,1
 776 932 776 932 707 978.5 c 128,-1,2
 638 1025 638 1025 513 1025 c 0,3,4
 403 1025 403 1025 338.5 981 c 128,-1,5
 274 937 274 937 274 858 c 1,6,-1
 88 858 l 1,7,8
 88 1000 88 1000 206.5 1090.5 c 128,-1,9
 325 1181 325 1181 513 1181 c 0,10,11
 724 1181 724 1181 843 1097 c 128,-1,12
 962 1013 962 1013 962 863 c 0,13,14
 962 777 962 777 907 706.5 c 128,-1,15
 852 636 852 636 749 595 c 1,16,17
 867 559 867 559 923.5 486 c 128,-1,18
 980 413 980 413 980 322 c 0,19,20
 980 164 980 164 853 74 c 128,-1,21
 726 -16 726 -16 513 -16 c 0,22,23
 422 -16 422 -16 337.5 6 c 128,-1,24
 253 28 253 28 192 74 c 0,25,26
 71 163 71 163 71 320 c 1,27,-1
 256 320 l 1,28,29
 261 234 261 234 326.5 186 c 128,-1,30
 392 138 392 138 513 138 c 0,31,32
 649 138 649 138 722 186 c 128,-1,33
 795 234 795 234 795 322 c 0,34,35
 795 515 795 515 538 520 c 1,36,-1
 381 520 l 1,37,-1
 381 672 l 1,38,-1
 537 672 l 1,39,40
 776 677 776 677 776 848 c 0,0,1
EndSplineSet
Validated: 1
EndChar

StartChar: uni0418.c2sc
Encoding: 1114175 -1 136
Width: 1260
GlyphClass: 2
Flags: W
LayerCount: 2
Fore
SplineSet
936 1165 m 1,0,-1
 1121 1165 l 1,1,-1
 1121 0 l 1,2,-1
 936 0 l 1,3,-1
 936 884 l 1,4,-1
 323 0 l 1,5,-1
 138 0 l 1,6,-1
 138 1165 l 1,7,-1
 323 1165 l 1,8,-1
 323 281 l 1,9,-1
 936 1165 l 1,0,-1
EndSplineSet
Validated: 1
EndChar

StartChar: uni041A.c2sc
Encoding: 1114176 -1 137
Width: 1102
Flags: W
LayerCount: 2
Fore
SplineSet
430 502 m 1,0,-1
 324 502 l 1,1,-1
 324 0 l 1,2,-1
 139 0 l 1,3,-1
 139 1165 l 1,4,-1
 324 1165 l 1,5,-1
 324 656 l 1,6,-1
 424 656 l 1,7,-1
 813 1165 l 1,8,-1
 1036 1165 l 1,9,-1
 577 594 l 1,10,-1
 1068 0 l 1,11,-1
 829 0 l 1,12,-1
 430 502 l 1,0,-1
EndSplineSet
Validated: 1
EndChar

StartChar: uni041B.c2sc
Encoding: 1114177 -1 138
Width: 1217
GlyphClass: 2
Flags: W
LayerCount: 2
Fore
SplineSet
1078 1165 m 1,0,-1
 1078 0 l 1,1,-1
 893 0 l 1,2,-1
 893 1012 l 1,3,-1
 475 1012 l 1,4,-1
 460 630 l 2,5,6
 447 288 447 288 365 146.5 c 128,-1,7
 283 5 283 5 107 0 c 1,8,-1
 39 0 l 1,9,-1
 43 165 l 1,10,-1
 84 168 l 2,11,12
 178 175 178 175 218 254 c 128,-1,13
 258 333 258 333 271 559 c 2,14,-1
 296 1165 l 1,15,-1
 1078 1165 l 1,0,-1
EndSplineSet
Validated: 1
EndChar

StartChar: uni0423.c2sc
Encoding: 1114178 -1 139
Width: 1055
GlyphClass: 2
Flags: W
LayerCount: 2
Fore
SplineSet
501 560 m 1,0,-1
 546 440 l 1,1,-1
 822 1165 l 1,2,-1
 1035 1165 l 1,3,-1
 617 210 l 1,4,-1
 580 137 l 1,5,6
 500 -8 500 -8 330 -19 c 1,7,-1
 292 -20 l 2,8,9
 212 -20 212 -20 192 -12 c 1,10,-1
 198 135 l 1,11,-1
 290 130 l 2,12,13
 339 130 339 130 375.5 154.5 c 128,-1,14
 412 179 412 179 444 238 c 1,15,-1
 34 1165 l 1,16,-1
 248 1165 l 1,17,-1
 501 560 l 1,0,-1
EndSplineSet
Validated: 1
EndChar

StartChar: uni0426.c2sc
Encoding: 1114179 -1 140
Width: 1320
Flags: W
LayerCount: 2
Fore
SplineSet
1092 152 m 1,0,-1
 1265 152 l 1,1,-1
 1247 -340 l 1,2,-1
 1082 -340 l 1,3,-1
 1082 0 l 1,4,-1
 138 0 l 1,5,-1
 138 1165 l 1,6,-1
 323 1165 l 1,7,-1
 323 152 l 1,8,-1
 906 152 l 1,9,-1
 906 1165 l 1,10,-1
 1092 1165 l 1,11,-1
 1092 152 l 1,0,-1
EndSplineSet
Validated: 1
EndChar

StartChar: uni0427.c2sc
Encoding: 1114180 -1 141
Width: 1130
GlyphClass: 2
Flags: W
LayerCount: 2
Fore
SplineSet
991 0 m 1,0,-1
 806 0 l 1,1,-1
 806 450 l 1,2,3
 662 402 662 402 499 402 c 0,4,5
 287 402 287 402 176 503 c 128,-1,6
 65 604 65 604 61 797 c 1,7,-1
 61 1165 l 1,8,-1
 246 1165 l 1,9,-1
 246 810 l 2,10,11
 246 675 246 675 309 614.5 c 128,-1,12
 372 554 372 554 499 554 c 0,13,14
 656 554 656 554 806 604 c 1,15,-1
 806 1165 l 1,16,-1
 991 1165 l 1,17,-1
 991 0 l 1,0,-1
EndSplineSet
Validated: 1
EndChar

StartChar: uni0428.c2sc
Encoding: 1114181 -1 142
Width: 1617
Flags: W
LayerCount: 2
Fore
SplineSet
1478 0 m 1,0,-1
 138 0 l 1,1,-1
 138 1165 l 1,2,-1
 323 1165 l 1,3,-1
 323 152 l 1,4,-1
 715 152 l 1,5,-1
 715 1165 l 1,6,-1
 901 1165 l 1,7,-1
 901 152 l 1,8,-1
 1293 152 l 1,9,-1
 1293 1165 l 1,10,-1
 1478 1165 l 1,11,-1
 1478 0 l 1,0,-1
EndSplineSet
Validated: 1
EndChar

StartChar: lira.c2sc
Encoding: 1114204 -1 143
Width: 1075
Flags: W
LayerCount: 2
Fore
SplineSet
391 680 m 1,0,-1
 797 680 l 1,1,-1
 797 559 l 1,2,-1
 395 559 l 1,3,-1
 398 466 l 1,4,-1
 398 450 l 1,5,-1
 797 450 l 1,6,-1
 797 329 l 1,7,-1
 393 329 l 1,8,9
 383 223 383 223 347 152 c 1,10,-1
 1007 152 l 1,11,-1
 1006 0 l 1,12,-1
 114 0 l 1,13,-1
 114 152 l 1,14,-1
 124 152 l 1,15,16
 187 170 187 170 207 329 c 1,17,-1
 48 329 l 1,18,-1
 48 450 l 1,19,-1
 213 450 l 1,20,-1
 213 466 l 1,21,-1
 210 559 l 1,22,-1
 48 559 l 1,23,-1
 48 680 l 1,24,-1
 206 680 l 1,25,-1
 204 744 l 2,26,27
 198 945 198 945 299.5 1063 c 128,-1,28
 401 1181 401 1181 582 1181 c 0,29,30
 765 1181 765 1181 866 1079 c 128,-1,31
 967 977 967 977 967 794 c 1,32,-1
 782 794 l 1,33,34
 782 906 782 906 730 965.5 c 128,-1,35
 678 1025 678 1025 582 1025 c 0,36,37
 489 1025 489 1025 437 953.5 c 128,-1,38
 385 882 385 882 389 744 c 2,39,-1
 391 680 l 1,0,-1
EndSplineSet
Validated: 33
EndChar

StartChar: Euro.c2sc
Encoding: 1114205 -1 144
Width: 995
Flags: W
LayerCount: 2
Fore
SplineSet
815 406 m 1,0,-1
 407 406 l 1,1,2
 439 135 439 135 697 135 c 0,3,4
 795 135 795 135 899 163 c 1,5,-1
 926 14 l 1,6,7
 808 -16 808 -16 697 -16 c 0,8,9
 486 -16 486 -16 363.5 93 c 128,-1,10
 241 202 241 202 221 406 c 1,11,-1
 66 406 l 1,12,-1
 66 527 l 1,13,-1
 217 527 l 1,14,-1
 217 636 l 1,15,-1
 66 636 l 1,16,-1
 66 757 l 1,17,-1
 221 757 l 1,18,19
 243 961 243 961 365.5 1071 c 128,-1,20
 488 1181 488 1181 695 1181 c 0,21,22
 791 1181 791 1181 926 1150 c 1,23,-1
 905 1001 l 1,24,25
 816 1029 816 1029 695 1029 c 0,26,27
 439 1029 439 1029 407 757 c 1,28,-1
 815 757 l 1,29,-1
 815 636 l 1,30,-1
 403 636 l 1,31,-1
 403 527 l 1,32,-1
 815 527 l 1,33,-1
 815 406 l 1,0,-1
EndSplineSet
Validated: 1
EndChar

StartChar: uni2116.c2sc
Encoding: 1114206 -1 145
Width: 2082
Flags: W
LayerCount: 2
Fore
SplineSet
1902 189 m 1,0,-1
 1345 189 l 1,1,-1
 1345 331 l 1,2,-1
 1902 331 l 1,3,-1
 1902 189 l 1,0,-1
1280 846 m 2,4,5
 1280 995 1280 995 1374 1088 c 128,-1,6
 1468 1181 1468 1181 1622 1181 c 128,-1,7
 1776 1181 1776 1181 1870.5 1089 c 128,-1,8
 1965 997 1965 997 1965 842 c 2,9,-1
 1965 762 l 2,10,11
 1965 610 1965 610 1870 519 c 128,-1,12
 1775 428 1775 428 1624 428 c 0,13,14
 1471 428 1471 428 1375.5 519.5 c 128,-1,15
 1280 611 1280 611 1280 767 c 2,16,-1
 1280 846 l 2,4,5
1443 762 m 2,17,18
 1443 673 1443 673 1490 620 c 128,-1,19
 1537 567 1537 567 1624 567 c 0,20,21
 1708 567 1708 567 1755 619.5 c 128,-1,22
 1802 672 1802 672 1802 764 c 2,23,-1
 1802 846 l 2,24,25
 1802 936 1802 936 1753.5 988 c 128,-1,26
 1705 1040 1705 1040 1622 1040 c 0,27,28
 1540 1040 1540 1040 1491.5 988.5 c 128,-1,29
 1443 937 1443 937 1443 843 c 2,30,-1
 1443 762 l 2,17,18
1112 0 m 1,31,-1
 928 0 l 1,32,-1
 323 876 l 1,33,-1
 323 0 l 1,34,-1
 138 0 l 1,35,-1
 138 1165 l 1,36,-1
 323 1165 l 1,37,-1
 928 288 l 1,38,-1
 928 1165 l 1,39,-1
 1112 1165 l 1,40,-1
 1112 0 l 1,31,-1
EndSplineSet
Validated: 1
EndChar

StartChar: uni20BD.c2sc
Encoding: 1114207 -1 146
Width: 1195
Flags: W
LayerCount: 2
Fore
SplineSet
676 180 m 1,0,-1
 418 180 l 1,1,-1
 418 0 l 1,2,-1
 232 0 l 1,3,-1
 232 180 l 1,4,-1
 40 180 l 1,5,-1
 40 332 l 1,6,-1
 232 332 l 1,7,-1
 232 421 l 1,8,-1
 40 421 l 1,9,-1
 40 573 l 1,10,-1
 232 573 l 1,11,-1
 232 1165 l 1,12,-1
 695 1165 l 2,13,14
 892 1165 892 1165 1009 1063 c 128,-1,15
 1126 961 1126 961 1126 793 c 0,16,17
 1126 628 1126 628 1012.5 526.5 c 128,-1,18
 899 425 899 425 709 421 c 1,19,-1
 418 421 l 1,20,-1
 418 332 l 1,21,-1
 676 332 l 1,22,-1
 676 180 l 1,0,-1
418 573 m 1,23,-1
 695 573 l 2,24,25
 809 573 809 573 874.5 633 c 128,-1,26
 940 693 940 693 940 791 c 0,27,28
 940 891 940 891 874 952 c 128,-1,29
 808 1013 808 1013 696 1013 c 2,30,-1
 418 1013 l 1,31,-1
 418 573 l 1,23,-1
EndSplineSet
Validated: 1
EndChar

StartChar: three.dnom
Encoding: 1114208 -1 147
Width: 751
Flags: W
LayerCount: 2
Fore
SplineSet
265 459 m 1,0,-1
 349 459 l 2,1,2
 423 459 423 459 459 489.5 c 128,-1,3
 495 520 495 520 495 568 c 0,4,5
 495 613 495 613 463.5 642 c 128,-1,6
 432 671 432 671 362 671 c 0,7,8
 305 671 305 671 267.5 645.5 c 128,-1,9
 230 620 230 620 230 579 c 1,10,-1
 73 579 l 1,11,12
 73 677 73 677 154.5 738.5 c 128,-1,13
 236 800 236 800 360 800 c 0,14,15
 497 800 497 800 575 739.5 c 128,-1,16
 653 679 653 679 653 575 c 0,17,18
 653 520 653 520 618 474.5 c 128,-1,19
 583 429 583 429 517 404 c 1,20,21
 666 363 666 363 666 220 c 0,22,23
 666 114 666 114 581 51.5 c 128,-1,24
 496 -11 496 -11 360 -11 c 0,25,26
 228 -11 228 -11 145 52 c 128,-1,27
 62 115 62 115 62 222 c 1,28,-1
 220 222 l 1,29,30
 220 177 220 177 259.5 147 c 128,-1,31
 299 117 299 117 366 117 c 0,32,33
 436 117 436 117 472.5 147 c 128,-1,34
 509 177 509 177 509 228 c 0,35,36
 509 341 509 341 353 343 c 2,37,-1
 265 343 l 1,38,-1
 265 459 l 1,0,-1
EndSplineSet
Validated: 1
EndChar

StartChar: four.dnom
Encoding: 1114209 -1 148
Width: 751
Flags: W
LayerCount: 2
Fore
SplineSet
592 299 m 1,0,-1
 699 299 l 1,1,-1
 699 169 l 1,2,-1
 592 169 l 1,3,-1
 592 0 l 1,4,-1
 435 0 l 1,5,-1
 435 169 l 1,6,-1
 60 169 l 1,7,-1
 54 271 l 1,8,-1
 431 789 l 1,9,-1
 592 789 l 1,10,-1
 592 299 l 1,0,-1
212 299 m 1,11,-1
 435 299 l 1,12,-1
 435 588 l 1,13,-1
 418 560 l 1,14,-1
 212 299 l 1,11,-1
EndSplineSet
Validated: 1
EndChar

StartChar: five.dnom
Encoding: 1114210 -1 149
Width: 751
Flags: W
LayerCount: 2
Fore
SplineSet
112 387 m 1,0,-1
 162 789 l 1,1,-1
 640 789 l 1,2,-1
 640 657 l 1,3,-1
 291 657 l 1,4,-1
 269 487 l 1,5,6
 334 516 334 516 408 516 c 0,7,8
 536 516 536 516 607.5 447.5 c 128,-1,9
 679 379 679 379 679 258 c 0,10,11
 679 134 679 134 599 61.5 c 128,-1,12
 519 -11 519 -11 385 -11 c 0,13,14
 264 -11 264 -11 180.5 52 c 128,-1,15
 97 115 97 115 91 216 c 1,16,-1
 246 216 l 1,17,18
 256 117 256 117 385 117 c 0,19,20
 450 117 450 117 486 154.5 c 128,-1,21
 522 192 522 192 522 260 c 0,22,23
 522 322 522 322 483 360.5 c 128,-1,24
 444 399 444 399 370 399 c 0,25,26
 297 399 297 399 238 356 c 1,27,-1
 112 387 l 1,0,-1
EndSplineSet
Validated: 1
EndChar

StartChar: six.dnom
Encoding: 1114211 -1 150
Width: 751
Flags: W
LayerCount: 2
Fore
SplineSet
552 798 m 1,0,-1
 552 667 l 1,1,-1
 535 667 l 2,2,3
 267 665 267 665 244 446 c 1,4,5
 316 523 316 523 430 523 c 0,6,7
 548 523 548 523 615.5 450.5 c 128,-1,8
 683 378 683 378 683 259 c 0,9,10
 683 143 683 143 603.5 66 c 128,-1,11
 524 -11 524 -11 392 -11 c 0,12,13
 253 -11 253 -11 169.5 72 c 128,-1,14
 86 155 86 155 86 306 c 2,15,-1
 86 357 l 2,16,17
 86 565 86 565 197 679 c 128,-1,18
 308 793 308 793 513 798 c 1,19,-1
 552 798 l 1,0,-1
387 396 m 0,20,21
 336 396 336 396 297.5 374 c 128,-1,22
 259 352 259 352 242 320 c 1,23,-1
 242 286 l 2,24,25
 242 202 242 202 283.5 159.5 c 128,-1,26
 325 117 325 117 388 117 c 0,27,28
 449 117 449 117 488 156.5 c 128,-1,29
 527 196 527 196 527 258 c 128,-1,30
 527 320 527 320 491.5 358 c 128,-1,31
 456 396 456 396 387 396 c 0,20,21
EndSplineSet
Validated: 1
EndChar

StartChar: seven.dnom
Encoding: 1114212 -1 151
Width: 751
Flags: W
LayerCount: 2
Fore
SplineSet
677 699 m 1,0,-1
 328 0 l 1,1,-1
 162 0 l 1,2,-1
 511 659 l 1,3,-1
 58 659 l 1,4,-1
 58 789 l 1,5,-1
 677 789 l 1,6,-1
 677 699 l 1,0,-1
EndSplineSet
Validated: 1
EndChar

StartChar: eight.dnom
Encoding: 1114213 -1 152
Width: 751
Flags: W
LayerCount: 2
Fore
SplineSet
651 579 m 0,0,1
 651 461 651 461 532 406 c 1,2,3
 671 347 671 347 671 216 c 0,4,5
 671 110 671 110 591 49.5 c 128,-1,6
 511 -11 511 -11 375 -11 c 128,-1,7
 239 -11 239 -11 159 49.5 c 128,-1,8
 79 110 79 110 79 216 c 0,9,10
 79 282 79 282 116 330.5 c 128,-1,11
 153 379 153 379 217 406 c 1,12,13
 98 461 98 461 98 579 c 0,14,15
 98 682 98 682 173.5 741 c 128,-1,16
 249 800 249 800 374 800 c 0,17,18
 500 800 500 800 575.5 741 c 128,-1,19
 651 682 651 682 651 579 c 0,0,1
514 228 m 0,20,21
 514 280 514 280 475 309 c 128,-1,22
 436 338 436 338 374 338 c 0,23,24
 311 338 311 338 273.5 309 c 128,-1,25
 236 280 236 280 236 228 c 0,26,27
 236 175 236 175 274 146 c 128,-1,28
 312 117 312 117 375 117 c 128,-1,29
 438 117 438 117 476 146 c 128,-1,30
 514 175 514 175 514 228 c 0,20,21
374 671 m 0,31,32
 319 671 319 671 287.5 644.5 c 128,-1,33
 256 618 256 618 256 570 c 0,34,35
 256 524 256 524 287.5 496 c 128,-1,36
 319 468 319 468 375 468 c 128,-1,37
 431 468 431 468 462.5 496 c 128,-1,38
 494 524 494 524 494 570 c 128,-1,39
 494 616 494 616 462 643.5 c 128,-1,40
 430 671 430 671 374 671 c 0,31,32
EndSplineSet
Validated: 1
EndChar

StartChar: nine.dnom
Encoding: 1114214 -1 153
Width: 751
Flags: W
LayerCount: 2
Fore
SplineSet
502 320 m 1,0,1
 433 255 433 255 332 255 c 0,2,3
 214 255 214 255 143.5 324 c 128,-1,4
 73 393 73 393 73 519 c 0,5,6
 73 640 73 640 154.5 720 c 128,-1,7
 236 800 236 800 365 800 c 0,8,9
 502 800 502 800 580 717.5 c 128,-1,10
 658 635 658 635 661 487 c 2,11,-1
 661 426 l 2,12,13
 661 14 661 14 264 -6 c 1,14,-1
 209 -7 l 1,15,-1
 209 120 l 1,16,17
 359 120 359 120 425 169 c 128,-1,18
 491 218 491 218 502 320 c 1,0,1
368 376 m 0,19,20
 462 376 462 376 504 447 c 1,21,-1
 504 507 l 2,22,23
 504 590 504 590 464.5 630 c 128,-1,24
 425 670 425 670 365 670 c 0,25,26
 306 670 306 670 268 628 c 128,-1,27
 230 586 230 586 230 519 c 0,28,29
 230 454 230 454 267 415 c 128,-1,30
 304 376 304 376 368 376 c 0,19,20
EndSplineSet
Validated: 1
EndChar

StartChar: glyph550
Encoding: 1114215 -1 154
Width: 918
Flags: W
LayerCount: 2
Fore
SplineSet
779 651 m 1,0,-1
 143 651 l 1,1,-1
 143 802 l 1,2,-1
 779 802 l 1,3,-1
 779 651 l 1,0,-1
EndSplineSet
Validated: 1
EndChar

StartChar: glyph551
Encoding: 1114216 -1 155
Width: 693
Flags: W
LayerCount: 2
Fore
SplineSet
433 1650 m 1,0,-1
 622 1650 l 1,1,-1
 402 1466 l 1,2,-1
 288 1466 l 1,3,-1
 433 1650 l 1,0,-1
158 1251 m 0,4,5
 158 1321 158 1321 208 1369.5 c 128,-1,6
 258 1418 258 1418 330 1418 c 0,7,8
 398 1418 398 1418 447.5 1371 c 128,-1,9
 497 1324 497 1324 497 1251 c 0,10,11
 497 1180 497 1180 448.5 1134 c 128,-1,12
 400 1088 400 1088 330 1088 c 0,13,14
 258 1088 258 1088 208 1135 c 128,-1,15
 158 1182 158 1182 158 1251 c 0,4,5
243 1251 m 0,16,17
 243 1216 243 1216 268.5 1191 c 128,-1,18
 294 1166 294 1166 330 1166 c 0,19,20
 365 1166 365 1166 389 1190.5 c 128,-1,21
 413 1215 413 1215 413 1251 c 0,22,23
 413 1289 413 1289 389 1314 c 128,-1,24
 365 1339 365 1339 330 1339 c 0,25,26
 293 1339 293 1339 268 1313 c 128,-1,27
 243 1287 243 1287 243 1251 c 0,16,17
EndSplineSet
Validated: 1
EndChar

StartChar: alpha.ss02
Encoding: 1114219 -1 156
Width: 1219
Flags: W
LayerCount: 2
Fore
SplineSet
898 241 m 1,0,1
 790 -21 790 -21 520 -21 c 0,2,3
 328 -21 328 -21 214 120.5 c 128,-1,4
 100 262 100 262 100 506 c 2,5,-1
 100 521 l 2,6,7
 100 785 100 785 213 943.5 c 128,-1,8
 326 1102 326 1102 522 1102 c 0,9,10
 787 1102 787 1102 895 845 c 1,11,-1
 929 1082 l 1,12,-1
 1105 1082 l 1,13,-1
 999 540 l 1,14,-1
 1112 0 l 1,15,-1
 936 0 l 1,16,-1
 898 241 l 1,0,1
285 500 m 0,17,18
 285 325 285 325 358 227.5 c 128,-1,19
 431 130 431 130 566 130 c 0,20,21
 777 130 777 130 849 521 c 1,22,-1
 849 557 l 1,23,24
 821 747 821 747 748 848.5 c 128,-1,25
 675 950 675 950 568 950 c 0,26,27
 434 950 434 950 359.5 836.5 c 128,-1,28
 285 723 285 723 285 500 c 0,17,18
EndSplineSet
Validated: 1
EndChar

StartChar: R.ss03
Encoding: 1114220 -1 157
Width: 1356
GlyphClass: 2
Flags: W
LayerCount: 2
Fore
SplineSet
370 628 m 1,0,-1
 370 0 l 1,1,-1
 177 0 l 1,2,-1
 177 1455 l 1,3,-1
 703 1455 l 2,4,5
 943 1455 943 1455 1068.5 1350 c 128,-1,6
 1194 1245 1194 1245 1194 1041 c 0,7,8
 1194 812 1194 812 957 713 c 1,9,10
 1179 644 1179 644 1184 382 c 1,11,-1
 1184 226 l 2,12,13
 1186 85 1186 85 1251 24 c 1,14,-1
 1251 0 l 1,15,-1
 1053 0 l 1,16,17
 994 54 994 54 991 226 c 2,18,-1
 991 365 l 2,19,20
 991 485 991 485 921 556.5 c 128,-1,21
 851 628 851 628 724 628 c 2,22,-1
 370 628 l 1,0,-1
370 785 m 1,23,-1
 683 785 l 2,24,25
 845 785 845 785 923.5 847 c 128,-1,26
 1002 909 1002 909 1002 1041 c 0,27,28
 1002 1297 1002 1297 697 1297 c 2,29,-1
 370 1297 l 1,30,-1
 370 785 l 1,23,-1
EndSplineSet
Validated: 1
EndChar

StartChar: K.ss04
Encoding: 1114221 -1 158
Width: 1316
Flags: W
LayerCount: 2
Fore
SplineSet
547 654 m 1,0,-1
 370 654 l 1,1,-1
 370 0 l 1,2,-1
 178 0 l 1,3,-1
 178 1456 l 1,4,-1
 370 1456 l 1,5,-1
 370 814 l 1,6,-1
 520 814 l 1,7,-1
 1029 1456 l 1,8,-1
 1268 1456 l 1,9,-1
 712 750 l 1,10,-1
 1309 0 l 1,11,-1
 1074 0 l 1,12,-1
 547 654 l 1,0,-1
EndSplineSet
Validated: 1
EndChar

StartChar: k.ss04
Encoding: 1114222 -1 159
Width: 1043
GlyphClass: 2
Flags: W
LayerCount: 2
Fore
SplineSet
460 501 m 1,0,-1
 332 501 l 1,1,-1
 332 0 l 1,2,-1
 146 0 l 1,3,-1
 146 1536 l 1,4,-1
 332 1536 l 1,5,-1
 332 654 l 1,6,-1
 458 654 l 1,7,-1
 773 1082 l 1,8,-1
 992 1082 l 1,9,-1
 614 589 l 1,10,-1
 1044 0 l 1,11,-1
 825 0 l 1,12,-1
 460 501 l 1,0,-1
EndSplineSet
Validated: 1
EndChar

StartChar: K.ss05
Encoding: 1114223 -1 160
Width: 1341
Flags: W
LayerCount: 2
Fore
SplineSet
370 693 m 1,0,-1
 370 0 l 1,1,-1
 178 0 l 1,2,-1
 178 1456 l 1,3,-1
 370 1456 l 1,4,-1
 370 809 l 1,5,-1
 382 809 l 1,6,-1
 993 1456 l 1,7,-1
 1234 1456 l 1,8,-1
 573 747 l 1,9,-1
 1274 0 l 1,10,-1
 1037 0 l 1,11,-1
 370 693 l 1,0,-1
EndSplineSet
Validated: 1
EndChar

StartChar: k.ss05
Encoding: 1114224 -1 161
Width: 1039
Flags: W
LayerCount: 2
Fore
SplineSet
336 499 m 1,0,-1
 332 499 l 1,1,-1
 332 0 l 1,2,-1
 146 0 l 1,3,-1
 146 1560 l 1,4,-1
 332 1560 l 1,5,-1
 332 653 l 1,6,-1
 333 653 l 1,7,-1
 727 1082 l 1,8,-1
 967 1082 l 1,9,-1
 498 583 l 1,10,-1
 1009 0 l 1,11,-1
 781 0 l 1,12,-1
 336 499 l 1,0,-1
EndSplineSet
Validated: 1
EndChar

StartChar: glyph564
Encoding: 1114229 -1 162
Width: 509
Flags: W
LayerCount: 2
Fore
SplineSet
299 1595 m 1,0,-1
 406 1512 l 1,1,2
 347 1413 347 1413 344 1302 c 2,3,-1
 344 1166 l 1,4,-1
 159 1166 l 1,5,-1
 159 1296 l 2,6,7
 159 1373 159 1373 201 1459.5 c 128,-1,8
 243 1546 243 1546 299 1595 c 1,0,-1
EndSplineSet
Validated: 1
EndChar

StartChar: glyph565
Encoding: 1114230 -1 163
Width: 932
Flags: W
LayerCount: 2
Fore
SplineSet
736 1456 m 1,0,1
 736 1361 736 1361 652 1304 c 128,-1,2
 568 1247 568 1247 433 1247 c 0,3,4
 297 1247 297 1247 213 1304 c 128,-1,5
 129 1361 129 1361 129 1456 c 1,6,-1
 281 1456 l 1,7,8
 281 1401 281 1401 320.5 1370.5 c 128,-1,9
 360 1340 360 1340 433 1340 c 0,10,11
 504 1340 504 1340 543.5 1371.5 c 128,-1,12
 583 1403 583 1403 583 1456 c 1,13,-1
 736 1456 l 1,0,1
237 1674 m 1,14,-1
 391 1674 l 1,15,-1
 503 1476 l 1,16,-1
 402 1476 l 1,17,-1
 237 1674 l 1,14,-1
EndSplineSet
Validated: 1
EndChar

StartChar: glyph566
Encoding: 1114231 -1 164
Width: 0
Flags: W
LayerCount: 2
Fore
SplineSet
-308 1405 m 1,0,1
 -308 1331 -308 1331 -356 1278.5 c 128,-1,2
 -404 1226 -404 1226 -474 1226 c 0,3,4
 -527 1226 -527 1226 -583.5 1259 c 128,-1,5
 -640 1292 -640 1292 -657 1296.5 c 128,-1,6
 -674 1301 -674 1301 -694 1301 c 0,7,8
 -729 1301 -729 1301 -752.5 1275.5 c 128,-1,9
 -776 1250 -776 1250 -776 1212 c 1,10,-1
 -860 1233 l 1,11,12
 -860 1308 -860 1308 -812 1361.5 c 128,-1,13
 -764 1415 -764 1415 -694 1415 c 0,14,15
 -647 1415 -647 1415 -582.5 1377.5 c 128,-1,16
 -518 1340 -518 1340 -474 1340 c 0,17,18
 -439 1340 -439 1340 -415 1365.5 c 128,-1,19
 -391 1391 -391 1391 -391 1429 c 1,20,-1
 -308 1405 l 1,0,1
-532 1683 m 1,21,-1
 -361 1683 l 1,22,-1
 -543 1458 l 1,23,-1
 -663 1458 l 1,24,-1
 -532 1683 l 1,21,-1
EndSplineSet
Validated: 1
EndChar

StartChar: glyph567
Encoding: 1114232 -1 165
Width: 1007
Flags: W
LayerCount: 2
Fore
SplineSet
402 1512 m 1,0,-1
 554 1512 l 1,1,-1
 844 1249 l 1,2,-1
 647 1249 l 1,3,-1
 478 1408 l 1,4,-1
 308 1249 l 1,5,-1
 110 1249 l 1,6,-1
 402 1512 l 1,0,-1
912 1685 m 1,7,-1
 1112 1685 l 1,8,-1
 911 1426 l 1,9,-1
 770 1426 l 1,10,-1
 912 1685 l 1,7,-1
EndSplineSet
Validated: 1
EndChar

StartChar: glyph568
Encoding: 1114233 -1 166
Width: 1011
Flags: W
LayerCount: 2
Fore
SplineSet
838 1231 m 1,0,-1
 641 1231 l 1,1,-1
 471 1389 l 1,2,-1
 301 1231 l 1,3,-1
 105 1231 l 1,4,-1
 395 1493 l 1,5,-1
 547 1493 l 1,6,-1
 838 1231 l 1,0,-1
178 1408 m 1,7,-1
 38 1408 l 1,8,-1
 -162 1666 l 1,9,-1
 37 1666 l 1,10,-1
 178 1408 l 1,7,-1
EndSplineSet
Validated: 1
EndChar

StartChar: glyph569
Encoding: 1114234 -1 167
Width: 1038
Flags: W
LayerCount: 2
Fore
SplineSet
838 1252 m 1,0,-1
 668 1252 l 1,1,-1
 471 1438 l 1,2,-1
 274 1252 l 1,3,-1
 105 1252 l 1,4,-1
 377 1514 l 1,5,-1
 565 1514 l 1,6,-1
 838 1252 l 1,0,-1
755 1390 m 1,7,-1
 754 1521 l 1,8,9
 819 1525 819 1525 848.5 1538 c 128,-1,10
 878 1551 878 1551 878 1584 c 0,11,12
 878 1651 878 1651 737 1651 c 1,13,-1
 742 1743 l 1,14,15
 870 1743 870 1743 937 1699 c 128,-1,16
 1004 1655 1004 1655 1004 1582 c 0,17,18
 1004 1523 1004 1523 967 1490 c 128,-1,19
 930 1457 930 1457 870 1450 c 1,20,-1
 869 1390 l 1,21,-1
 755 1390 l 1,7,-1
EndSplineSet
Validated: 1
EndChar

StartChar: glyph570
Encoding: 1114235 -1 168
Width: 1012
Flags: W
LayerCount: 2
Fore
SplineSet
838 1252 m 1,0,-1
 668 1252 l 1,1,-1
 471 1410 l 1,2,-1
 274 1252 l 1,3,-1
 105 1252 l 1,4,-1
 406 1496 l 1,5,-1
 537 1496 l 1,6,-1
 838 1252 l 1,0,-1
732 1725 m 1,7,8
 732 1663 732 1663 684 1616 c 128,-1,9
 636 1569 636 1569 571 1569 c 0,10,11
 517 1569 517 1569 462 1604.5 c 128,-1,12
 407 1640 407 1640 367 1640 c 0,13,14
 338 1640 338 1640 311 1617 c 128,-1,15
 284 1594 284 1594 284 1565 c 1,16,-1
 207 1584 l 1,17,18
 207 1647 207 1647 255 1696 c 128,-1,19
 303 1745 303 1745 367 1745 c 0,20,21
 409 1745 409 1745 471 1710 c 128,-1,22
 533 1675 533 1675 571 1675 c 0,23,24
 602 1675 602 1675 628 1697.5 c 128,-1,25
 654 1720 654 1720 654 1748 c 1,26,-1
 732 1725 l 1,7,8
EndSplineSet
Validated: 1
EndChar

StartChar: Thorn.c2sc
Encoding: 1114293 -1 169
Width: 1016
Flags: W
LayerCount: 2
Fore
SplineSet
138 1165 m 1,0,-1
 323 1165 l 1,1,-1
 323 962 l 1,2,-1
 520 962 l 1,3,4
 716 958 716 958 833.5 859.5 c 128,-1,5
 951 761 951 761 951 595 c 0,6,7
 951 426 951 426 834 331 c 128,-1,8
 717 236 717 236 503 236 c 2,9,-1
 323 236 l 1,10,-1
 323 0 l 1,11,-1
 138 0 l 1,12,-1
 138 1165 l 1,0,-1
323 810 m 1,13,-1
 323 388 l 1,14,-1
 505 388 l 2,15,16
 633 388 633 388 699 442 c 128,-1,17
 765 496 765 496 765 594 c 0,18,19
 765 690 765 690 697 749.5 c 128,-1,20
 629 809 629 809 510 810 c 2,21,-1
 323 810 l 1,13,-1
EndSplineSet
Validated: 1
EndChar

StartChar: Oslash.c2sc
Encoding: 1114294 -1 170
Width: 1211
Flags: W
LayerCount: 2
Fore
SplineSet
982 1020 m 1,0,1
 1114 867 1114 867 1114 610 c 2,2,-1
 1114 548 l 2,3,4
 1114 287 1114 287 976 135.5 c 128,-1,5
 838 -16 838 -16 606 -16 c 0,6,7
 452 -16 452 -16 336 55 c 1,8,-1
 261 -57 l 1,9,-1
 112 -57 l 1,10,-1
 239 133 l 1,11,12
 96 287 96 287 96 552 c 2,13,-1
 96 615 l 2,14,15
 96 873 96 873 235.5 1027 c 128,-1,16
 375 1181 375 1181 604 1181 c 0,17,18
 765 1181 765 1181 888 1103 c 1,19,-1
 957 1206 l 1,20,-1
 1106 1206 l 1,21,-1
 982 1020 l 1,0,1
279 548 m 2,22,23
 279 389 279 389 340 284 c 1,24,-1
 797 966 l 1,25,26
 718 1025 718 1025 604 1025 c 0,27,28
 454 1025 454 1025 366.5 918 c 128,-1,29
 279 811 279 811 279 614 c 2,30,-1
 279 548 l 2,22,23
931 617 m 2,31,32
 931 768 931 768 879 866 c 1,33,-1
 426 190 l 1,34,35
 500 138 500 138 606 138 c 0,36,37
 762 138 762 138 846.5 243.5 c 128,-1,38
 931 349 931 349 931 548 c 2,39,-1
 931 617 l 2,31,32
EndSplineSet
Validated: 1
EndChar

StartChar: Hbar.c2sc
Encoding: 1114295 -1 171
Width: 1251
Flags: W
LayerCount: 2
Fore
SplineSet
1203 847 m 1,0,-1
 1112 847 l 1,1,-1
 1112 0 l 1,2,-1
 927 0 l 1,3,-1
 927 498 l 1,4,-1
 323 498 l 1,5,-1
 323 0 l 1,6,-1
 138 0 l 1,7,-1
 138 847 l 1,8,-1
 48 847 l 1,9,-1
 48 998 l 1,10,-1
 138 998 l 1,11,-1
 138 1165 l 1,12,-1
 323 1165 l 1,13,-1
 323 998 l 1,14,-1
 927 998 l 1,15,-1
 927 1165 l 1,16,-1
 1112 1165 l 1,17,-1
 1112 998 l 1,18,-1
 1203 998 l 1,19,-1
 1203 847 l 1,0,-1
323 650 m 1,20,-1
 927 650 l 1,21,-1
 927 847 l 1,22,-1
 323 847 l 1,23,-1
 323 650 l 1,20,-1
EndSplineSet
Validated: 1
EndChar

StartChar: Eng.c2sc
Encoding: 1114296 -1 172
Width: 1251
Flags: W
LayerCount: 2
Fore
SplineSet
791 -437 m 0,0,1
 731 -437 731 -437 679 -419 c 1,2,-1
 692 -262 l 1,3,4
 727 -275 727 -275 791 -275 c 0,5,6
 927 -275 927 -275 927 -80 c 2,7,-1
 927 1 l 1,8,-1
 323 876 l 1,9,-1
 323 0 l 1,10,-1
 138 0 l 1,11,-1
 138 1165 l 1,12,-1
 323 1165 l 1,13,-1
 928 288 l 1,14,-1
 928 1165 l 1,15,-1
 1112 1165 l 1,16,-1
 1112 -89 l 2,17,18
 1112 -258 1112 -258 1027 -347.5 c 128,-1,19
 942 -437 942 -437 791 -437 c 0,0,1
EndSplineSet
Validated: 1
EndChar

StartChar: Agrave
Encoding: 192 192 173
Width: 1130
GlyphClass: 2
Flags: W
LayerCount: 2
Fore
SplineSet
796 1419 m 4,0,1
 796 1332 796 1332 734 1273.5 c 132,-1,2
 672 1215 672 1215 581 1215 c 4,3,4
 489 1215 489 1215 427.5 1274 c 132,-1,5
 366 1333 366 1333 366 1419 c 132,-1,6
 366 1505 366 1505 427.5 1566 c 132,-1,7
 489 1627 489 1627 581 1627 c 132,-1,8
 673 1627 673 1627 734.5 1566 c 132,-1,9
 796 1505 796 1505 796 1419 c 4,0,1
465 1419 m 4,10,11
 465 1372 465 1372 498.5 1338 c 132,-1,12
 532 1304 532 1304 581 1304 c 4,13,14
 629 1304 629 1304 663 1337 c 132,-1,15
 697 1370 697 1370 697 1419 c 132,-1,16
 697 1468 697 1468 663.5 1502.5 c 132,-1,17
 630 1537 630 1537 581 1537 c 4,18,19
 531 1537 531 1537 498 1502 c 132,-1,20
 465 1467 465 1467 465 1419 c 4,10,11
315 1082 m 1,21,-1
 321 946 l 1,22,23
 445 1102 445 1102 645 1102 c 0,24,25
 988 1102 988 1102 991 715 c 2,26,-1
 991 0 l 1,27,-1
 806 0 l 1,28,-1
 806 716 l 2,29,30
 805 833 805 833 752.5 889 c 128,-1,31
 700 945 700 945 589 945 c 0,32,33
 499 945 499 945 431 897 c 128,-1,34
 363 849 363 849 325 771 c 1,35,-1
 325 0 l 1,36,-1
 140 0 l 1,37,-1
 140 1082 l 1,38,-1
 315 1082 l 1,21,-1
EndSplineSet
Validated: 1
LCarets2: 1 0
Ligature2: "'ccmp' Glyph Composition/Decomposition lookup 4 subtable" A gravecomb
Substitution2: "'c2sc' Capitals to Small Capitals lookup 0 subtable" Agrave.c2sc
Position2: "'cpsp' Capital Spacing lookup 0 subtable" dx=36 dy=0 dh=72 dv=0
EndChar

StartChar: Acircumflex
Encoding: 194 194 174
Width: 1071
GlyphClass: 2
Flags: W
LayerCount: 2
Fore
SplineSet
968 1 m 1,0,-1
 133 1 l 1,1,-1
 133 152 l 1,2,-1
 968 152 l 1,3,-1
 968 1 l 1,0,-1
795 700 m 1,4,-1
 134 933 l 1,5,-1
 134 1104 l 1,6,-1
 988 764 l 1,7,-1
 988 633 l 1,8,-1
 134 291 l 1,9,-1
 134 464 l 1,10,-1
 795 700 l 1,4,-1
EndSplineSet
Validated: 1
Substitution2: "'c2sc' Capitals to Small Capitals lookup 0 subtable" Acircumflex.c2sc
Position2: "'cpsp' Capital Spacing lookup 0 subtable" dx=36 dy=0 dh=72 dv=0
EndChar

StartChar: Atilde
Encoding: 195 195 175
Width: 1072
GlyphClass: 2
Flags: W
LayerCount: 2
Fore
SplineSet
574 131 m 0,0,1
 673 131 673 131 747 191 c 128,-1,2
 821 251 821 251 829 341 c 1,3,-1
 1004 341 l 1,4,5
 999 248 999 248 940 164 c 128,-1,6
 881 80 881 80 782.5 30 c 128,-1,7
 684 -20 684 -20 574 -20 c 4,8,9
 353 -20 353 -20 222.5 127.5 c 128,-1,10
 92 275 92 275 92 531 c 2,11,-1
 92 562 l 2,12,13
 92 720 92 720 150 843 c 128,-1,14
 208 966 208 966 316.5 1034 c 128,-1,15
 425 1102 425 1102 573 1102 c 0,16,17
 755 1102 755 1102 875.5 993 c 128,-1,18
 996 884 996 884 1004 710 c 1,19,-1
 829 710 l 1,20,21
 821 815 821 815 749.5 882.5 c 128,-1,22
 678 950 678 950 573 950 c 0,23,24
 432 950 432 950 354.5 848.5 c 128,-1,25
 277 747 277 747 277 555 c 2,26,-1
 277 520 l 2,27,28
 277 333 277 333 354 232 c 128,-1,29
 431 131 431 131 574 131 c 0,0,1
604 -9 m 5,30,-1
 592 -61 l 5,31,32
 745 -88 745 -88 745 -234 c 4,33,34
 745 -331 745 -331 665 -387.5 c 132,-1,35
 585 -444 585 -444 442 -444 c 5,36,-1
 435 -337 l 5,37,38
 514 -337 514 -337 557.5 -311 c 132,-1,39
 601 -285 601 -285 601 -238 c 4,40,41
 601 -194 601 -194 569 -173 c 132,-1,42
 537 -152 537 -152 439 -143 c 5,43,-1
 471 -9 l 5,44,-1
 604 -9 l 5,30,-1
EndSplineSet
Validated: 5
LCarets2: 1 0
Ligature2: "'ccmp' Glyph Composition/Decomposition lookup 4 subtable" A tildecomb
Substitution2: "'c2sc' Capitals to Small Capitals lookup 0 subtable" Atilde.c2sc
Position2: "'cpsp' Capital Spacing lookup 0 subtable" dx=36 dy=0 dh=72 dv=0
EndChar

StartChar: Adieresis
Encoding: 196 196 176
Width: 1148
GlyphClass: 2
Flags: W
LayerCount: 2
Fore
SplineSet
1072 377 m 1,0,1
 1052 190 1052 190 926 87 c 128,-1,2
 800 -16 800 -16 591 -16 c 0,3,4
 367 -16 367 -16 231.5 131.5 c 128,-1,5
 96 279 96 279 96 538 c 2,6,-1
 96 632 l 2,7,8
 96 796 96 796 157.5 920.5 c 128,-1,9
 219 1045 219 1045 334.5 1113 c 128,-1,10
 450 1181 450 1181 602 1181 c 0,11,12
 806 1181 806 1181 929.5 1075.5 c 128,-1,13
 1053 970 1053 970 1072 783 c 1,14,-1
 887 783 l 1,15,16
 869 913 869 913 798.5 971 c 128,-1,17
 728 1029 728 1029 602 1029 c 0,18,19
 449 1029 449 1029 368 931.5 c 128,-1,20
 287 834 287 834 281 659 c 1,21,-1
 728 659 l 1,22,-1
 728 507 l 1,23,-1
 281 507 l 1,24,25
 285 329 285 329 365.5 232 c 128,-1,26
 446 135 446 135 591 135 c 0,27,28
 726 135 726 135 796.5 190.5 c 128,-1,29
 867 246 867 246 887 377 c 1,30,-1
 1072 377 l 1,0,1
EndSplineSet
Validated: 1
Substitution2: "'c2sc' Capitals to Small Capitals lookup 0 subtable" Adieresis.c2sc
Position2: "'cpsp' Capital Spacing lookup 0 subtable" dx=36 dy=0 dh=72 dv=0
EndChar

StartChar: Ecircumflex
Encoding: 202 202 177
Width: 909
GlyphClass: 2
Flags: W
LayerCount: 2
Fore
SplineSet
857.821289062 1174 m 0,0,1
 857.821289062 1087 857.821289062 1087 743.743164062 1028.5 c 128,-1,2
 629.665039062 970 629.665039062 970 462.228515625 970 c 0,3,4
 292.951171875 970 292.951171875 970 179.793945312 1029 c 128,-1,5
 66.6357421875 1088 66.6357421875 1088 66.6357421875 1174 c 128,-1,6
 66.6357421875 1260 66.6357421875 1260 179.793945312 1321 c 128,-1,7
 292.951171875 1382 292.951171875 1382 462.228515625 1382 c 128,-1,8
 631.505859375 1382 631.505859375 1382 744.663085938 1321 c 128,-1,9
 857.821289062 1260 857.821289062 1260 857.821289062 1174 c 0,0,1
248.79296875 1174 m 0,10,11
 248.79296875 1127 248.79296875 1127 310.431640625 1093 c 128,-1,12
 372.0703125 1059 372.0703125 1059 462.228515625 1059 c 0,13,14
 550.546875 1059 550.546875 1059 613.10546875 1092 c 128,-1,15
 675.6640625 1125 675.6640625 1125 675.6640625 1174 c 128,-1,16
 675.6640625 1223 675.6640625 1223 614.025390625 1257.5 c 128,-1,17
 552.38671875 1292 552.38671875 1292 462.228515625 1292 c 0,18,19
 370.23046875 1292 370.23046875 1292 309.51171875 1257 c 128,-1,20
 248.79296875 1222 248.79296875 1222 248.79296875 1174 c 0,10,11
857.821289062 782 m 0,21,22
 857.821289062 695 857.821289062 695 743.743164062 636.5 c 128,-1,23
 629.665039062 578 629.665039062 578 462.228515625 578 c 0,24,25
 292.951171875 578 292.951171875 578 179.793945312 637 c 128,-1,26
 66.6357421875 696 66.6357421875 696 66.6357421875 782 c 128,-1,27
 66.6357421875 868 66.6357421875 868 179.793945312 929 c 128,-1,28
 292.951171875 990 292.951171875 990 462.228515625 990 c 128,-1,29
 631.505859375 990 631.505859375 990 744.663085938 929 c 128,-1,30
 857.821289062 868 857.821289062 868 857.821289062 782 c 0,21,22
248.79296875 782 m 0,31,32
 248.79296875 735 248.79296875 735 310.431640625 701 c 128,-1,33
 372.0703125 667 372.0703125 667 462.228515625 667 c 0,34,35
 550.546875 667 550.546875 667 613.10546875 700 c 128,-1,36
 675.6640625 733 675.6640625 733 675.6640625 782 c 128,-1,37
 675.6640625 831 675.6640625 831 614.025390625 865.5 c 128,-1,38
 552.38671875 900 552.38671875 900 462.228515625 900 c 0,39,40
 370.23046875 900 370.23046875 900 309.51171875 865 c 128,-1,41
 248.79296875 830 248.79296875 830 248.79296875 782 c 0,31,32
857.821289062 389 m 0,42,43
 857.821289062 302 857.821289062 302 743.743164062 243.5 c 128,-1,44
 629.665039062 185 629.665039062 185 462.228515625 185 c 0,45,46
 292.951171875 185 292.951171875 185 179.793945312 244 c 128,-1,47
 66.6357421875 303 66.6357421875 303 66.6357421875 389 c 128,-1,48
 66.6357421875 475 66.6357421875 475 179.793945312 536 c 128,-1,49
 292.951171875 597 292.951171875 597 462.228515625 597 c 128,-1,50
 631.505859375 597 631.505859375 597 744.663085938 536 c 128,-1,51
 857.821289062 475 857.821289062 475 857.821289062 389 c 0,42,43
857.821289062 -1 m 0,52,53
 857.821289062 -88 857.821289062 -88 743.743164062 -146.5 c 128,-1,54
 629.665039062 -205 629.665039062 -205 462.228515625 -205 c 0,55,56
 292.951171875 -205 292.951171875 -205 179.793945312 -146 c 128,-1,57
 66.6357421875 -87 66.6357421875 -87 66.6357421875 -1 c 128,-1,58
 66.6357421875 85 66.6357421875 85 179.793945312 146 c 128,-1,59
 292.951171875 207 292.951171875 207 462.228515625 207 c 128,-1,60
 631.505859375 207 631.505859375 207 744.663085938 146 c 128,-1,61
 857.821289062 85 857.821289062 85 857.821289062 -1 c 0,52,53
248.79296875 -1 m 0,62,63
 248.79296875 -48 248.79296875 -48 310.431640625 -82 c 128,-1,64
 372.0703125 -116 372.0703125 -116 462.228515625 -116 c 0,65,66
 550.546875 -116 550.546875 -116 613.10546875 -83 c 128,-1,67
 675.6640625 -50 675.6640625 -50 675.6640625 -1 c 128,-1,68
 675.6640625 48 675.6640625 48 614.025390625 82.5 c 128,-1,69
 552.38671875 117 552.38671875 117 462.228515625 117 c 0,70,71
 370.23046875 117 370.23046875 117 309.51171875 82 c 128,-1,72
 248.79296875 47 248.79296875 47 248.79296875 -1 c 0,62,63
EndSplineSet
Validated: 5
Substitution2: "'c2sc' Capitals to Small Capitals lookup 0 subtable" Ecircumflex.c2sc
Position2: "'cpsp' Capital Spacing lookup 0 subtable" dx=36 dy=0 dh=72 dv=0
EndChar

StartChar: Edieresis
Encoding: 203 203 178
Width: 909
GlyphClass: 2
Flags: W
LayerCount: 2
Fore
SplineSet
857.821289062 1174 m 0,0,1
 857.821289062 1087 857.821289062 1087 743.743164062 1028.5 c 128,-1,2
 629.665039062 970 629.665039062 970 462.228515625 970 c 0,3,4
 292.951171875 970 292.951171875 970 179.793945312 1029 c 128,-1,5
 66.6357421875 1088 66.6357421875 1088 66.6357421875 1174 c 128,-1,6
 66.6357421875 1260 66.6357421875 1260 179.793945312 1321 c 128,-1,7
 292.951171875 1382 292.951171875 1382 462.228515625 1382 c 128,-1,8
 631.505859375 1382 631.505859375 1382 744.663085938 1321 c 128,-1,9
 857.821289062 1260 857.821289062 1260 857.821289062 1174 c 0,0,1
248.79296875 1174 m 0,10,11
 248.79296875 1127 248.79296875 1127 310.431640625 1093 c 128,-1,12
 372.0703125 1059 372.0703125 1059 462.228515625 1059 c 0,13,14
 550.546875 1059 550.546875 1059 613.10546875 1092 c 128,-1,15
 675.6640625 1125 675.6640625 1125 675.6640625 1174 c 128,-1,16
 675.6640625 1223 675.6640625 1223 614.025390625 1257.5 c 128,-1,17
 552.38671875 1292 552.38671875 1292 462.228515625 1292 c 0,18,19
 370.23046875 1292 370.23046875 1292 309.51171875 1257 c 128,-1,20
 248.79296875 1222 248.79296875 1222 248.79296875 1174 c 0,10,11
857.821289062 782 m 0,21,22
 857.821289062 695 857.821289062 695 743.743164062 636.5 c 128,-1,23
 629.665039062 578 629.665039062 578 462.228515625 578 c 0,24,25
 292.951171875 578 292.951171875 578 179.793945312 637 c 128,-1,26
 66.6357421875 696 66.6357421875 696 66.6357421875 782 c 128,-1,27
 66.6357421875 868 66.6357421875 868 179.793945312 929 c 128,-1,28
 292.951171875 990 292.951171875 990 462.228515625 990 c 128,-1,29
 631.505859375 990 631.505859375 990 744.663085938 929 c 128,-1,30
 857.821289062 868 857.821289062 868 857.821289062 782 c 0,21,22
248.79296875 782 m 0,31,32
 248.79296875 735 248.79296875 735 310.431640625 701 c 128,-1,33
 372.0703125 667 372.0703125 667 462.228515625 667 c 0,34,35
 550.546875 667 550.546875 667 613.10546875 700 c 128,-1,36
 675.6640625 733 675.6640625 733 675.6640625 782 c 128,-1,37
 675.6640625 831 675.6640625 831 614.025390625 865.5 c 128,-1,38
 552.38671875 900 552.38671875 900 462.228515625 900 c 0,39,40
 370.23046875 900 370.23046875 900 309.51171875 865 c 128,-1,41
 248.79296875 830 248.79296875 830 248.79296875 782 c 0,31,32
857.821289062 389 m 0,42,43
 857.821289062 302 857.821289062 302 743.743164062 243.5 c 128,-1,44
 629.665039062 185 629.665039062 185 462.228515625 185 c 0,45,46
 292.951171875 185 292.951171875 185 179.793945312 244 c 128,-1,47
 66.6357421875 303 66.6357421875 303 66.6357421875 389 c 128,-1,48
 66.6357421875 475 66.6357421875 475 179.793945312 536 c 128,-1,49
 292.951171875 597 292.951171875 597 462.228515625 597 c 128,-1,50
 631.505859375 597 631.505859375 597 744.663085938 536 c 128,-1,51
 857.821289062 475 857.821289062 475 857.821289062 389 c 0,42,43
857.821289062 -1 m 0,52,53
 857.821289062 -88 857.821289062 -88 743.743164062 -146.5 c 128,-1,54
 629.665039062 -205 629.665039062 -205 462.228515625 -205 c 0,55,56
 292.951171875 -205 292.951171875 -205 179.793945312 -146 c 128,-1,57
 66.6357421875 -87 66.6357421875 -87 66.6357421875 -1 c 128,-1,58
 66.6357421875 85 66.6357421875 85 179.793945312 146 c 128,-1,59
 292.951171875 207 292.951171875 207 462.228515625 207 c 128,-1,60
 631.505859375 207 631.505859375 207 744.663085938 146 c 128,-1,61
 857.821289062 85 857.821289062 85 857.821289062 -1 c 0,52,53
EndSplineSet
Validated: 5
Substitution2: "'c2sc' Capitals to Small Capitals lookup 0 subtable" Edieresis.c2sc
Position2: "'cpsp' Capital Spacing lookup 0 subtable" dx=36 dy=0 dh=72 dv=0
EndChar

StartChar: Igrave
Encoding: 204 204 179
Width: 909
GlyphClass: 2
Flags: W
LayerCount: 2
Fore
SplineSet
857.821289062 1174 m 0,0,1
 857.821289062 1087 857.821289062 1087 743.743164062 1028.5 c 128,-1,2
 629.665039062 970 629.665039062 970 462.228515625 970 c 0,3,4
 292.951171875 970 292.951171875 970 179.793945312 1029 c 128,-1,5
 66.6357421875 1088 66.6357421875 1088 66.6357421875 1174 c 128,-1,6
 66.6357421875 1260 66.6357421875 1260 179.793945312 1321 c 128,-1,7
 292.951171875 1382 292.951171875 1382 462.228515625 1382 c 128,-1,8
 631.505859375 1382 631.505859375 1382 744.663085938 1321 c 128,-1,9
 857.821289062 1260 857.821289062 1260 857.821289062 1174 c 0,0,1
248.79296875 1174 m 0,10,11
 248.79296875 1127 248.79296875 1127 310.431640625 1093 c 128,-1,12
 372.0703125 1059 372.0703125 1059 462.228515625 1059 c 0,13,14
 550.546875 1059 550.546875 1059 613.10546875 1092 c 128,-1,15
 675.6640625 1125 675.6640625 1125 675.6640625 1174 c 128,-1,16
 675.6640625 1223 675.6640625 1223 614.025390625 1257.5 c 128,-1,17
 552.38671875 1292 552.38671875 1292 462.228515625 1292 c 0,18,19
 370.23046875 1292 370.23046875 1292 309.51171875 1257 c 128,-1,20
 248.79296875 1222 248.79296875 1222 248.79296875 1174 c 0,10,11
857.821289062 782 m 0,21,22
 857.821289062 695 857.821289062 695 743.743164062 636.5 c 128,-1,23
 629.665039062 578 629.665039062 578 462.228515625 578 c 0,24,25
 292.951171875 578 292.951171875 578 179.793945312 637 c 128,-1,26
 66.6357421875 696 66.6357421875 696 66.6357421875 782 c 128,-1,27
 66.6357421875 868 66.6357421875 868 179.793945312 929 c 128,-1,28
 292.951171875 990 292.951171875 990 462.228515625 990 c 128,-1,29
 631.505859375 990 631.505859375 990 744.663085938 929 c 128,-1,30
 857.821289062 868 857.821289062 868 857.821289062 782 c 0,21,22
857.821289062 389 m 0,31,32
 857.821289062 302 857.821289062 302 743.743164062 243.5 c 128,-1,33
 629.665039062 185 629.665039062 185 462.228515625 185 c 0,34,35
 292.951171875 185 292.951171875 185 179.793945312 244 c 128,-1,36
 66.6357421875 303 66.6357421875 303 66.6357421875 389 c 128,-1,37
 66.6357421875 475 66.6357421875 475 179.793945312 536 c 128,-1,38
 292.951171875 597 292.951171875 597 462.228515625 597 c 128,-1,39
 631.505859375 597 631.505859375 597 744.663085938 536 c 128,-1,40
 857.821289062 475 857.821289062 475 857.821289062 389 c 0,31,32
248.79296875 389 m 0,41,42
 248.79296875 342 248.79296875 342 310.431640625 308 c 128,-1,43
 372.0703125 274 372.0703125 274 462.228515625 274 c 0,44,45
 550.546875 274 550.546875 274 613.10546875 307 c 128,-1,46
 675.6640625 340 675.6640625 340 675.6640625 389 c 128,-1,47
 675.6640625 438 675.6640625 438 614.025390625 472.5 c 128,-1,48
 552.38671875 507 552.38671875 507 462.228515625 507 c 0,49,50
 370.23046875 507 370.23046875 507 309.51171875 472 c 128,-1,51
 248.79296875 437 248.79296875 437 248.79296875 389 c 0,41,42
857.821289062 -1 m 0,52,53
 857.821289062 -88 857.821289062 -88 743.743164062 -146.5 c 128,-1,54
 629.665039062 -205 629.665039062 -205 462.228515625 -205 c 0,55,56
 292.951171875 -205 292.951171875 -205 179.793945312 -146 c 128,-1,57
 66.6357421875 -87 66.6357421875 -87 66.6357421875 -1 c 128,-1,58
 66.6357421875 85 66.6357421875 85 179.793945312 146 c 128,-1,59
 292.951171875 207 292.951171875 207 462.228515625 207 c 128,-1,60
 631.505859375 207 631.505859375 207 744.663085938 146 c 128,-1,61
 857.821289062 85 857.821289062 85 857.821289062 -1 c 0,52,53
248.79296875 -1 m 0,62,63
 248.79296875 -48 248.79296875 -48 310.431640625 -82 c 128,-1,64
 372.0703125 -116 372.0703125 -116 462.228515625 -116 c 0,65,66
 550.546875 -116 550.546875 -116 613.10546875 -83 c 128,-1,67
 675.6640625 -50 675.6640625 -50 675.6640625 -1 c 128,-1,68
 675.6640625 48 675.6640625 48 614.025390625 82.5 c 128,-1,69
 552.38671875 117 552.38671875 117 462.228515625 117 c 0,70,71
 370.23046875 117 370.23046875 117 309.51171875 82 c 128,-1,72
 248.79296875 47 248.79296875 47 248.79296875 -1 c 0,62,63
EndSplineSet
Validated: 5
LCarets2: 1 0
Ligature2: "'ccmp' Glyph Composition/Decomposition lookup 4 subtable" I gravecomb
Substitution2: "'c2sc' Capitals to Small Capitals lookup 0 subtable" Igrave.c2sc
Position2: "'cpsp' Capital Spacing lookup 0 subtable" dx=36 dy=0 dh=72 dv=0
EndChar

StartChar: Ntilde
Encoding: 209 209 180
Width: 909
GlyphClass: 2
Flags: W
LayerCount: 2
Fore
SplineSet
857.821289062 1174 m 0,0,1
 857.821289062 1087 857.821289062 1087 743.743164062 1028.5 c 128,-1,2
 629.665039062 970 629.665039062 970 462.228515625 970 c 0,3,4
 292.951171875 970 292.951171875 970 179.793945312 1029 c 128,-1,5
 66.6357421875 1088 66.6357421875 1088 66.6357421875 1174 c 128,-1,6
 66.6357421875 1260 66.6357421875 1260 179.793945312 1321 c 128,-1,7
 292.951171875 1382 292.951171875 1382 462.228515625 1382 c 128,-1,8
 631.505859375 1382 631.505859375 1382 744.663085938 1321 c 128,-1,9
 857.821289062 1260 857.821289062 1260 857.821289062 1174 c 0,0,1
857.821289062 782 m 0,10,11
 857.821289062 695 857.821289062 695 743.743164062 636.5 c 128,-1,12
 629.665039062 578 629.665039062 578 462.228515625 578 c 0,13,14
 292.951171875 578 292.951171875 578 179.793945312 637 c 128,-1,15
 66.6357421875 696 66.6357421875 696 66.6357421875 782 c 128,-1,16
 66.6357421875 868 66.6357421875 868 179.793945312 929 c 128,-1,17
 292.951171875 990 292.951171875 990 462.228515625 990 c 128,-1,18
 631.505859375 990 631.505859375 990 744.663085938 929 c 128,-1,19
 857.821289062 868 857.821289062 868 857.821289062 782 c 0,10,11
248.79296875 782 m 0,20,21
 248.79296875 735 248.79296875 735 310.431640625 701 c 128,-1,22
 372.0703125 667 372.0703125 667 462.228515625 667 c 0,23,24
 550.546875 667 550.546875 667 613.10546875 700 c 128,-1,25
 675.6640625 733 675.6640625 733 675.6640625 782 c 128,-1,26
 675.6640625 831 675.6640625 831 614.025390625 865.5 c 128,-1,27
 552.38671875 900 552.38671875 900 462.228515625 900 c 0,28,29
 370.23046875 900 370.23046875 900 309.51171875 865 c 128,-1,30
 248.79296875 830 248.79296875 830 248.79296875 782 c 0,20,21
857.821289062 389 m 0,31,32
 857.821289062 302 857.821289062 302 743.743164062 243.5 c 128,-1,33
 629.665039062 185 629.665039062 185 462.228515625 185 c 0,34,35
 292.951171875 185 292.951171875 185 179.793945312 244 c 128,-1,36
 66.6357421875 303 66.6357421875 303 66.6357421875 389 c 128,-1,37
 66.6357421875 475 66.6357421875 475 179.793945312 536 c 128,-1,38
 292.951171875 597 292.951171875 597 462.228515625 597 c 128,-1,39
 631.505859375 597 631.505859375 597 744.663085938 536 c 128,-1,40
 857.821289062 475 857.821289062 475 857.821289062 389 c 0,31,32
248.79296875 389 m 0,41,42
 248.79296875 342 248.79296875 342 310.431640625 308 c 128,-1,43
 372.0703125 274 372.0703125 274 462.228515625 274 c 0,44,45
 550.546875 274 550.546875 274 613.10546875 307 c 128,-1,46
 675.6640625 340 675.6640625 340 675.6640625 389 c 128,-1,47
 675.6640625 438 675.6640625 438 614.025390625 472.5 c 128,-1,48
 552.38671875 507 552.38671875 507 462.228515625 507 c 0,49,50
 370.23046875 507 370.23046875 507 309.51171875 472 c 128,-1,51
 248.79296875 437 248.79296875 437 248.79296875 389 c 0,41,42
857.821289062 -1 m 0,52,53
 857.821289062 -88 857.821289062 -88 743.743164062 -146.5 c 128,-1,54
 629.665039062 -205 629.665039062 -205 462.228515625 -205 c 0,55,56
 292.951171875 -205 292.951171875 -205 179.793945312 -146 c 128,-1,57
 66.6357421875 -87 66.6357421875 -87 66.6357421875 -1 c 128,-1,58
 66.6357421875 85 66.6357421875 85 179.793945312 146 c 128,-1,59
 292.951171875 207 292.951171875 207 462.228515625 207 c 128,-1,60
 631.505859375 207 631.505859375 207 744.663085938 146 c 128,-1,61
 857.821289062 85 857.821289062 85 857.821289062 -1 c 0,52,53
EndSplineSet
Validated: 5
LCarets2: 1 0
Ligature2: "'ccmp' Glyph Composition/Decomposition lookup 4 subtable" N tildecomb
Substitution2: "'c2sc' Capitals to Small Capitals lookup 0 subtable" Ntilde.c2sc
Position2: "'cpsp' Capital Spacing lookup 0 subtable" dx=36 dy=0 dh=72 dv=0
EndChar

StartChar: Oacute
Encoding: 211 211 181
Width: 909
GlyphClass: 2
Flags: W
LayerCount: 2
Fore
SplineSet
857.821289062 1174 m 0,0,1
 857.821289062 1087 857.821289062 1087 743.743164062 1028.5 c 128,-1,2
 629.665039062 970 629.665039062 970 462.228515625 970 c 0,3,4
 292.951171875 970 292.951171875 970 179.793945312 1029 c 128,-1,5
 66.6357421875 1088 66.6357421875 1088 66.6357421875 1174 c 128,-1,6
 66.6357421875 1260 66.6357421875 1260 179.793945312 1321 c 128,-1,7
 292.951171875 1382 292.951171875 1382 462.228515625 1382 c 128,-1,8
 631.505859375 1382 631.505859375 1382 744.663085938 1321 c 128,-1,9
 857.821289062 1260 857.821289062 1260 857.821289062 1174 c 0,0,1
857.821289062 782 m 0,10,11
 857.821289062 695 857.821289062 695 743.743164062 636.5 c 128,-1,12
 629.665039062 578 629.665039062 578 462.228515625 578 c 0,13,14
 292.951171875 578 292.951171875 578 179.793945312 637 c 128,-1,15
 66.6357421875 696 66.6357421875 696 66.6357421875 782 c 128,-1,16
 66.6357421875 868 66.6357421875 868 179.793945312 929 c 128,-1,17
 292.951171875 990 292.951171875 990 462.228515625 990 c 128,-1,18
 631.505859375 990 631.505859375 990 744.663085938 929 c 128,-1,19
 857.821289062 868 857.821289062 868 857.821289062 782 c 0,10,11
248.79296875 782 m 0,20,21
 248.79296875 735 248.79296875 735 310.431640625 701 c 128,-1,22
 372.0703125 667 372.0703125 667 462.228515625 667 c 0,23,24
 550.546875 667 550.546875 667 613.10546875 700 c 128,-1,25
 675.6640625 733 675.6640625 733 675.6640625 782 c 128,-1,26
 675.6640625 831 675.6640625 831 614.025390625 865.5 c 128,-1,27
 552.38671875 900 552.38671875 900 462.228515625 900 c 0,28,29
 370.23046875 900 370.23046875 900 309.51171875 865 c 128,-1,30
 248.79296875 830 248.79296875 830 248.79296875 782 c 0,20,21
857.821289062 389 m 0,31,32
 857.821289062 302 857.821289062 302 743.743164062 243.5 c 128,-1,33
 629.665039062 185 629.665039062 185 462.228515625 185 c 0,34,35
 292.951171875 185 292.951171875 185 179.793945312 244 c 128,-1,36
 66.6357421875 303 66.6357421875 303 66.6357421875 389 c 128,-1,37
 66.6357421875 475 66.6357421875 475 179.793945312 536 c 128,-1,38
 292.951171875 597 292.951171875 597 462.228515625 597 c 128,-1,39
 631.505859375 597 631.505859375 597 744.663085938 536 c 128,-1,40
 857.821289062 475 857.821289062 475 857.821289062 389 c 0,31,32
857.821289062 -1 m 0,41,42
 857.821289062 -88 857.821289062 -88 743.743164062 -146.5 c 128,-1,43
 629.665039062 -205 629.665039062 -205 462.228515625 -205 c 0,44,45
 292.951171875 -205 292.951171875 -205 179.793945312 -146 c 128,-1,46
 66.6357421875 -87 66.6357421875 -87 66.6357421875 -1 c 128,-1,47
 66.6357421875 85 66.6357421875 85 179.793945312 146 c 128,-1,48
 292.951171875 207 292.951171875 207 462.228515625 207 c 128,-1,49
 631.505859375 207 631.505859375 207 744.663085938 146 c 128,-1,50
 857.821289062 85 857.821289062 85 857.821289062 -1 c 0,41,42
EndSplineSet
Validated: 5
LCarets2: 1 0
Ligature2: "'ccmp' Glyph Composition/Decomposition lookup 4 subtable" O acutecomb
Substitution2: "'c2sc' Capitals to Small Capitals lookup 0 subtable" Oacute.c2sc
Position2: "'cpsp' Capital Spacing lookup 0 subtable" dx=36 dy=0 dh=72 dv=0
EndChar

StartChar: Dcroat.c2sc
Encoding: 1114297 -1 182
Width: 1152
GlyphClass: 2
Flags: W
LayerCount: 2
Fore
SplineSet
138 0 m 1
 138 1165 l 1
 499 1165 l 2
 661 1165 661 1165 786.5 1098.5 c 0
 912 1032 912 1032 982 909 c 0
 1052 786 1052 786 1055 627 c 2
 1055 550 l 2
 1055 298 1055 298 899.5 149 c 0
 744 0 744 0 481 0 c 2
 138 0 l 1
323 1012 m 1
 323 151 l 1
 487 151 l 2
 673 151 673 151 772 255 c 0
 871 359 871 359 871 551 c 2
 871 615 l 2
 871 807 871 807 776.5 909.5 c 0
 682 1012 682 1012 499 1012 c 2
 323 1012 l 1
EndSplineSet
Refer: 154 -1 N 1 0 0 1 -209 -136 2
Validated: 5
EndChar

StartChar: Eth.c2sc
Encoding: 1114298 -1 183
Width: 1152
GlyphClass: 2
Flags: W
LayerCount: 2
Fore
SplineSet
138 0 m 1
 138 1165 l 1
 499 1165 l 2
 661 1165 661 1165 786.5 1098.5 c 0
 912 1032 912 1032 982 909 c 0
 1052 786 1052 786 1055 627 c 2
 1055 550 l 2
 1055 298 1055 298 899.5 149 c 0
 744 0 744 0 481 0 c 2
 138 0 l 1
323 1012 m 1
 323 151 l 1
 487 151 l 2
 673 151 673 151 772 255 c 0
 871 359 871 359 871 551 c 2
 871 615 l 2
 871 807 871 807 776.5 909.5 c 0
 682 1012 682 1012 499 1012 c 2
 323 1012 l 1
EndSplineSet
Refer: 154 -1 N 1 0 0 1 -209 -136 2
Validated: 5
EndChar

StartChar: Tbar.c2sc
Encoding: 1114299 -1 184
Width: 1062
GlyphClass: 2
Flags: W
LayerCount: 2
Fore
SplineSet
1021 1012 m 1
 622 1012 l 1
 622 0 l 1
 437 0 l 1
 437 1012 l 1
 40 1012 l 1
 40 1165 l 1
 1021 1165 l 1
 1021 1012 l 1
EndSplineSet
Refer: 154 -1 N 1 0 0 1 69 -32 2
Validated: 5
EndChar

StartChar: Agrave.c2sc
Encoding: 1114300 -1 185
Width: 1157
GlyphClass: 2
Flags: W
LayerCount: 2
Fore
SplineSet
838 279 m 1
 318 279 l 1
 208 0 l 1
 19 0 l 1
 498 1165 l 1
 664 1165 l 1
 1136 0 l 1
 948 0 l 1
 838 279 l 1
378 430 m 1
 779 430 l 1
 580 939 l 1
 378 430 l 1
EndSplineSet
Refer: 66 96 N 1 0 0 1 213 30 2
Validated: 1
EndChar

StartChar: Aacute.c2sc
Encoding: 1114301 -1 186
Width: 1157
GlyphClass: 2
Flags: W
LayerCount: 2
Fore
SplineSet
838 279 m 1,0,-1
 318 279 l 1,1,-1
 208 0 l 1,2,-1
 19 0 l 1,3,-1
 498 1165 l 1,4,-1
 664 1165 l 1,5,-1
 1136 0 l 1,6,-1
 948 0 l 1,7,-1
 838 279 l 1,0,-1
378 430 m 1,8,-1
 779 430 l 1,9,-1
 580 939 l 1,10,-1
 378 430 l 1,8,-1
672 1566 m 1,11,-1
 896 1566 l 1,12,-1
 628 1272 l 1,13,-1
 479 1272 l 1,14,-1
 672 1566 l 1,11,-1
EndSplineSet
Validated: 1
EndChar

StartChar: Acircumflex.c2sc
Encoding: 1114302 -1 187
Width: 1157
GlyphClass: 2
Flags: W
LayerCount: 2
Fore
SplineSet
838 279 m 1,0,-1
 318 279 l 1,1,-1
 208 0 l 1,2,-1
 19 0 l 1,3,-1
 498 1165 l 1,4,-1
 664 1165 l 1,5,-1
 1136 0 l 1,6,-1
 948 0 l 1,7,-1
 838 279 l 1,0,-1
378 430 m 1,8,-1
 779 430 l 1,9,-1
 580 939 l 1,10,-1
 378 430 l 1,8,-1
884 1292 m 1,11,-1
 884 1282 l 1,12,-1
 731 1282 l 1,13,-1
 581 1452 l 1,14,-1
 432 1282 l 1,15,-1
 279 1282 l 1,16,-1
 279 1294 l 1,17,-1
 525 1566 l 1,18,-1
 637 1566 l 1,19,-1
 884 1292 l 1,11,-1
EndSplineSet
Validated: 1
EndChar

StartChar: Atilde.c2sc
Encoding: 1114303 -1 188
Width: 1157
GlyphClass: 2
Flags: W
LayerCount: 2
Fore
SplineSet
936 1534 m 1,0,1
 936 1426 936 1426 874.5 1359 c 0,2,3
 813 1292 813 1292 721 1292 c 0,4,5
 680 1292 680 1292 650 1302 c 0,6,7
 620 1312 620 1312 571.5 1343 c 0,8,9
 523 1374 523 1374 501.5 1380.5 c 0,10,11
 480 1387 480 1387 452 1387 c 0,12,13
 411 1387 411 1387 382 1355.5 c 0,14,15
 353 1324 353 1324 353 1275 c 1,16,-1
 229 1282 l 1,17,18
 229 1389 229 1389 289.5 1459 c 0,19,20
 350 1529 350 1529 443 1529 c 0,21,22
 478 1529 478 1529 506 1519 c 0,23,24
 534 1509 534 1509 582 1480 c 0,25,26
 630 1451 630 1451 655.5 1442 c 0,27,28
 681 1433 681 1433 712 1433 c 0,29,30
 755 1433 755 1433 783.5 1467 c 0,31,32
 812 1501 812 1501 812 1546 c 1,33,-1
 936 1534 l 1,0,1
838 279 m 1,34,-1
 318 279 l 1,35,-1
 208 0 l 1,36,-1
 19 0 l 1,37,-1
 498 1165 l 1,38,-1
 664 1165 l 1,39,-1
 1136 0 l 1,40,-1
 948 0 l 1,41,-1
 838 279 l 1,34,-1
378 430 m 1,42,-1
 779 430 l 1,43,-1
 580 939 l 1,44,-1
 378 430 l 1,42,-1
EndSplineSet
Validated: 1
EndChar

StartChar: Adieresis.c2sc
Encoding: 1114304 -1 189
Width: 1157
GlyphClass: 2
Flags: W
LayerCount: 2
Fore
SplineSet
838 279 m 1,0,-1
 318 279 l 1,1,-1
 208 0 l 1,2,-1
 19 0 l 1,3,-1
 498 1165 l 1,4,-1
 664 1165 l 1,5,-1
 1136 0 l 1,6,-1
 948 0 l 1,7,-1
 838 279 l 1,0,-1
378 430 m 1,8,-1
 779 430 l 1,9,-1
 580 939 l 1,10,-1
 378 430 l 1,8,-1
259 1401 m 256,11,12
 259 1446 259 1446 286.5 1476.5 c 0,13,14
 314 1507 314 1507 368 1507 c 0,15,16
 422 1507 422 1507 450 1476.5 c 0,17,18
 478 1446 478 1446 478 1401 c 0,19,20
 478 1356 478 1356 450 1326 c 0,21,22
 422 1296 422 1296 368 1296 c 0,23,24
 314 1296 314 1296 286.5 1326 c 0,25,26
 259 1356 259 1356 259 1401 c 256,11,12
689 1399 m 256,27,28
 689 1444 689 1444 716.5 1475 c 0,29,30
 744 1506 744 1506 798 1506 c 0,31,32
 852 1506 852 1506 880 1475 c 0,33,34
 908 1444 908 1444 908 1399 c 0,35,36
 908 1354 908 1354 880 1324 c 0,37,38
 852 1294 852 1294 798 1294 c 0,39,40
 744 1294 744 1294 716.5 1324 c 0,41,42
 689 1354 689 1354 689 1399 c 256,27,28
EndSplineSet
Validated: 1
EndChar

StartChar: Aring.c2sc
Encoding: 1114305 -1 190
Width: 1157
GlyphClass: 2
Flags: W
LayerCount: 2
Fore
SplineSet
796 1449 m 0,0,1
 796 1362 796 1362 734 1303.5 c 0,2,3
 672 1245 672 1245 581 1245 c 0,4,5
 489 1245 489 1245 427.5 1304 c 0,6,7
 366 1363 366 1363 366 1449 c 0,8,9
 366 1535 366 1535 427.5 1596 c 0,10,11
 489 1657 489 1657 581 1657 c 0,12,13
 673 1657 673 1657 734.5 1596 c 0,14,15
 796 1535 796 1535 796 1449 c 0,0,1
465 1449 m 0,16,17
 465 1402 465 1402 498.5 1368 c 0,18,19
 532 1334 532 1334 581 1334 c 0,20,21
 629 1334 629 1334 663 1367 c 0,22,23
 697 1400 697 1400 697 1449 c 0,24,25
 697 1498 697 1498 663.5 1532.5 c 0,26,27
 630 1567 630 1567 581 1567 c 0,28,29
 531 1567 531 1567 498 1532 c 0,30,31
 465 1497 465 1497 465 1449 c 0,16,17
838 279 m 1,32,-1
 318 279 l 1,33,-1
 208 0 l 1,34,-1
 19 0 l 1,35,-1
 498 1165 l 1,36,-1
 664 1165 l 1,37,-1
 1136 0 l 1,38,-1
 948 0 l 1,39,-1
 838 279 l 1,32,-1
378 430 m 1,40,-1
 779 430 l 1,41,-1
 580 939 l 1,42,-1
 378 430 l 1,40,-1
EndSplineSet
Validated: 1
EndChar

StartChar: Aringacute.c2sc
Encoding: 1114306 -1 191
Width: 1157
GlyphClass: 2
Flags: W
LayerCount: 2
Fore
SplineSet
838 279 m 1
 318 279 l 1
 208 0 l 1
 19 0 l 1
 498 1165 l 1
 664 1165 l 1
 1136 0 l 1
 948 0 l 1
 838 279 l 1
378 430 m 1
 779 430 l 1
 580 939 l 1
 378 430 l 1
EndSplineSet
Refer: 155 -1 N 1 0 0 1 255 10 2
Validated: 5
EndChar

StartChar: Ccedilla.c2sc
Encoding: 1114307 -1 192
Width: 1148
GlyphClass: 2
Flags: W
LayerCount: 2
Fore
SplineSet
1072 377 m 1,0,1
 1052 190 1052 190 926 87 c 0,2,3
 800 -16 800 -16 591 -16 c 0,4,5
 367 -16 367 -16 231.5 131.5 c 0,6,7
 96 279 96 279 96 538 c 2,8,-1
 96 632 l 2,9,10
 96 796 96 796 157.5 920.5 c 0,11,12
 219 1045 219 1045 334.5 1113 c 0,13,14
 450 1181 450 1181 602 1181 c 0,15,16
 806 1181 806 1181 929.5 1075.5 c 0,17,18
 1053 970 1053 970 1072 783 c 1,19,-1
 887 783 l 1,20,21
 869 913 869 913 798.5 971 c 0,22,23
 728 1029 728 1029 602 1029 c 0,24,25
 449 1029 449 1029 365.5 927.5 c 0,26,27
 282 826 282 826 281 637 c 2,28,-1
 281 531 l 2,29,30
 281 342 281 342 360.5 238.5 c 0,31,32
 440 135 440 135 591 135 c 0,33,34
 726 135 726 135 796.5 190.5 c 0,35,36
 867 246 867 246 887 377 c 1,37,-1
 1072 377 l 1,0,1
657 -3 m 1,38,-1
 645 -55 l 1,39,40
 798 -82 798 -82 798 -228 c 0,41,42
 798 -325 798 -325 718 -381.5 c 0,43,44
 638 -438 638 -438 495 -438 c 1,45,-1
 488 -331 l 1,46,47
 567 -331 567 -331 610.5 -305 c 0,48,49
 654 -279 654 -279 654 -232 c 0,50,51
 654 -188 654 -188 622 -167 c 0,52,53
 590 -146 590 -146 492 -137 c 1,54,-1
 524 -3 l 1,55,-1
 657 -3 l 1,38,-1
EndSplineSet
Validated: 5
EndChar

StartChar: Egrave.c2sc
Encoding: 1114308 -1 193
Width: 998
GlyphClass: 2
Flags: W
LayerCount: 2
Fore
SplineSet
855 526 m 1
 323 526 l 1
 323 151 l 1
 942 151 l 1
 942 0 l 1
 138 0 l 1
 138 1165 l 1
 936 1165 l 1
 936 1012 l 1
 323 1012 l 1
 323 678 l 1
 855 678 l 1
 855 526 l 1
EndSplineSet
Refer: 66 96 N 1 0 0 1 168 30 2
Validated: 1
EndChar

StartChar: Eacute.c2sc
Encoding: 1114309 -1 194
Width: 998
GlyphClass: 2
Flags: W
LayerCount: 2
Fore
SplineSet
855 526 m 1,0,-1
 323 526 l 1,1,-1
 323 151 l 1,2,-1
 942 151 l 1,3,-1
 942 0 l 1,4,-1
 138 0 l 1,5,-1
 138 1165 l 1,6,-1
 936 1165 l 1,7,-1
 936 1012 l 1,8,-1
 323 1012 l 1,9,-1
 323 678 l 1,10,-1
 855 678 l 1,11,-1
 855 526 l 1,0,-1
627 1566 m 1,12,-1
 851 1566 l 1,13,-1
 583 1272 l 1,14,-1
 434 1272 l 1,15,-1
 627 1566 l 1,12,-1
EndSplineSet
Validated: 1
EndChar

StartChar: Ecircumflex.c2sc
Encoding: 1114310 -1 195
Width: 998
GlyphClass: 2
Flags: W
LayerCount: 2
Fore
SplineSet
855 526 m 1,0,-1
 323 526 l 1,1,-1
 323 151 l 1,2,-1
 942 151 l 1,3,-1
 942 0 l 1,4,-1
 138 0 l 1,5,-1
 138 1165 l 1,6,-1
 936 1165 l 1,7,-1
 936 1012 l 1,8,-1
 323 1012 l 1,9,-1
 323 678 l 1,10,-1
 855 678 l 1,11,-1
 855 526 l 1,0,-1
839 1292 m 1,12,-1
 839 1282 l 1,13,-1
 686 1282 l 1,14,-1
 536 1452 l 1,15,-1
 387 1282 l 1,16,-1
 234 1282 l 1,17,-1
 234 1294 l 1,18,-1
 480 1566 l 1,19,-1
 592 1566 l 1,20,-1
 839 1292 l 1,12,-1
EndSplineSet
Validated: 1
EndChar

StartChar: Edieresis.c2sc
Encoding: 1114311 -1 196
Width: 998
GlyphClass: 2
Flags: W
LayerCount: 2
Fore
SplineSet
855 526 m 1,0,-1
 323 526 l 1,1,-1
 323 151 l 1,2,-1
 942 151 l 1,3,-1
 942 0 l 1,4,-1
 138 0 l 1,5,-1
 138 1165 l 1,6,-1
 936 1165 l 1,7,-1
 936 1012 l 1,8,-1
 323 1012 l 1,9,-1
 323 678 l 1,10,-1
 855 678 l 1,11,-1
 855 526 l 1,0,-1
214 1401 m 256,12,13
 214 1446 214 1446 241.5 1476.5 c 0,14,15
 269 1507 269 1507 323 1507 c 0,16,17
 377 1507 377 1507 405 1476.5 c 0,18,19
 433 1446 433 1446 433 1401 c 0,20,21
 433 1356 433 1356 405 1326 c 0,22,23
 377 1296 377 1296 323 1296 c 0,24,25
 269 1296 269 1296 241.5 1326 c 0,26,27
 214 1356 214 1356 214 1401 c 256,12,13
644 1399 m 256,28,29
 644 1444 644 1444 671.5 1475 c 0,30,31
 699 1506 699 1506 753 1506 c 0,32,33
 807 1506 807 1506 835 1475 c 0,34,35
 863 1444 863 1444 863 1399 c 0,36,37
 863 1354 863 1354 835 1324 c 0,38,39
 807 1294 807 1294 753 1294 c 0,40,41
 699 1294 699 1294 671.5 1324 c 0,42,43
 644 1354 644 1354 644 1399 c 256,28,29
EndSplineSet
Validated: 1
EndChar

StartChar: Igrave.c2sc
Encoding: 1114312 -1 197
Width: 488
GlyphClass: 2
Flags: W
LayerCount: 2
Fore
SplineSet
337 0 m 1
 151 0 l 1
 151 1165 l 1
 337 1165 l 1
 337 0 l 1
EndSplineSet
Refer: 66 96 N 1 0 0 1 -123 30 2
Validated: 1
EndChar

StartChar: Iacute.c2sc
Encoding: 1114313 -1 198
Width: 488
GlyphClass: 2
Flags: W
LayerCount: 2
Fore
SplineSet
337 0 m 1,0,-1
 151 0 l 1,1,-1
 151 1165 l 1,2,-1
 337 1165 l 1,3,-1
 337 0 l 1,0,-1
335 1566 m 1,4,-1
 559 1566 l 1,5,-1
 291 1272 l 1,6,-1
 142 1272 l 1,7,-1
 335 1566 l 1,4,-1
EndSplineSet
Validated: 1
EndChar

StartChar: Icircumflex.c2sc
Encoding: 1114314 -1 199
Width: 488
GlyphClass: 2
Flags: W
LayerCount: 2
Fore
SplineSet
337 0 m 1,0,-1
 151 0 l 1,1,-1
 151 1165 l 1,2,-1
 337 1165 l 1,3,-1
 337 0 l 1,0,-1
548 1292 m 1,4,-1
 548 1282 l 1,5,-1
 395 1282 l 1,6,-1
 245 1452 l 1,7,-1
 96 1282 l 1,8,-1
 -57 1282 l 1,9,-1
 -57 1294 l 1,10,-1
 189 1566 l 1,11,-1
 301 1566 l 1,12,-1
 548 1292 l 1,4,-1
EndSplineSet
Validated: 1
EndChar

StartChar: Idieresis.c2sc
Encoding: 1114315 -1 200
Width: 488
GlyphClass: 2
Flags: W
LayerCount: 2
Fore
SplineSet
337 0 m 1,0,-1
 151 0 l 1,1,-1
 151 1165 l 1,2,-1
 337 1165 l 1,3,-1
 337 0 l 1,0,-1
-77 1401 m 256,4,5
 -77 1446 -77 1446 -49.5 1476.5 c 0,6,7
 -22 1507 -22 1507 32 1507 c 0,8,9
 86 1507 86 1507 114 1476.5 c 0,10,11
 142 1446 142 1446 142 1401 c 0,12,13
 142 1356 142 1356 114 1326 c 0,14,15
 86 1296 86 1296 32 1296 c 0,16,17
 -22 1296 -22 1296 -49.5 1326 c 0,18,19
 -77 1356 -77 1356 -77 1401 c 256,4,5
353 1399 m 256,20,21
 353 1444 353 1444 380.5 1475 c 0,22,23
 408 1506 408 1506 462 1506 c 0,24,25
 516 1506 516 1506 544 1475 c 0,26,27
 572 1444 572 1444 572 1399 c 0,28,29
 572 1354 572 1354 544 1324 c 0,30,31
 516 1294 516 1294 462 1294 c 0,32,33
 408 1294 408 1294 380.5 1324 c 0,34,35
 353 1354 353 1354 353 1399 c 256,20,21
EndSplineSet
Validated: 1
EndChar

StartChar: Ntilde.c2sc
Encoding: 1114316 -1 201
Width: 1251
GlyphClass: 2
Flags: W
LayerCount: 2
Fore
SplineSet
979 1534 m 1,0,1
 979 1426 979 1426 917.5 1359 c 0,2,3
 856 1292 856 1292 764 1292 c 0,4,5
 723 1292 723 1292 693 1302 c 0,6,7
 663 1312 663 1312 614.5 1343 c 0,8,9
 566 1374 566 1374 544.5 1380.5 c 0,10,11
 523 1387 523 1387 495 1387 c 0,12,13
 454 1387 454 1387 425 1355.5 c 0,14,15
 396 1324 396 1324 396 1275 c 1,16,-1
 272 1282 l 1,17,18
 272 1389 272 1389 332.5 1459 c 0,19,20
 393 1529 393 1529 486 1529 c 0,21,22
 521 1529 521 1529 549 1519 c 0,23,24
 577 1509 577 1509 625 1480 c 0,25,26
 673 1451 673 1451 698.5 1442 c 0,27,28
 724 1433 724 1433 755 1433 c 0,29,30
 798 1433 798 1433 826.5 1467 c 0,31,32
 855 1501 855 1501 855 1546 c 1,33,-1
 979 1534 l 1,0,1
1112 0 m 1,34,-1
 928 0 l 1,35,-1
 323 876 l 1,36,-1
 323 0 l 1,37,-1
 138 0 l 1,38,-1
 138 1165 l 1,39,-1
 323 1165 l 1,40,-1
 928 288 l 1,41,-1
 928 1165 l 1,42,-1
 1112 1165 l 1,43,-1
 1112 0 l 1,34,-1
EndSplineSet
Validated: 1
EndChar

StartChar: Ograve.c2sc
Encoding: 1114317 -1 202
Width: 1211
GlyphClass: 2
Flags: W
LayerCount: 2
Fore
SplineSet
1114 548 m 2
 1114 287 1114 287 976 135.5 c 0
 838 -16 838 -16 606 -16 c 0
 377 -16 377 -16 236.5 137 c 0
 96 290 96 290 96 553 c 2
 96 615 l 2
 96 873 96 873 235.5 1027 c 0
 375 1181 375 1181 604 1181 c 0
 837 1181 837 1181 974.5 1029 c 0
 1112 877 1112 877 1114 622 c 2
 1114 548 l 2
931 617 m 2
 931 815 931 815 845 920 c 0
 759 1025 759 1025 604 1025 c 0
 454 1025 454 1025 366.5 918 c 0
 279 811 279 811 279 614 c 2
 279 548 l 2
 279 353 279 353 367 245.5 c 0
 455 138 455 138 606 138 c 0
 762 138 762 138 846.5 243.5 c 0
 931 349 931 349 931 548 c 2
 931 617 l 2
EndSplineSet
Refer: 66 96 N 1 0 0 1 238 30 2
Validated: 1
EndChar

StartChar: Oacute.c2sc
Encoding: 1114318 -1 203
Width: 1211
GlyphClass: 2
Flags: W
LayerCount: 2
Fore
SplineSet
1114 548 m 2,0,1
 1114 287 1114 287 976 135.5 c 0,2,3
 838 -16 838 -16 606 -16 c 0,4,5
 377 -16 377 -16 236.5 137 c 0,6,7
 96 290 96 290 96 553 c 2,8,-1
 96 615 l 2,9,10
 96 873 96 873 235.5 1027 c 0,11,12
 375 1181 375 1181 604 1181 c 0,13,14
 837 1181 837 1181 974.5 1029 c 0,15,16
 1112 877 1112 877 1114 622 c 2,17,-1
 1114 548 l 2,0,1
931 617 m 2,18,19
 931 815 931 815 845 920 c 0,20,21
 759 1025 759 1025 604 1025 c 0,22,23
 454 1025 454 1025 366.5 918 c 0,24,25
 279 811 279 811 279 614 c 2,26,-1
 279 548 l 2,27,28
 279 353 279 353 367 245.5 c 0,29,30
 455 138 455 138 606 138 c 0,31,32
 762 138 762 138 846.5 243.5 c 0,33,34
 931 349 931 349 931 548 c 2,35,-1
 931 617 l 2,18,19
697 1566 m 1,36,-1
 921 1566 l 1,37,-1
 653 1272 l 1,38,-1
 504 1272 l 1,39,-1
 697 1566 l 1,36,-1
EndSplineSet
Validated: 1
EndChar

StartChar: Ocircumflex.c2sc
Encoding: 1114319 -1 204
Width: 1211
GlyphClass: 2
Flags: W
LayerCount: 2
Fore
SplineSet
1114 548 m 2,0,1
 1114 287 1114 287 976 135.5 c 0,2,3
 838 -16 838 -16 606 -16 c 0,4,5
 377 -16 377 -16 236.5 137 c 0,6,7
 96 290 96 290 96 553 c 2,8,-1
 96 615 l 2,9,10
 96 873 96 873 235.5 1027 c 0,11,12
 375 1181 375 1181 604 1181 c 0,13,14
 837 1181 837 1181 974.5 1029 c 0,15,16
 1112 877 1112 877 1114 622 c 2,17,-1
 1114 548 l 2,0,1
931 617 m 2,18,19
 931 815 931 815 845 920 c 0,20,21
 759 1025 759 1025 604 1025 c 0,22,23
 454 1025 454 1025 366.5 918 c 0,24,25
 279 811 279 811 279 614 c 2,26,-1
 279 548 l 2,27,28
 279 353 279 353 367 245.5 c 0,29,30
 455 138 455 138 606 138 c 0,31,32
 762 138 762 138 846.5 243.5 c 0,33,34
 931 349 931 349 931 548 c 2,35,-1
 931 617 l 2,18,19
909 1292 m 1,36,-1
 909 1282 l 1,37,-1
 756 1282 l 1,38,-1
 606 1452 l 1,39,-1
 457 1282 l 1,40,-1
 304 1282 l 1,41,-1
 304 1294 l 1,42,-1
 550 1566 l 1,43,-1
 662 1566 l 1,44,-1
 909 1292 l 1,36,-1
EndSplineSet
Validated: 1
EndChar

StartChar: Otilde.c2sc
Encoding: 1114320 -1 205
Width: 1211
GlyphClass: 2
Flags: W
LayerCount: 2
Fore
SplineSet
961 1534 m 1,0,1
 961 1426 961 1426 899.5 1359 c 0,2,3
 838 1292 838 1292 746 1292 c 0,4,5
 705 1292 705 1292 675 1302 c 0,6,7
 645 1312 645 1312 596.5 1343 c 0,8,9
 548 1374 548 1374 526.5 1380.5 c 0,10,11
 505 1387 505 1387 477 1387 c 0,12,13
 436 1387 436 1387 407 1355.5 c 0,14,15
 378 1324 378 1324 378 1275 c 1,16,-1
 254 1282 l 1,17,18
 254 1389 254 1389 314.5 1459 c 0,19,20
 375 1529 375 1529 468 1529 c 0,21,22
 503 1529 503 1529 531 1519 c 0,23,24
 559 1509 559 1509 607 1480 c 0,25,26
 655 1451 655 1451 680.5 1442 c 0,27,28
 706 1433 706 1433 737 1433 c 0,29,30
 780 1433 780 1433 808.5 1467 c 0,31,32
 837 1501 837 1501 837 1546 c 1,33,-1
 961 1534 l 1,0,1
1114 548 m 2,34,35
 1114 287 1114 287 976 135.5 c 0,36,37
 838 -16 838 -16 606 -16 c 0,38,39
 377 -16 377 -16 236.5 137 c 0,40,41
 96 290 96 290 96 553 c 2,42,-1
 96 615 l 2,43,44
 96 873 96 873 235.5 1027 c 0,45,46
 375 1181 375 1181 604 1181 c 0,47,48
 837 1181 837 1181 974.5 1029 c 0,49,50
 1112 877 1112 877 1114 622 c 2,51,-1
 1114 548 l 2,34,35
931 617 m 2,52,53
 931 815 931 815 845 920 c 0,54,55
 759 1025 759 1025 604 1025 c 0,56,57
 454 1025 454 1025 366.5 918 c 0,58,59
 279 811 279 811 279 614 c 2,60,-1
 279 548 l 2,61,62
 279 353 279 353 367 245.5 c 0,63,64
 455 138 455 138 606 138 c 0,65,66
 762 138 762 138 846.5 243.5 c 0,67,68
 931 349 931 349 931 548 c 2,69,-1
 931 617 l 2,52,53
EndSplineSet
Validated: 1
EndChar

StartChar: Odieresis.c2sc
Encoding: 1114321 -1 206
Width: 1211
GlyphClass: 2
Flags: W
LayerCount: 2
Fore
SplineSet
1114 548 m 2,0,1
 1114 287 1114 287 976 135.5 c 0,2,3
 838 -16 838 -16 606 -16 c 0,4,5
 377 -16 377 -16 236.5 137 c 0,6,7
 96 290 96 290 96 553 c 2,8,-1
 96 615 l 2,9,10
 96 873 96 873 235.5 1027 c 0,11,12
 375 1181 375 1181 604 1181 c 0,13,14
 837 1181 837 1181 974.5 1029 c 0,15,16
 1112 877 1112 877 1114 622 c 2,17,-1
 1114 548 l 2,0,1
931 617 m 2,18,19
 931 815 931 815 845 920 c 0,20,21
 759 1025 759 1025 604 1025 c 0,22,23
 454 1025 454 1025 366.5 918 c 0,24,25
 279 811 279 811 279 614 c 2,26,-1
 279 548 l 2,27,28
 279 353 279 353 367 245.5 c 0,29,30
 455 138 455 138 606 138 c 0,31,32
 762 138 762 138 846.5 243.5 c 0,33,34
 931 349 931 349 931 548 c 2,35,-1
 931 617 l 2,18,19
284 1401 m 256,36,37
 284 1446 284 1446 311.5 1476.5 c 0,38,39
 339 1507 339 1507 393 1507 c 0,40,41
 447 1507 447 1507 475 1476.5 c 0,42,43
 503 1446 503 1446 503 1401 c 0,44,45
 503 1356 503 1356 475 1326 c 0,46,47
 447 1296 447 1296 393 1296 c 0,48,49
 339 1296 339 1296 311.5 1326 c 0,50,51
 284 1356 284 1356 284 1401 c 256,36,37
714 1399 m 256,52,53
 714 1444 714 1444 741.5 1475 c 0,54,55
 769 1506 769 1506 823 1506 c 0,56,57
 877 1506 877 1506 905 1475 c 0,58,59
 933 1444 933 1444 933 1399 c 0,60,61
 933 1354 933 1354 905 1324 c 0,62,63
 877 1294 877 1294 823 1294 c 0,64,65
 769 1294 769 1294 741.5 1324 c 0,66,67
 714 1354 714 1354 714 1399 c 256,52,53
EndSplineSet
Validated: 1
EndChar

StartChar: Ugrave.c2sc
Encoding: 1114322 -1 207
Width: 1148
GlyphClass: 2
Flags: W
LayerCount: 2
Fore
SplineSet
1034 1165 m 1
 1034 385 l 2
 1034 203 1034 203 909 93.5 c 0
 784 -16 784 -16 575 -16 c 0
 365 -16 365 -16 242 89.5 c 0
 119 195 119 195 116 377 c 2
 116 1165 l 1
 299 1165 l 1
 299 385 l 2
 299 264 299 264 370.5 199.5 c 0
 442 135 442 135 575 135 c 0
 706 135 706 135 777.5 198.5 c 0
 849 262 849 262 849 385 c 2
 849 1165 l 1
 1034 1165 l 1
EndSplineSet
Refer: 66 96 N 1 0 0 1 207 30 2
Validated: 1
EndChar

StartChar: Uacute.c2sc
Encoding: 1114323 -1 208
Width: 1148
GlyphClass: 2
Flags: W
LayerCount: 2
Fore
SplineSet
1034 1165 m 1,0,-1
 1034 385 l 2,1,2
 1034 203 1034 203 909 93.5 c 0,3,4
 784 -16 784 -16 575 -16 c 0,5,6
 365 -16 365 -16 242 89.5 c 0,7,8
 119 195 119 195 116 377 c 2,9,-1
 116 1165 l 1,10,-1
 299 1165 l 1,11,-1
 299 385 l 2,12,13
 299 264 299 264 370.5 199.5 c 0,14,15
 442 135 442 135 575 135 c 0,16,17
 706 135 706 135 777.5 198.5 c 0,18,19
 849 262 849 262 849 385 c 2,20,-1
 849 1165 l 1,21,-1
 1034 1165 l 1,0,-1
666 1566 m 1,22,-1
 890 1566 l 1,23,-1
 622 1272 l 1,24,-1
 473 1272 l 1,25,-1
 666 1566 l 1,22,-1
EndSplineSet
Validated: 1
EndChar

StartChar: Ucircumflex.c2sc
Encoding: 1114324 -1 209
Width: 1148
GlyphClass: 2
Flags: W
LayerCount: 2
Fore
SplineSet
1034 1165 m 1,0,-1
 1034 385 l 2,1,2
 1034 203 1034 203 909 93.5 c 0,3,4
 784 -16 784 -16 575 -16 c 0,5,6
 365 -16 365 -16 242 89.5 c 0,7,8
 119 195 119 195 116 377 c 2,9,-1
 116 1165 l 1,10,-1
 299 1165 l 1,11,-1
 299 385 l 2,12,13
 299 264 299 264 370.5 199.5 c 0,14,15
 442 135 442 135 575 135 c 0,16,17
 706 135 706 135 777.5 198.5 c 0,18,19
 849 262 849 262 849 385 c 2,20,-1
 849 1165 l 1,21,-1
 1034 1165 l 1,0,-1
878 1292 m 1,22,-1
 878 1282 l 1,23,-1
 725 1282 l 1,24,-1
 575 1452 l 1,25,-1
 426 1282 l 1,26,-1
 273 1282 l 1,27,-1
 273 1294 l 1,28,-1
 519 1566 l 1,29,-1
 631 1566 l 1,30,-1
 878 1292 l 1,22,-1
EndSplineSet
Validated: 1
EndChar

StartChar: Udieresis.c2sc
Encoding: 1114325 -1 210
Width: 1148
GlyphClass: 2
Flags: W
LayerCount: 2
Fore
SplineSet
1034 1165 m 1,0,-1
 1034 385 l 2,1,2
 1034 203 1034 203 909 93.5 c 0,3,4
 784 -16 784 -16 575 -16 c 0,5,6
 365 -16 365 -16 242 89.5 c 0,7,8
 119 195 119 195 116 377 c 2,9,-1
 116 1165 l 1,10,-1
 299 1165 l 1,11,-1
 299 385 l 2,12,13
 299 264 299 264 370.5 199.5 c 0,14,15
 442 135 442 135 575 135 c 0,16,17
 706 135 706 135 777.5 198.5 c 0,18,19
 849 262 849 262 849 385 c 2,20,-1
 849 1165 l 1,21,-1
 1034 1165 l 1,0,-1
253 1401 m 256,22,23
 253 1446 253 1446 280.5 1476.5 c 0,24,25
 308 1507 308 1507 362 1507 c 0,26,27
 416 1507 416 1507 444 1476.5 c 0,28,29
 472 1446 472 1446 472 1401 c 0,30,31
 472 1356 472 1356 444 1326 c 0,32,33
 416 1296 416 1296 362 1296 c 0,34,35
 308 1296 308 1296 280.5 1326 c 0,36,37
 253 1356 253 1356 253 1401 c 256,22,23
683 1399 m 256,38,39
 683 1444 683 1444 710.5 1475 c 0,40,41
 738 1506 738 1506 792 1506 c 0,42,43
 846 1506 846 1506 874 1475 c 0,44,45
 902 1444 902 1444 902 1399 c 0,46,47
 902 1354 902 1354 874 1324 c 0,48,49
 846 1294 846 1294 792 1294 c 0,50,51
 738 1294 738 1294 710.5 1324 c 0,52,53
 683 1354 683 1354 683 1399 c 256,38,39
EndSplineSet
Validated: 1
EndChar

StartChar: Yacute.c2sc
Encoding: 1114326 -1 211
Width: 1067
GlyphClass: 2
Flags: W
LayerCount: 2
Fore
SplineSet
532 586 m 1,0,-1
 844 1165 l 1,1,-1
 1052 1165 l 1,2,-1
 622 407 l 1,3,-1
 622 0 l 1,4,-1
 437 0 l 1,5,-1
 437 418 l 1,6,-1
 13 1165 l 1,7,-1
 221 1165 l 1,8,-1
 532 586 l 1,0,-1
623 1566 m 1,9,-1
 847 1566 l 1,10,-1
 579 1272 l 1,11,-1
 430 1272 l 1,12,-1
 623 1566 l 1,9,-1
EndSplineSet
Validated: 1
EndChar

StartChar: Amacron.c2sc
Encoding: 1114327 -1 212
Width: 1157
GlyphClass: 2
Flags: W
LayerCount: 2
Fore
SplineSet
838 279 m 1,0,-1
 318 279 l 1,1,-1
 208 0 l 1,2,-1
 19 0 l 1,3,-1
 498 1165 l 1,4,-1
 664 1165 l 1,5,-1
 1136 0 l 1,6,-1
 948 0 l 1,7,-1
 838 279 l 1,0,-1
378 430 m 1,8,-1
 779 430 l 1,9,-1
 580 939 l 1,10,-1
 378 430 l 1,8,-1
922 1340 m 1,11,-1
 250 1340 l 1,12,-1
 250 1483 l 1,13,-1
 922 1483 l 1,14,-1
 922 1340 l 1,11,-1
EndSplineSet
Validated: 1
EndChar

StartChar: Abreve.c2sc
Encoding: 1114328 -1 213
Width: 1157
GlyphClass: 2
Flags: W
LayerCount: 2
Fore
SplineSet
838 279 m 1,0,-1
 318 279 l 1,1,-1
 208 0 l 1,2,-1
 19 0 l 1,3,-1
 498 1165 l 1,4,-1
 664 1165 l 1,5,-1
 1136 0 l 1,6,-1
 948 0 l 1,7,-1
 838 279 l 1,0,-1
378 430 m 1,8,-1
 779 430 l 1,9,-1
 580 939 l 1,10,-1
 378 430 l 1,8,-1
881 1526 m 1,11,12
 881 1405 881 1405 798.5 1331.5 c 0,13,14
 716 1258 716 1258 582 1258 c 0,15,16
 448 1258 448 1258 365 1332 c 0,17,18
 282 1406 282 1406 282 1526 c 1,19,-1
 433 1526 l 1,20,21
 433 1456 433 1456 471 1416.5 c 0,22,23
 509 1377 509 1377 582 1377 c 0,24,25
 652 1377 652 1377 691.5 1416 c 0,26,27
 731 1455 731 1455 731 1526 c 1,28,-1
 881 1526 l 1,11,12
EndSplineSet
Validated: 1
EndChar

StartChar: Aogonek.c2sc
Encoding: 1114329 -1 214
Width: 1157
GlyphClass: 2
Flags: W
LayerCount: 2
Fore
SplineSet
664 1165 m 1,0,-1
 1136 0 l 1,1,-1
 1098 0 l 1,2,-1
 1040 -45 l 2,3,4
 927 -136 927 -136 927 -222 c 0,5,6
 927 -294 927 -294 1005 -294 c 0,7,8
 1053 -294 1053 -294 1105 -268 c 1,9,-1
 1118 -389 l 1,10,11
 1048 -433 1048 -433 958 -433 c 0,12,13
 869 -433 869 -433 817.5 -381 c 128,-1,14
 766 -329 766 -329 766 -243 c 0,15,16
 766 -95 766 -95 942 13 c 1,17,-1
 838 279 l 1,18,-1
 318 279 l 1,19,-1
 208 0 l 1,20,-1
 19 0 l 1,21,-1
 498 1165 l 1,22,-1
 664 1165 l 1,0,-1
378 430 m 1,23,-1
 779 430 l 1,24,-1
 580 939 l 1,25,-1
 378 430 l 1,23,-1
EndSplineSet
Validated: 1
Substitution2: "'locl' Localized Forms in Latin lookup 6 subtable" Aogonek.c2sc.locl
EndChar

StartChar: Cacute.c2sc
Encoding: 1114330 -1 215
Width: 1148
GlyphClass: 2
Flags: W
LayerCount: 2
Fore
SplineSet
1072 377 m 1,0,1
 1052 190 1052 190 926 87 c 0,2,3
 800 -16 800 -16 591 -16 c 0,4,5
 367 -16 367 -16 231.5 131.5 c 0,6,7
 96 279 96 279 96 538 c 2,8,-1
 96 632 l 2,9,10
 96 796 96 796 157.5 920.5 c 0,11,12
 219 1045 219 1045 334.5 1113 c 0,13,14
 450 1181 450 1181 602 1181 c 0,15,16
 806 1181 806 1181 929.5 1075.5 c 0,17,18
 1053 970 1053 970 1072 783 c 1,19,-1
 887 783 l 1,20,21
 869 913 869 913 798.5 971 c 0,22,23
 728 1029 728 1029 602 1029 c 0,24,25
 449 1029 449 1029 365.5 927.5 c 0,26,27
 282 826 282 826 281 637 c 2,28,-1
 281 531 l 2,29,30
 281 342 281 342 360.5 238.5 c 0,31,32
 440 135 440 135 591 135 c 0,33,34
 726 135 726 135 796.5 190.5 c 0,35,36
 867 246 867 246 887 377 c 1,37,-1
 1072 377 l 1,0,1
677 1566 m 1,38,-1
 901 1566 l 1,39,-1
 633 1272 l 1,40,-1
 484 1272 l 1,41,-1
 677 1566 l 1,38,-1
EndSplineSet
Validated: 1
EndChar

StartChar: Ccircumflex.c2sc
Encoding: 1114331 -1 216
Width: 1148
GlyphClass: 2
Flags: W
LayerCount: 2
Fore
SplineSet
1072 377 m 1,0,1
 1052 190 1052 190 926 87 c 0,2,3
 800 -16 800 -16 591 -16 c 0,4,5
 367 -16 367 -16 231.5 131.5 c 0,6,7
 96 279 96 279 96 538 c 2,8,-1
 96 632 l 2,9,10
 96 796 96 796 157.5 920.5 c 0,11,12
 219 1045 219 1045 334.5 1113 c 0,13,14
 450 1181 450 1181 602 1181 c 0,15,16
 806 1181 806 1181 929.5 1075.5 c 0,17,18
 1053 970 1053 970 1072 783 c 1,19,-1
 887 783 l 1,20,21
 869 913 869 913 798.5 971 c 0,22,23
 728 1029 728 1029 602 1029 c 0,24,25
 449 1029 449 1029 365.5 927.5 c 0,26,27
 282 826 282 826 281 637 c 2,28,-1
 281 531 l 2,29,30
 281 342 281 342 360.5 238.5 c 0,31,32
 440 135 440 135 591 135 c 0,33,34
 726 135 726 135 796.5 190.5 c 0,35,36
 867 246 867 246 887 377 c 1,37,-1
 1072 377 l 1,0,1
889 1292 m 1,38,-1
 889 1282 l 1,39,-1
 736 1282 l 1,40,-1
 586 1452 l 1,41,-1
 437 1282 l 1,42,-1
 284 1282 l 1,43,-1
 284 1294 l 1,44,-1
 530 1566 l 1,45,-1
 642 1566 l 1,46,-1
 889 1292 l 1,38,-1
EndSplineSet
Validated: 1
EndChar

StartChar: Cdotaccent.c2sc
Encoding: 1114332 -1 217
Width: 1148
GlyphClass: 2
Flags: W
LayerCount: 2
Fore
SplineSet
477 1397 m 256,0,1
 477 1442 477 1442 504.5 1473 c 0,2,3
 532 1504 532 1504 586 1504 c 0,4,5
 640 1504 640 1504 668 1473 c 0,6,7
 696 1442 696 1442 696 1397 c 0,8,9
 696 1352 696 1352 668 1322 c 0,10,11
 640 1292 640 1292 586 1292 c 0,12,13
 532 1292 532 1292 504.5 1322 c 0,14,15
 477 1352 477 1352 477 1397 c 256,0,1
1072 377 m 1,16,17
 1052 190 1052 190 926 87 c 0,18,19
 800 -16 800 -16 591 -16 c 0,20,21
 367 -16 367 -16 231.5 131.5 c 0,22,23
 96 279 96 279 96 538 c 2,24,-1
 96 632 l 2,25,26
 96 796 96 796 157.5 920.5 c 0,27,28
 219 1045 219 1045 334.5 1113 c 0,29,30
 450 1181 450 1181 602 1181 c 0,31,32
 806 1181 806 1181 929.5 1075.5 c 0,33,34
 1053 970 1053 970 1072 783 c 1,35,-1
 887 783 l 1,36,37
 869 913 869 913 798.5 971 c 0,38,39
 728 1029 728 1029 602 1029 c 0,40,41
 449 1029 449 1029 365.5 927.5 c 0,42,43
 282 826 282 826 281 637 c 2,44,-1
 281 531 l 2,45,46
 281 342 281 342 360.5 238.5 c 0,47,48
 440 135 440 135 591 135 c 0,49,50
 726 135 726 135 796.5 190.5 c 0,51,52
 867 246 867 246 887 377 c 1,53,-1
 1072 377 l 1,16,17
EndSplineSet
Validated: 1
EndChar

StartChar: Ccaron.c2sc
Encoding: 1114333 -1 218
Width: 1148
GlyphClass: 2
Flags: W
LayerCount: 2
Fore
SplineSet
1072 377 m 1,0,1
 1052 190 1052 190 926 87 c 0,2,3
 800 -16 800 -16 591 -16 c 0,4,5
 367 -16 367 -16 231.5 131.5 c 0,6,7
 96 279 96 279 96 538 c 2,8,-1
 96 632 l 2,9,10
 96 796 96 796 157.5 920.5 c 0,11,12
 219 1045 219 1045 334.5 1113 c 0,13,14
 450 1181 450 1181 602 1181 c 0,15,16
 806 1181 806 1181 929.5 1075.5 c 0,17,18
 1053 970 1053 970 1072 783 c 1,19,-1
 887 783 l 1,20,21
 869 913 869 913 798.5 971 c 0,22,23
 728 1029 728 1029 602 1029 c 0,24,25
 449 1029 449 1029 365.5 927.5 c 0,26,27
 282 826 282 826 281 637 c 2,28,-1
 281 531 l 2,29,30
 281 342 281 342 360.5 238.5 c 0,31,32
 440 135 440 135 591 135 c 0,33,34
 726 135 726 135 796.5 190.5 c 0,35,36
 867 246 867 246 887 377 c 1,37,-1
 1072 377 l 1,0,1
585 1396 m 1,38,-1
 735 1566 l 1,39,-1
 895 1566 l 1,40,-1
 895 1556 l 1,41,-1
 641 1282 l 1,42,-1
 528 1282 l 1,43,-1
 277 1556 l 1,44,-1
 277 1566 l 1,45,-1
 434 1566 l 1,46,-1
 585 1396 l 1,38,-1
EndSplineSet
Validated: 1
EndChar

StartChar: Dcaron.c2sc
Encoding: 1114334 -1 219
Width: 1152
GlyphClass: 2
Flags: W
LayerCount: 2
Fore
SplineSet
138 0 m 1,0,-1
 138 1165 l 1,1,-1
 499 1165 l 2,2,3
 661 1165 661 1165 786.5 1098.5 c 0,4,5
 912 1032 912 1032 982 909 c 0,6,7
 1052 786 1052 786 1055 627 c 2,8,-1
 1055 550 l 2,9,10
 1055 298 1055 298 899.5 149 c 0,11,12
 744 0 744 0 481 0 c 2,13,-1
 138 0 l 1,0,-1
323 1012 m 1,14,-1
 323 151 l 1,15,-1
 487 151 l 2,16,17
 673 151 673 151 772 255 c 0,18,19
 871 359 871 359 871 551 c 2,20,-1
 871 615 l 2,21,22
 871 807 871 807 776.5 909.5 c 0,23,24
 682 1012 682 1012 499 1012 c 2,25,-1
 323 1012 l 1,14,-1
498 1396 m 1,26,-1
 648 1566 l 1,27,-1
 808 1566 l 1,28,-1
 808 1556 l 1,29,-1
 554 1282 l 1,30,-1
 441 1282 l 1,31,-1
 190 1556 l 1,32,-1
 190 1566 l 1,33,-1
 347 1566 l 1,34,-1
 498 1396 l 1,26,-1
EndSplineSet
Validated: 1
EndChar

StartChar: Emacron.c2sc
Encoding: 1114335 -1 220
Width: 998
GlyphClass: 2
Flags: W
LayerCount: 2
Fore
SplineSet
855 526 m 1,0,-1
 323 526 l 1,1,-1
 323 151 l 1,2,-1
 942 151 l 1,3,-1
 942 0 l 1,4,-1
 138 0 l 1,5,-1
 138 1165 l 1,6,-1
 936 1165 l 1,7,-1
 936 1012 l 1,8,-1
 323 1012 l 1,9,-1
 323 678 l 1,10,-1
 855 678 l 1,11,-1
 855 526 l 1,0,-1
877 1340 m 1,12,-1
 205 1340 l 1,13,-1
 205 1483 l 1,14,-1
 877 1483 l 1,15,-1
 877 1340 l 1,12,-1
EndSplineSet
Validated: 1
EndChar

StartChar: Ebreve.c2sc
Encoding: 1114336 -1 221
Width: 998
GlyphClass: 2
Flags: W
LayerCount: 2
Fore
SplineSet
855 526 m 1,0,-1
 323 526 l 1,1,-1
 323 151 l 1,2,-1
 942 151 l 1,3,-1
 942 0 l 1,4,-1
 138 0 l 1,5,-1
 138 1165 l 1,6,-1
 936 1165 l 1,7,-1
 936 1012 l 1,8,-1
 323 1012 l 1,9,-1
 323 678 l 1,10,-1
 855 678 l 1,11,-1
 855 526 l 1,0,-1
836 1526 m 1,12,13
 836 1405 836 1405 753.5 1331.5 c 0,14,15
 671 1258 671 1258 537 1258 c 0,16,17
 403 1258 403 1258 320 1332 c 0,18,19
 237 1406 237 1406 237 1526 c 1,20,-1
 388 1526 l 1,21,22
 388 1456 388 1456 426 1416.5 c 0,23,24
 464 1377 464 1377 537 1377 c 0,25,26
 607 1377 607 1377 646.5 1416 c 0,27,28
 686 1455 686 1455 686 1526 c 1,29,-1
 836 1526 l 1,12,13
EndSplineSet
Validated: 1
EndChar

StartChar: Edotaccent.c2sc
Encoding: 1114337 -1 222
Width: 998
GlyphClass: 2
Flags: W
LayerCount: 2
Fore
SplineSet
427 1397 m 256,0,1
 427 1442 427 1442 454.5 1473 c 0,2,3
 482 1504 482 1504 536 1504 c 0,4,5
 590 1504 590 1504 618 1473 c 0,6,7
 646 1442 646 1442 646 1397 c 0,8,9
 646 1352 646 1352 618 1322 c 0,10,11
 590 1292 590 1292 536 1292 c 0,12,13
 482 1292 482 1292 454.5 1322 c 0,14,15
 427 1352 427 1352 427 1397 c 256,0,1
855 526 m 1,16,-1
 323 526 l 1,17,-1
 323 151 l 1,18,-1
 942 151 l 1,19,-1
 942 0 l 1,20,-1
 138 0 l 1,21,-1
 138 1165 l 1,22,-1
 936 1165 l 1,23,-1
 936 1012 l 1,24,-1
 323 1012 l 1,25,-1
 323 678 l 1,26,-1
 855 678 l 1,27,-1
 855 526 l 1,16,-1
EndSplineSet
Validated: 1
EndChar

StartChar: Eogonek.c2sc
Encoding: 1114338 -1 223
Width: 998
GlyphClass: 2
Flags: W
LayerCount: 2
Fore
SplineSet
855 526 m 1,0,-1
 323 526 l 1,1,-1
 323 151 l 1,2,-1
 942 151 l 1,3,-1
 942 0 l 1,4,-1
 881 0 l 1,5,-1
 823 -45 l 2,6,7
 710 -136 710 -136 710 -222 c 0,8,9
 710 -294 710 -294 788 -294 c 0,10,11
 836 -294 836 -294 888 -268 c 1,12,-1
 901 -389 l 1,13,14
 831 -433 831 -433 741 -433 c 0,15,16
 652 -433 652 -433 600.5 -381 c 128,-1,17
 549 -329 549 -329 549 -243 c 0,18,19
 549 -105 549 -105 704 0 c 1,20,-1
 138 0 l 1,21,-1
 138 1165 l 1,22,-1
 936 1165 l 1,23,-1
 936 1012 l 1,24,-1
 323 1012 l 1,25,-1
 323 678 l 1,26,-1
 855 678 l 1,27,-1
 855 526 l 1,0,-1
EndSplineSet
Validated: 1
Substitution2: "'locl' Localized Forms in Latin lookup 6 subtable" Eogonek.c2sc.locl
EndChar

StartChar: Ecaron.c2sc
Encoding: 1114339 -1 224
Width: 998
GlyphClass: 2
Flags: W
LayerCount: 2
Fore
SplineSet
855 526 m 1,0,-1
 323 526 l 1,1,-1
 323 151 l 1,2,-1
 942 151 l 1,3,-1
 942 0 l 1,4,-1
 138 0 l 1,5,-1
 138 1165 l 1,6,-1
 936 1165 l 1,7,-1
 936 1012 l 1,8,-1
 323 1012 l 1,9,-1
 323 678 l 1,10,-1
 855 678 l 1,11,-1
 855 526 l 1,0,-1
535 1396 m 1,12,-1
 685 1566 l 1,13,-1
 845 1566 l 1,14,-1
 845 1556 l 1,15,-1
 591 1282 l 1,16,-1
 478 1282 l 1,17,-1
 227 1556 l 1,18,-1
 227 1566 l 1,19,-1
 384 1566 l 1,20,-1
 535 1396 l 1,12,-1
EndSplineSet
Validated: 1
EndChar

StartChar: Gcircumflex.c2sc
Encoding: 1114340 -1 225
Width: 1196
GlyphClass: 2
Flags: W
LayerCount: 2
Fore
SplineSet
1077 150 m 1,0,1
 1011 67 1011 67 894.5 25.5 c 0,2,3
 778 -16 778 -16 627 -16 c 0,4,5
 389 -16 389 -16 245 133 c 0,6,7
 101 282 101 282 99 534 c 2,8,-1
 99 624 l 2,9,10
 99 886 99 886 232.5 1033.5 c 0,11,12
 366 1181 366 1181 608 1181 c 0,13,14
 808 1181 808 1181 929 1087 c 0,15,16
 1050 993 1050 993 1077 812 c 1,17,-1
 893 812 l 1,18,19
 855 1029 855 1029 610 1029 c 0,20,21
 451 1029 451 1029 368 926 c 0,22,23
 285 823 285 823 285 624 c 2,24,-1
 285 540 l 2,25,26
 285 350 285 350 377.5 242.5 c 0,27,28
 470 135 470 135 630 135 c 0,29,30
 812 135 812 135 893 209 c 1,31,-1
 893 447 l 1,32,-1
 612 447 l 1,33,-1
 612 591 l 1,34,-1
 1077 591 l 1,35,-1
 1077 150 l 1,0,1
887 1292 m 1,36,-1
 887 1282 l 1,37,-1
 734 1282 l 1,38,-1
 584 1452 l 1,39,-1
 435 1282 l 1,40,-1
 282 1282 l 1,41,-1
 282 1294 l 1,42,-1
 528 1566 l 1,43,-1
 640 1566 l 1,44,-1
 887 1292 l 1,36,-1
EndSplineSet
Validated: 1
EndChar

StartChar: Gbreve.c2sc
Encoding: 1114341 -1 226
Width: 1196
GlyphClass: 2
Flags: W
LayerCount: 2
Fore
SplineSet
1077 150 m 1,0,1
 1011 67 1011 67 894.5 25.5 c 0,2,3
 778 -16 778 -16 627 -16 c 0,4,5
 389 -16 389 -16 245 133 c 0,6,7
 101 282 101 282 99 534 c 2,8,-1
 99 624 l 2,9,10
 99 886 99 886 232.5 1033.5 c 0,11,12
 366 1181 366 1181 608 1181 c 0,13,14
 808 1181 808 1181 929 1087 c 0,15,16
 1050 993 1050 993 1077 812 c 1,17,-1
 893 812 l 1,18,19
 855 1029 855 1029 610 1029 c 0,20,21
 451 1029 451 1029 368 926 c 0,22,23
 285 823 285 823 285 624 c 2,24,-1
 285 540 l 2,25,26
 285 350 285 350 377.5 242.5 c 0,27,28
 470 135 470 135 630 135 c 0,29,30
 812 135 812 135 893 209 c 1,31,-1
 893 447 l 1,32,-1
 612 447 l 1,33,-1
 612 591 l 1,34,-1
 1077 591 l 1,35,-1
 1077 150 l 1,0,1
884 1526 m 1,36,37
 884 1405 884 1405 801.5 1331.5 c 0,38,39
 719 1258 719 1258 585 1258 c 0,40,41
 451 1258 451 1258 368 1332 c 0,42,43
 285 1406 285 1406 285 1526 c 1,44,-1
 436 1526 l 1,45,46
 436 1456 436 1456 474 1416.5 c 0,47,48
 512 1377 512 1377 585 1377 c 0,49,50
 655 1377 655 1377 694.5 1416 c 0,51,52
 734 1455 734 1455 734 1526 c 1,53,-1
 884 1526 l 1,36,37
EndSplineSet
Validated: 1
EndChar

StartChar: Gdotaccent.c2sc
Encoding: 1114342 -1 227
Width: 1196
GlyphClass: 2
Flags: W
LayerCount: 2
Fore
SplineSet
475 1397 m 256,0,1
 475 1442 475 1442 502.5 1473 c 0,2,3
 530 1504 530 1504 584 1504 c 0,4,5
 638 1504 638 1504 666 1473 c 0,6,7
 694 1442 694 1442 694 1397 c 0,8,9
 694 1352 694 1352 666 1322 c 0,10,11
 638 1292 638 1292 584 1292 c 0,12,13
 530 1292 530 1292 502.5 1322 c 0,14,15
 475 1352 475 1352 475 1397 c 256,0,1
1077 150 m 1,16,17
 1011 67 1011 67 894.5 25.5 c 0,18,19
 778 -16 778 -16 627 -16 c 0,20,21
 389 -16 389 -16 245 133 c 0,22,23
 101 282 101 282 99 534 c 2,24,-1
 99 624 l 2,25,26
 99 886 99 886 232.5 1033.5 c 0,27,28
 366 1181 366 1181 608 1181 c 0,29,30
 808 1181 808 1181 929 1087 c 0,31,32
 1050 993 1050 993 1077 812 c 1,33,-1
 893 812 l 1,34,35
 855 1029 855 1029 610 1029 c 0,36,37
 451 1029 451 1029 368 926 c 0,38,39
 285 823 285 823 285 624 c 2,40,-1
 285 540 l 2,41,42
 285 350 285 350 377.5 242.5 c 0,43,44
 470 135 470 135 630 135 c 0,45,46
 812 135 812 135 893 209 c 1,47,-1
 893 447 l 1,48,-1
 612 447 l 1,49,-1
 612 591 l 1,50,-1
 1077 591 l 1,51,-1
 1077 150 l 1,16,17
EndSplineSet
Validated: 1
EndChar

StartChar: uni0122.c2sc
Encoding: 1114343 -1 228
Width: 1196
GlyphClass: 2
Flags: W
LayerCount: 2
Fore
SplineSet
1077 150 m 1
 1011 67 1011 67 894.5 25.5 c 0
 778 -16 778 -16 627 -16 c 0
 389 -16 389 -16 245 133 c 0
 101 282 101 282 99 534 c 2
 99 624 l 2
 99 886 99 886 232.5 1033.5 c 0
 366 1181 366 1181 608 1181 c 0
 808 1181 808 1181 929 1087 c 0
 1050 993 1050 993 1077 812 c 1
 893 812 l 1
 855 1029 855 1029 610 1029 c 0
 451 1029 451 1029 368 926 c 0
 285 823 285 823 285 624 c 2
 285 540 l 2
 285 350 285 350 377.5 242.5 c 0
 470 135 470 135 630 135 c 0
 812 135 812 135 893 209 c 1
 893 447 l 1
 612 447 l 1
 612 591 l 1
 1077 591 l 1
 1077 150 l 1
EndSplineSet
Refer: 111 63171 N 1 0 0 1 335 -355 2
Validated: 1
EndChar

StartChar: Hcircumflex.c2sc
Encoding: 1114344 -1 229
Width: 1251
GlyphClass: 2
Flags: W
LayerCount: 2
Fore
SplineSet
1112 0 m 1,0,-1
 927 0 l 1,1,-1
 927 498 l 1,2,-1
 323 498 l 1,3,-1
 323 0 l 1,4,-1
 138 0 l 1,5,-1
 138 1165 l 1,6,-1
 323 1165 l 1,7,-1
 323 650 l 1,8,-1
 927 650 l 1,9,-1
 927 1165 l 1,10,-1
 1112 1165 l 1,11,-1
 1112 0 l 1,0,-1
918 1292 m 1,12,-1
 918 1282 l 1,13,-1
 765 1282 l 1,14,-1
 615 1452 l 1,15,-1
 466 1282 l 1,16,-1
 313 1282 l 1,17,-1
 313 1294 l 1,18,-1
 559 1566 l 1,19,-1
 671 1566 l 1,20,-1
 918 1292 l 1,12,-1
EndSplineSet
Validated: 1
EndChar

StartChar: Itilde.c2sc
Encoding: 1114345 -1 230
Width: 488
GlyphClass: 2
Flags: W
LayerCount: 2
Fore
SplineSet
600 1534 m 1,0,1
 600 1426 600 1426 538.5 1359 c 0,2,3
 477 1292 477 1292 385 1292 c 0,4,5
 344 1292 344 1292 314 1302 c 0,6,7
 284 1312 284 1312 235.5 1343 c 0,8,9
 187 1374 187 1374 165.5 1380.5 c 0,10,11
 144 1387 144 1387 116 1387 c 0,12,13
 75 1387 75 1387 46 1355.5 c 0,14,15
 17 1324 17 1324 17 1275 c 1,16,-1
 -107 1282 l 1,17,18
 -107 1389 -107 1389 -46.5 1459 c 0,19,20
 14 1529 14 1529 107 1529 c 0,21,22
 142 1529 142 1529 170 1519 c 0,23,24
 198 1509 198 1509 246 1480 c 0,25,26
 294 1451 294 1451 319.5 1442 c 0,27,28
 345 1433 345 1433 376 1433 c 0,29,30
 419 1433 419 1433 447.5 1467 c 0,31,32
 476 1501 476 1501 476 1546 c 1,33,-1
 600 1534 l 1,0,1
337 0 m 1,34,-1
 151 0 l 1,35,-1
 151 1165 l 1,36,-1
 337 1165 l 1,37,-1
 337 0 l 1,34,-1
EndSplineSet
Validated: 1
EndChar

StartChar: Imacron.c2sc
Encoding: 1114346 -1 231
Width: 488
GlyphClass: 2
Flags: W
LayerCount: 2
Fore
SplineSet
337 0 m 1,0,-1
 151 0 l 1,1,-1
 151 1165 l 1,2,-1
 337 1165 l 1,3,-1
 337 0 l 1,0,-1
586 1340 m 1,4,-1
 -86 1340 l 1,5,-1
 -86 1483 l 1,6,-1
 586 1483 l 1,7,-1
 586 1340 l 1,4,-1
EndSplineSet
Validated: 1
EndChar

StartChar: Ibreve.c2sc
Encoding: 1114347 -1 232
Width: 488
GlyphClass: 2
Flags: W
LayerCount: 2
Fore
SplineSet
337 0 m 1,0,-1
 151 0 l 1,1,-1
 151 1165 l 1,2,-1
 337 1165 l 1,3,-1
 337 0 l 1,0,-1
545 1526 m 1,4,5
 545 1405 545 1405 462.5 1331.5 c 0,6,7
 380 1258 380 1258 246 1258 c 0,8,9
 112 1258 112 1258 29 1332 c 0,10,11
 -54 1406 -54 1406 -54 1526 c 1,12,-1
 97 1526 l 1,13,14
 97 1456 97 1456 135 1416.5 c 0,15,16
 173 1377 173 1377 246 1377 c 0,17,18
 316 1377 316 1377 355.5 1416 c 0,19,20
 395 1455 395 1455 395 1526 c 1,21,-1
 545 1526 l 1,4,5
EndSplineSet
Validated: 1
EndChar

StartChar: Iogonek.c2sc
Encoding: 1114348 -1 233
Width: 488
GlyphClass: 2
Flags: W
LayerCount: 2
Fore
SplineSet
338 0 m 1,0,-1
 280 -45 l 2,1,2
 167 -136 167 -136 167 -222 c 0,3,4
 167 -294 167 -294 245 -294 c 0,5,6
 293 -294 293 -294 345 -268 c 1,7,-1
 358 -389 l 1,8,9
 288 -433 288 -433 198 -433 c 0,10,11
 109 -433 109 -433 57.5 -381 c 0,12,13
 6 -329 6 -329 6 -243 c 0,14,15
 6 -154 6 -154 73 -77 c 0,16,17
 140 0 140 0 263 56 c 1,18,-1
 338 0 l 1,0,-1
337 0 m 1,19,-1
 151 0 l 1,20,-1
 151 1165 l 1,21,-1
 337 1165 l 1,22,-1
 337 0 l 1,19,-1
EndSplineSet
Validated: 5
EndChar

StartChar: Idotaccent.c2sc
Encoding: 1114349 -1 234
Width: 488
GlyphClass: 2
Flags: W
LayerCount: 2
Fore
SplineSet
136 1397 m 256,0,1
 136 1442 136 1442 163.5 1473 c 0,2,3
 191 1504 191 1504 245 1504 c 0,4,5
 299 1504 299 1504 327 1473 c 0,6,7
 355 1442 355 1442 355 1397 c 0,8,9
 355 1352 355 1352 327 1322 c 0,10,11
 299 1292 299 1292 245 1292 c 0,12,13
 191 1292 191 1292 163.5 1322 c 0,14,15
 136 1352 136 1352 136 1397 c 256,0,1
337 0 m 1,16,-1
 151 0 l 1,17,-1
 151 1165 l 1,18,-1
 337 1165 l 1,19,-1
 337 0 l 1,16,-1
EndSplineSet
Validated: 1
EndChar

StartChar: Jcircumflex.c2sc
Encoding: 1114350 -1 235
Width: 975
GlyphClass: 2
Flags: W
LayerCount: 2
Fore
SplineSet
658 1165 m 1,0,-1
 845 1165 l 1,1,-1
 845 338 l 2,2,3
 845 181 845 181 739 82.5 c 0,4,5
 633 -16 633 -16 456 -16 c 0,6,7
 262 -16 262 -16 152.5 75.5 c 0,8,9
 43 167 43 167 43 331 c 1,10,-1
 229 331 l 1,11,12
 229 237 229 237 285.5 186 c 0,13,14
 342 135 342 135 456 135 c 0,15,16
 548 135 548 135 603 189.5 c 0,17,18
 658 244 658 244 658 339 c 2,19,-1
 658 1165 l 1,0,-1
1037 1292 m 1,20,-1
 1037 1282 l 1,21,-1
 884 1282 l 1,22,-1
 734 1452 l 1,23,-1
 585 1282 l 1,24,-1
 432 1282 l 1,25,-1
 432 1294 l 1,26,-1
 678 1566 l 1,27,-1
 790 1566 l 1,28,-1
 1037 1292 l 1,20,-1
EndSplineSet
Validated: 1
EndChar

StartChar: uni0136.c2sc
Encoding: 1114351 -1 236
Width: 1108
GlyphClass: 2
Flags: W
LayerCount: 2
Fore
SplineSet
470 519 m 1
 323 377 l 1
 323 0 l 1
 138 0 l 1
 138 1165 l 1
 323 1165 l 1
 323 610 l 1
 453 754 l 1
 850 1165 l 1
 1077 1165 l 1
 598 646 l 1
 1111 0 l 1
 886 0 l 1
 470 519 l 1
EndSplineSet
Refer: 111 63171 N 1 0 0 1 276 -346 2
Validated: 1
EndChar

StartChar: Lacute.c2sc
Encoding: 1114352 -1 237
Width: 948
GlyphClass: 2
Flags: W
LayerCount: 2
Fore
SplineSet
323 151 m 1,0,-1
 907 151 l 1,1,-1
 907 0 l 1,2,-1
 138 0 l 1,3,-1
 138 1165 l 1,4,-1
 323 1165 l 1,5,-1
 323 151 l 1,0,-1
323 1566 m 1,6,-1
 547 1566 l 1,7,-1
 279 1272 l 1,8,-1
 130 1272 l 1,9,-1
 323 1566 l 1,6,-1
EndSplineSet
Validated: 1
EndChar

StartChar: uni013B.c2sc
Encoding: 1114353 -1 238
Width: 948
GlyphClass: 2
Flags: W
LayerCount: 2
Fore
SplineSet
323 151 m 1
 907 151 l 1
 907 0 l 1
 138 0 l 1
 138 1165 l 1
 323 1165 l 1
 323 151 l 1
EndSplineSet
Refer: 111 63171 N 1 0 0 1 272 -344 2
Validated: 1
EndChar

StartChar: Lcaron.c2sc
Encoding: 1114354 -1 239
Width: 948
GlyphClass: 2
Flags: W
LayerCount: 2
Fore
SplineSet
323 151 m 1
 907 151 l 1
 907 0 l 1
 138 0 l 1
 138 1165 l 1
 323 1165 l 1
 323 151 l 1
EndSplineSet
Refer: 111 63171 N 1 0 0 1 382 927 2
Validated: 1
EndChar

StartChar: Ldot.c2sc
Encoding: 1114355 -1 240
Width: 948
GlyphClass: 2
Flags: W
LayerCount: 2
Fore
SplineSet
499 654 m 256,0,1
 499 699 499 699 526.5 730 c 0,2,3
 554 761 554 761 608 761 c 0,4,5
 662 761 662 761 690 730 c 0,6,7
 718 699 718 699 718 654 c 0,8,9
 718 609 718 609 690 579 c 0,10,11
 662 549 662 549 608 549 c 0,12,13
 554 549 554 549 526.5 579 c 0,14,15
 499 609 499 609 499 654 c 256,0,1
323 151 m 1,16,-1
 907 151 l 1,17,-1
 907 0 l 1,18,-1
 138 0 l 1,19,-1
 138 1165 l 1,20,-1
 323 1165 l 1,21,-1
 323 151 l 1,16,-1
EndSplineSet
Validated: 1
EndChar

StartChar: Nacute.c2sc
Encoding: 1114356 -1 241
Width: 1251
GlyphClass: 2
Flags: W
LayerCount: 2
Fore
SplineSet
1112 0 m 1,0,-1
 928 0 l 1,1,-1
 323 876 l 1,2,-1
 323 0 l 1,3,-1
 138 0 l 1,4,-1
 138 1165 l 1,5,-1
 323 1165 l 1,6,-1
 928 288 l 1,7,-1
 928 1165 l 1,8,-1
 1112 1165 l 1,9,-1
 1112 0 l 1,0,-1
715 1566 m 1,10,-1
 939 1566 l 1,11,-1
 671 1272 l 1,12,-1
 522 1272 l 1,13,-1
 715 1566 l 1,10,-1
EndSplineSet
Validated: 1
EndChar

StartChar: uni0145.c2sc
Encoding: 1114357 -1 242
Width: 1251
GlyphClass: 2
Flags: W
LayerCount: 2
Fore
SplineSet
1112 0 m 1
 928 0 l 1
 323 876 l 1
 323 0 l 1
 138 0 l 1
 138 1165 l 1
 323 1165 l 1
 928 288 l 1
 928 1165 l 1
 1112 1165 l 1
 1112 0 l 1
EndSplineSet
Refer: 111 63171 N 1 0 0 1 364 -348 2
Validated: 1
EndChar

StartChar: Ncaron.c2sc
Encoding: 1114358 -1 243
Width: 1251
GlyphClass: 2
Flags: W
LayerCount: 2
Fore
SplineSet
1112 0 m 1,0,-1
 928 0 l 1,1,-1
 323 876 l 1,2,-1
 323 0 l 1,3,-1
 138 0 l 1,4,-1
 138 1165 l 1,5,-1
 323 1165 l 1,6,-1
 928 288 l 1,7,-1
 928 1165 l 1,8,-1
 1112 1165 l 1,9,-1
 1112 0 l 1,0,-1
623 1396 m 1,10,-1
 773 1566 l 1,11,-1
 933 1566 l 1,12,-1
 933 1556 l 1,13,-1
 679 1282 l 1,14,-1
 566 1282 l 1,15,-1
 315 1556 l 1,16,-1
 315 1566 l 1,17,-1
 472 1566 l 1,18,-1
 623 1396 l 1,10,-1
EndSplineSet
Validated: 1
EndChar

StartChar: Omacron.c2sc
Encoding: 1114359 -1 244
Width: 1211
GlyphClass: 2
Flags: W
LayerCount: 2
Fore
SplineSet
1114 548 m 2,0,1
 1114 287 1114 287 976 135.5 c 0,2,3
 838 -16 838 -16 606 -16 c 0,4,5
 377 -16 377 -16 236.5 137 c 0,6,7
 96 290 96 290 96 553 c 2,8,-1
 96 615 l 2,9,10
 96 873 96 873 235.5 1027 c 0,11,12
 375 1181 375 1181 604 1181 c 0,13,14
 837 1181 837 1181 974.5 1029 c 0,15,16
 1112 877 1112 877 1114 622 c 2,17,-1
 1114 548 l 2,0,1
931 617 m 2,18,19
 931 815 931 815 845 920 c 0,20,21
 759 1025 759 1025 604 1025 c 0,22,23
 454 1025 454 1025 366.5 918 c 0,24,25
 279 811 279 811 279 614 c 2,26,-1
 279 548 l 2,27,28
 279 353 279 353 367 245.5 c 0,29,30
 455 138 455 138 606 138 c 0,31,32
 762 138 762 138 846.5 243.5 c 0,33,34
 931 349 931 349 931 548 c 2,35,-1
 931 617 l 2,18,19
947 1340 m 1,36,-1
 275 1340 l 1,37,-1
 275 1483 l 1,38,-1
 947 1483 l 1,39,-1
 947 1340 l 1,36,-1
EndSplineSet
Validated: 1
EndChar

StartChar: Obreve.c2sc
Encoding: 1114360 -1 245
Width: 1211
GlyphClass: 2
Flags: W
LayerCount: 2
Fore
SplineSet
1114 548 m 2,0,1
 1114 287 1114 287 976 135.5 c 0,2,3
 838 -16 838 -16 606 -16 c 0,4,5
 377 -16 377 -16 236.5 137 c 0,6,7
 96 290 96 290 96 553 c 2,8,-1
 96 615 l 2,9,10
 96 873 96 873 235.5 1027 c 0,11,12
 375 1181 375 1181 604 1181 c 0,13,14
 837 1181 837 1181 974.5 1029 c 0,15,16
 1112 877 1112 877 1114 622 c 2,17,-1
 1114 548 l 2,0,1
931 617 m 2,18,19
 931 815 931 815 845 920 c 0,20,21
 759 1025 759 1025 604 1025 c 0,22,23
 454 1025 454 1025 366.5 918 c 0,24,25
 279 811 279 811 279 614 c 2,26,-1
 279 548 l 2,27,28
 279 353 279 353 367 245.5 c 0,29,30
 455 138 455 138 606 138 c 0,31,32
 762 138 762 138 846.5 243.5 c 0,33,34
 931 349 931 349 931 548 c 2,35,-1
 931 617 l 2,18,19
906 1526 m 1,36,37
 906 1405 906 1405 823.5 1331.5 c 0,38,39
 741 1258 741 1258 607 1258 c 0,40,41
 473 1258 473 1258 390 1332 c 0,42,43
 307 1406 307 1406 307 1526 c 1,44,-1
 458 1526 l 1,45,46
 458 1456 458 1456 496 1416.5 c 0,47,48
 534 1377 534 1377 607 1377 c 0,49,50
 677 1377 677 1377 716.5 1416 c 0,51,52
 756 1455 756 1455 756 1526 c 1,53,-1
 906 1526 l 1,36,37
EndSplineSet
Validated: 1
EndChar

StartChar: Ohungarumlaut.c2sc
Encoding: 1114361 -1 246
Width: 1211
GlyphClass: 2
Flags: W
LayerCount: 2
Fore
SplineSet
868 1565 m 1,0,-1
 1075 1565 l 1,1,-1
 806 1262 l 1,2,-1
 637 1262 l 1,3,-1
 868 1565 l 1,0,-1
528 1565 m 1,4,-1
 725 1565 l 1,5,-1
 507 1262 l 1,6,-1
 357 1262 l 1,7,-1
 528 1565 l 1,4,-1
1114 548 m 2,8,9
 1114 287 1114 287 976 135.5 c 0,10,11
 838 -16 838 -16 606 -16 c 0,12,13
 377 -16 377 -16 236.5 137 c 0,14,15
 96 290 96 290 96 553 c 2,16,-1
 96 615 l 2,17,18
 96 873 96 873 235.5 1027 c 0,19,20
 375 1181 375 1181 604 1181 c 0,21,22
 837 1181 837 1181 974.5 1029 c 0,23,24
 1112 877 1112 877 1114 622 c 2,25,-1
 1114 548 l 2,8,9
931 617 m 2,26,27
 931 815 931 815 845 920 c 0,28,29
 759 1025 759 1025 604 1025 c 0,30,31
 454 1025 454 1025 366.5 918 c 0,32,33
 279 811 279 811 279 614 c 2,34,-1
 279 548 l 2,35,36
 279 353 279 353 367 245.5 c 0,37,38
 455 138 455 138 606 138 c 0,39,40
 762 138 762 138 846.5 243.5 c 0,41,42
 931 349 931 349 931 548 c 2,43,-1
 931 617 l 2,26,27
EndSplineSet
Validated: 1
EndChar

StartChar: Racute.c2sc
Encoding: 1114362 -1 247
Width: 1098
GlyphClass: 2
Flags: W
LayerCount: 2
Fore
SplineSet
602 449 m 1,0,-1
 323 449 l 1,1,-1
 323 0 l 1,2,-1
 138 0 l 1,3,-1
 138 1165 l 1,4,-1
 564 1165 l 2,5,6
 777 1165 777 1165 892.5 1072 c 0,7,8
 1008 979 1008 979 1008 809 c 0,9,10
 1008 581 1008 581 773 492 c 1,11,-1
 1061 10 l 1,12,-1
 1061 0 l 1,13,-1
 863 0 l 1,14,-1
 602 449 l 1,0,-1
323 600 m 1,15,-1
 569 600 l 2,16,17
 686 600 686 600 754.5 654.5 c 0,18,19
 823 709 823 709 823 802 c 0,20,21
 823 902 823 902 756 957 c 0,22,23
 689 1012 689 1012 563 1012 c 2,24,-1
 323 1012 l 1,25,-1
 323 600 l 1,15,-1
611 1566 m 1,26,-1
 835 1566 l 1,27,-1
 567 1272 l 1,28,-1
 418 1272 l 1,29,-1
 611 1566 l 1,26,-1
EndSplineSet
Validated: 1
EndChar

StartChar: uni0156.c2sc
Encoding: 1114363 -1 248
Width: 1098
GlyphClass: 2
Flags: W
LayerCount: 2
Fore
SplineSet
602 449 m 1
 323 449 l 1
 323 0 l 1
 138 0 l 1
 138 1165 l 1
 564 1165 l 2
 777 1165 777 1165 892.5 1072 c 0
 1008 979 1008 979 1008 809 c 0
 1008 581 1008 581 773 492 c 1
 1061 10 l 1
 1061 0 l 1
 863 0 l 1
 602 449 l 1
323 600 m 1
 569 600 l 2
 686 600 686 600 754.5 654.5 c 0
 823 709 823 709 823 802 c 0
 823 902 823 902 756 957 c 0
 689 1012 689 1012 563 1012 c 2
 323 1012 l 1
 323 600 l 1
EndSplineSet
Refer: 111 63171 N 1 0 0 1 269 -344 2
Validated: 1
EndChar

StartChar: Rcaron.c2sc
Encoding: 1114364 -1 249
Width: 1098
GlyphClass: 2
Flags: W
LayerCount: 2
Fore
SplineSet
602 449 m 1,0,-1
 323 449 l 1,1,-1
 323 0 l 1,2,-1
 138 0 l 1,3,-1
 138 1165 l 1,4,-1
 564 1165 l 2,5,6
 777 1165 777 1165 892.5 1072 c 0,7,8
 1008 979 1008 979 1008 809 c 0,9,10
 1008 581 1008 581 773 492 c 1,11,-1
 1061 10 l 1,12,-1
 1061 0 l 1,13,-1
 863 0 l 1,14,-1
 602 449 l 1,0,-1
323 600 m 1,15,-1
 569 600 l 2,16,17
 686 600 686 600 754.5 654.5 c 0,18,19
 823 709 823 709 823 802 c 0,20,21
 823 902 823 902 756 957 c 0,22,23
 689 1012 689 1012 563 1012 c 2,24,-1
 323 1012 l 1,25,-1
 323 600 l 1,15,-1
519 1396 m 1,26,-1
 669 1566 l 1,27,-1
 829 1566 l 1,28,-1
 829 1556 l 1,29,-1
 575 1282 l 1,30,-1
 462 1282 l 1,31,-1
 211 1556 l 1,32,-1
 211 1566 l 1,33,-1
 368 1566 l 1,34,-1
 519 1396 l 1,26,-1
EndSplineSet
Validated: 1
EndChar

StartChar: Sacute.c2sc
Encoding: 1114365 -1 250
Width: 1056
GlyphClass: 2
Flags: W
LayerCount: 2
Fore
SplineSet
803 298 m 0,0,1
 803 378 803 378 742.5 422 c 0,2,3
 682 466 682 466 535 503 c 0,4,5
 388 540 388 540 302 583 c 0,6,7
 107 681 107 681 107 860 c 0,8,9
 107 1003 107 1003 228.5 1092 c 0,10,11
 350 1181 350 1181 541 1181 c 0,12,13
 737 1181 737 1181 861.5 1081 c 0,14,15
 986 981 986 981 986 825 c 1,16,-1
 801 825 l 1,17,18
 801 923 801 923 730.5 976.5 c 0,19,20
 660 1030 660 1030 539 1030 c 0,21,22
 426 1030 426 1030 359 985.5 c 0,23,24
 292 941 292 941 292 861 c 0,25,26
 292 796 292 796 353.5 752 c 0,27,28
 415 708 415 708 571 668 c 0,29,30
 727 628 727 628 815 577.5 c 0,31,32
 903 527 903 527 946 459 c 0,33,34
 989 391 989 391 989 300 c 0,35,36
 989 153 989 153 867.5 68.5 c 0,37,38
 746 -16 746 -16 547 -16 c 0,39,40
 340 -16 340 -16 203.5 85.5 c 0,41,42
 67 187 67 187 67 349 c 1,43,-1
 253 349 l 1,44,45
 253 247 253 247 330 190 c 0,46,47
 407 133 407 133 547 133 c 0,48,49
 673 133 673 133 738 178.5 c 0,50,51
 803 224 803 224 803 298 c 0,0,1
634 1566 m 1,52,-1
 858 1566 l 1,53,-1
 590 1272 l 1,54,-1
 441 1272 l 1,55,-1
 634 1566 l 1,52,-1
EndSplineSet
Validated: 1
EndChar

StartChar: Scircumflex.c2sc
Encoding: 1114366 -1 251
Width: 1056
GlyphClass: 2
Flags: W
LayerCount: 2
Fore
SplineSet
803 298 m 0,0,1
 803 378 803 378 742.5 422 c 0,2,3
 682 466 682 466 535 503 c 0,4,5
 388 540 388 540 302 583 c 0,6,7
 107 681 107 681 107 860 c 0,8,9
 107 1003 107 1003 228.5 1092 c 0,10,11
 350 1181 350 1181 541 1181 c 0,12,13
 737 1181 737 1181 861.5 1081 c 0,14,15
 986 981 986 981 986 825 c 1,16,-1
 801 825 l 1,17,18
 801 923 801 923 730.5 976.5 c 0,19,20
 660 1030 660 1030 539 1030 c 0,21,22
 426 1030 426 1030 359 985.5 c 0,23,24
 292 941 292 941 292 861 c 0,25,26
 292 796 292 796 353.5 752 c 0,27,28
 415 708 415 708 571 668 c 0,29,30
 727 628 727 628 815 577.5 c 0,31,32
 903 527 903 527 946 459 c 0,33,34
 989 391 989 391 989 300 c 0,35,36
 989 153 989 153 867.5 68.5 c 0,37,38
 746 -16 746 -16 547 -16 c 0,39,40
 340 -16 340 -16 203.5 85.5 c 0,41,42
 67 187 67 187 67 349 c 1,43,-1
 253 349 l 1,44,45
 253 247 253 247 330 190 c 0,46,47
 407 133 407 133 547 133 c 0,48,49
 673 133 673 133 738 178.5 c 0,50,51
 803 224 803 224 803 298 c 0,0,1
846 1292 m 1,52,-1
 846 1282 l 1,53,-1
 693 1282 l 1,54,-1
 543 1452 l 1,55,-1
 394 1282 l 1,56,-1
 241 1282 l 1,57,-1
 241 1294 l 1,58,-1
 487 1566 l 1,59,-1
 599 1566 l 1,60,-1
 846 1292 l 1,52,-1
EndSplineSet
Validated: 1
EndChar

StartChar: Scedilla.c2sc
Encoding: 1114367 -1 252
Width: 1056
GlyphClass: 2
Flags: W
LayerCount: 2
Fore
SplineSet
803 298 m 0,0,1
 803 378 803 378 742.5 422 c 0,2,3
 682 466 682 466 535 503 c 0,4,5
 388 540 388 540 302 583 c 0,6,7
 107 681 107 681 107 860 c 0,8,9
 107 1003 107 1003 228.5 1092 c 0,10,11
 350 1181 350 1181 541 1181 c 0,12,13
 737 1181 737 1181 861.5 1081 c 0,14,15
 986 981 986 981 986 825 c 1,16,-1
 801 825 l 1,17,18
 801 923 801 923 730.5 976.5 c 0,19,20
 660 1030 660 1030 539 1030 c 0,21,22
 426 1030 426 1030 359 985.5 c 0,23,24
 292 941 292 941 292 861 c 0,25,26
 292 796 292 796 353.5 752 c 0,27,28
 415 708 415 708 571 668 c 0,29,30
 727 628 727 628 815 577.5 c 0,31,32
 903 527 903 527 946 459 c 0,33,34
 989 391 989 391 989 300 c 0,35,36
 989 153 989 153 867.5 68.5 c 0,37,38
 746 -16 746 -16 547 -16 c 0,39,40
 340 -16 340 -16 203.5 85.5 c 0,41,42
 67 187 67 187 67 349 c 1,43,-1
 253 349 l 1,44,45
 253 247 253 247 330 190 c 0,46,47
 407 133 407 133 547 133 c 0,48,49
 673 133 673 133 738 178.5 c 0,50,51
 803 224 803 224 803 298 c 0,0,1
624 0 m 1,52,-1
 612 -52 l 1,53,54
 765 -79 765 -79 765 -225 c 0,55,56
 765 -322 765 -322 685 -378.5 c 0,57,58
 605 -435 605 -435 462 -435 c 1,59,-1
 455 -328 l 1,60,61
 534 -328 534 -328 577.5 -302 c 0,62,63
 621 -276 621 -276 621 -229 c 0,64,65
 621 -185 621 -185 589 -164 c 0,66,67
 557 -143 557 -143 459 -134 c 1,68,-1
 491 0 l 1,69,-1
 624 0 l 1,52,-1
EndSplineSet
Validated: 5
EndChar

StartChar: Scaron.c2sc
Encoding: 1114368 -1 253
Width: 1056
GlyphClass: 2
Flags: W
LayerCount: 2
Fore
SplineSet
803 298 m 0,0,1
 803 378 803 378 742.5 422 c 0,2,3
 682 466 682 466 535 503 c 0,4,5
 388 540 388 540 302 583 c 0,6,7
 107 681 107 681 107 860 c 0,8,9
 107 1003 107 1003 228.5 1092 c 0,10,11
 350 1181 350 1181 541 1181 c 0,12,13
 737 1181 737 1181 861.5 1081 c 0,14,15
 986 981 986 981 986 825 c 1,16,-1
 801 825 l 1,17,18
 801 923 801 923 730.5 976.5 c 0,19,20
 660 1030 660 1030 539 1030 c 0,21,22
 426 1030 426 1030 359 985.5 c 0,23,24
 292 941 292 941 292 861 c 0,25,26
 292 796 292 796 353.5 752 c 0,27,28
 415 708 415 708 571 668 c 0,29,30
 727 628 727 628 815 577.5 c 0,31,32
 903 527 903 527 946 459 c 0,33,34
 989 391 989 391 989 300 c 0,35,36
 989 153 989 153 867.5 68.5 c 0,37,38
 746 -16 746 -16 547 -16 c 0,39,40
 340 -16 340 -16 203.5 85.5 c 0,41,42
 67 187 67 187 67 349 c 1,43,-1
 253 349 l 1,44,45
 253 247 253 247 330 190 c 0,46,47
 407 133 407 133 547 133 c 0,48,49
 673 133 673 133 738 178.5 c 0,50,51
 803 224 803 224 803 298 c 0,0,1
542 1396 m 1,52,-1
 692 1566 l 1,53,-1
 852 1566 l 1,54,-1
 852 1556 l 1,55,-1
 598 1282 l 1,56,-1
 485 1282 l 1,57,-1
 234 1556 l 1,58,-1
 234 1566 l 1,59,-1
 391 1566 l 1,60,-1
 542 1396 l 1,52,-1
EndSplineSet
Validated: 1
EndChar

StartChar: uni021A.c2sc
Encoding: 1114369 -1 254
Width: 1062
GlyphClass: 2
Flags: W
LayerCount: 2
Fore
SplineSet
1021 1012 m 1
 622 1012 l 1
 622 0 l 1
 437 0 l 1
 437 1012 l 1
 40 1012 l 1
 40 1165 l 1
 1021 1165 l 1
 1021 1012 l 1
EndSplineSet
Refer: 111 63171 N 1 0 0 1 276 -350 2
Validated: 1
EndChar

StartChar: Tcaron.c2sc
Encoding: 1114370 -1 255
Width: 1062
GlyphClass: 2
Flags: W
LayerCount: 2
Fore
SplineSet
1021 1012 m 1,0,-1
 622 1012 l 1,1,-1
 622 0 l 1,2,-1
 437 0 l 1,3,-1
 437 1012 l 1,4,-1
 40 1012 l 1,5,-1
 40 1165 l 1,6,-1
 1021 1165 l 1,7,-1
 1021 1012 l 1,0,-1
529 1396 m 1,8,-1
 679 1566 l 1,9,-1
 839 1566 l 1,10,-1
 839 1556 l 1,11,-1
 585 1282 l 1,12,-1
 472 1282 l 1,13,-1
 221 1556 l 1,14,-1
 221 1566 l 1,15,-1
 378 1566 l 1,16,-1
 529 1396 l 1,8,-1
EndSplineSet
Validated: 1
EndChar

StartChar: uni0162.c2sc
Encoding: 1114371 -1 256
Width: 1062
GlyphClass: 2
Flags: W
LayerCount: 2
Fore
SplineSet
1021 1012 m 1,0,-1
 622 1012 l 1,1,-1
 622 0 l 1,2,-1
 437 0 l 1,3,-1
 437 1012 l 1,4,-1
 40 1012 l 1,5,-1
 40 1165 l 1,6,-1
 1021 1165 l 1,7,-1
 1021 1012 l 1,0,-1
603 2 m 1,8,-1
 591 -50 l 1,9,10
 744 -77 744 -77 744 -223 c 0,11,12
 744 -320 744 -320 664 -376.5 c 0,13,14
 584 -433 584 -433 441 -433 c 1,15,-1
 434 -326 l 1,16,17
 513 -326 513 -326 556.5 -300 c 0,18,19
 600 -274 600 -274 600 -227 c 0,20,21
 600 -183 600 -183 568 -162 c 0,22,23
 536 -141 536 -141 438 -132 c 1,24,-1
 470 2 l 1,25,-1
 603 2 l 1,8,-1
EndSplineSet
Validated: 5
EndChar

